<?xml version="1.0" encoding="UTF-8" standalone="no"?>
<!-- Created with Inkscape (http://www.inkscape.org/) -->

<svg
   xmlns:dc="http://purl.org/dc/elements/1.1/"
   xmlns:cc="http://creativecommons.org/ns#"
   xmlns:rdf="http://www.w3.org/1999/02/22-rdf-syntax-ns#"
   xmlns:svg="http://www.w3.org/2000/svg"
   xmlns="http://www.w3.org/2000/svg"
   xmlns:sodipodi="http://sodipodi.sourceforge.net/DTD/sodipodi-0.dtd"
   xmlns:inkscape="http://www.inkscape.org/namespaces/inkscape"
   width="210mm"
   height="297mm"
   viewBox="0 0 210 297"
   version="1.1"
   id="svg8"
   inkscape:version="0.92.4 (5da689c313, 2019-01-14)"
   sodipodi:docname="bowhead.svg">
  <defs
     id="defs2" />
  <sodipodi:namedview
     id="base"
     pagecolor="#ffffff"
     bordercolor="#666666"
     borderopacity="1.0"
     inkscape:pageopacity="0.0"
     inkscape:pageshadow="2"
     inkscape:zoom="1.979899"
     inkscape:cx="437.82072"
     inkscape:cy="729.6069"
     inkscape:document-units="mm"
     inkscape:current-layer="layer1"
     showgrid="false"
     inkscape:window-width="1920"
     inkscape:window-height="986"
     inkscape:window-x="-11"
     inkscape:window-y="-11"
     inkscape:window-maximized="1" />
  <metadata
     id="metadata5">
    <rdf:RDF>
      <cc:Work
         rdf:about="">
        <dc:format>image/svg+xml</dc:format>
        <dc:type
           rdf:resource="http://purl.org/dc/dcmitype/StillImage" />
        <dc:title />
      </cc:Work>
    </rdf:RDF>
  </metadata>
  <g
     inkscape:label="Layer 1"
     inkscape:groupmode="layer"
     id="layer1">
    <path
       style="fill:#2f719b;stroke:#153374;stroke-width:0.5;stroke-linecap:round;stroke-linejoin:miter;stroke-opacity:1;stroke-miterlimit:4;stroke-dasharray:none;fill-opacity:1"
       d="m 19.198504,153.32319 c 2.032907,-9.73123 12.033578,-15.99836 27.85953,-20.36486 0,0 1.511619,-2.64156 2.618796,-3.64958 1.356435,-1.23495 4.751742,-2.77601 4.751742,-2.77601 3.149801,-0.33275 6.299602,0.4594 9.449403,2.64583 6.693398,-2.3168 16.090795,-2.78733 26.830346,-6.59024 9.070034,-3.21172 18.225329,-5.63344 26.356529,-9.225 14.38714,-6.35482 23.23896,-5.74122 25.62116,-8.75321 2.51984,-3.18603 8.571,-5.153289 7.55953,-8.693456 0,0 -1.30941,-3.468404 -1.51191,-5.291666 -0.24378,-2.194962 0.37798,-6.614584 0.37798,-6.614584 l 3.21279,-1.322916 c 0.66392,-3.397427 4.2166,-4.509821 6.99256,-6.236605 0,0 5.85863,1.133927 6.80357,1.322916 0.94494,0.188987 3.63697,-2.750169 7.18155,-3.779763 3.54458,-1.029594 9.31082,-0.974742 13.98512,-1.133927 4.91125,-0.167254 15.99744,-1.396919 14.74107,0.188986 -1.25637,1.585905 -5.51886,4.546928 -10.39434,8.882441 -6.24137,5.550128 -25.39587,11.848361 -30.2381,18.520834 -0.1801,0.24817 -3.73868,18.38142 -8.12649,27.0253 -4.4384,8.74353 -9.37139,21.19881 -15.875,28.5372 C 130.45227,163.84802 114.71577,170 114.71577,170 l 6.23661,7.74851 c -3.88017,1.14768 -8.78668,-0.78364 -14.17411,-4.15774 0,0 -13.237351,0.19948 -18.331842,0.56697 -6.358439,0.45866 -13.52665,1.37242 -13.607144,1.5119 -1.388628,2.4062 -3.829267,5.60651 -5.236311,5.51308 -3.574848,-0.23737 -5.970985,-4.55107 -6.916246,-7.07083 -23.518756,-6.05651 -45.08753,-13.13304 -43.488223,-20.7887 z"
       id="path858"
       inkscape:connector-curvature="0"
       sodipodi:nodetypes="scsccssssscccczszsssscccssscs" />
    <path
       style="fill:none;stroke:#153374;stroke-width:0.5;stroke-linecap:round;stroke-linejoin:miter;stroke-opacity:1;stroke-miterlimit:4;stroke-dasharray:none"
       d="m 91.573222,160.09118 c 1.050888,-1.99876 3.623082,-2.26284 5.545841,-2.08804"
       id="path878"
       inkscape:connector-curvature="0" />
    <path
       style="fill:none;stroke:#153374;stroke-width:0.5;stroke-linecap:round;stroke-linejoin:miter;stroke-opacity:1;stroke-miterlimit:4;stroke-dasharray:none"
       d="m 92.558776,160.34175 c 0.911537,-1.09397 2.452423,-1.46999 3.758478,-1.46999"
       id="path880"
       inkscape:connector-curvature="0" />
    <path
       style="fill:none;stroke:#000000;stroke-width:0;stroke-linecap:round;stroke-linejoin:miter;stroke-opacity:1;stroke-miterlimit:4;stroke-dasharray:none"
       d="m 74.46797,150.45278 c -0.0078,-0.11318 0.04332,-0.17243 0.100227,-0.26728 0.474147,-0.79024 1.52617,-0.70816 2.255086,-0.38419 0.273299,0.12146 0.996582,0.22283 0.785106,0.43431 -0.808191,0.80819 -2.300266,0.81533 -3.123713,0.30068"
       id="path890"
       inkscape:connector-curvature="0" />
    <path
       style="fill:#002944;stroke:#162744;stroke-width:0.265;stroke-linecap:round;stroke-linejoin:miter;stroke-opacity:1;stroke-miterlimit:4;stroke-dasharray:none;fill-opacity:1"
       d="m 74.484676,150.5363 c 1.644674,-2.81779 4.864672,1.51286 0,0"
       id="path894"
       inkscape:connector-curvature="0" />
    <path
       style="fill:none;stroke:#25598c;stroke-width:0.5;stroke-linecap:round;stroke-linejoin:miter;stroke-opacity:1;stroke-miterlimit:4;stroke-dasharray:none"
       d="m 166.50891,77.97262 c -3.34347,1.730788 -6.35852,5.760794 -8.15172,8.151722"
       id="path898"
       inkscape:connector-curvature="0" />
    <path
       style="fill:none;stroke:#25598c;stroke-width:0.5;stroke-linecap:round;stroke-linejoin:miter;stroke-opacity:1;stroke-miterlimit:4;stroke-dasharray:none"
       d="m 179.87239,73.429039 c -3.97859,2.31022 -12.99558,8.418454 -17.10525,13.898015"
       id="path900"
       inkscape:connector-curvature="0" />
    <path
       style="fill:none;stroke:#25598c;stroke-width:0.5;stroke-linecap:round;stroke-linejoin:miter;stroke-opacity:1;stroke-miterlimit:4;stroke-dasharray:none"
       d="m 195.10675,72.62723 c -7.78232,2.442787 -14.38892,7.279277 -20.98066,11.893494"
       id="path902"
       inkscape:connector-curvature="0" />
    <path
       style="fill:none;stroke:#25598c;stroke-width:0.5;stroke-linecap:round;stroke-linejoin:miter;stroke-opacity:1;stroke-miterlimit:4;stroke-dasharray:none"
       d="m 152.3244,82.687498 c -1.11287,3.564757 0.3773,6.977676 2.29102,9.984946"
       id="path904"
       inkscape:connector-curvature="0" />
    <path
       style="fill:none;stroke:#153374;stroke-width:0.5;stroke-linecap:round;stroke-linejoin:miter;stroke-opacity:1;stroke-miterlimit:4;stroke-dasharray:none"
       d="m 151.0741,94.34288 c 0.0688,1.897264 -0.91196,3.785103 -2.07134,4.944486"
       id="path920"
       inkscape:connector-curvature="0" />
    <path
       style="fill:#215d81;stroke:none;stroke-width:0.26458332px;stroke-linecap:butt;stroke-linejoin:miter;stroke-opacity:1;fill-opacity:1"
       d="m 19.245751,155.35481 c 6.316348,11.90894 54.140928,22.35435 61.263178,19.60612 3.2785,-1.26506 18.116818,-0.93786 22.017111,-1.32292 2.54946,-0.25169 4.10143,-0.13174 3.68527,-0.6142 -1.6313,-1.89119 -8.51573,-7.05381 -10.01637,-8.64621 -2.084187,-2.08418 -13.996821,4.10464 -18.142858,2.03163 -5.216477,-2.60824 -11.036437,-0.16053 -16.441964,-1.51191 -12.969997,-3.2425 -35.281537,-1.54489 -42.364367,-9.54251 z"
       id="path924"
       inkscape:connector-curvature="0"
       sodipodi:nodetypes="csssccsc" />
    <path
       style="fill:#215d81;fill-opacity:1;stroke:none;stroke-width:0.26458332px;stroke-linecap:butt;stroke-linejoin:miter;stroke-opacity:1"
       d="m 103.60936,161.81815 c 5.37637,2.26769 8.4338,5.40623 11.10641,7.99286 1.10002,1.10001 11.87991,-6.15089 13.8076,-7.11473 15.5023,-8.15206 19.70584,-26.27227 27.76978,-42.40015 1.64799,-3.29596 3.23768,-14.47934 4.60254,-17.58933 0.95283,-2.17113 0.50964,-2.16468 0.50964,-2.16468 -0.65355,0.96152 -6.30773,14.10081 -7.19105,16.35222 -3.29927,8.40915 -6.77069,15.48893 -10.45526,22.85806 -6.32825,12.65651 -28.38171,19.45065 -40.14966,22.06575 z"
       id="path926"
       inkscape:connector-curvature="0"
       sodipodi:nodetypes="ccccscssc" />
    <path
       style="fill:#215d81;fill-opacity:1;stroke:none;stroke-width:0.26458332px;stroke-linecap:butt;stroke-linejoin:miter;stroke-opacity:1"
       d="m 161.40533,100.54212 c 0.26423,-4.125293 -1.00327,-3.951918 1.4563,-6.411495 3.59355,-3.59355 19.90377,-9.560202 25.18152,-12.199079 7.06446,-3.532227 14.57842,-9.500124 14.28482,-9.115316 -1.00162,1.31279 -2.06533,1.839103 -4.62642,3.954349 -2.70687,2.235649 -5.72662,5.763541 -11.29009,8.519575 -15.77488,7.814573 -22.43574,12.001871 -25.00613,15.251966 z"
       id="path928"
       inkscape:connector-curvature="0"
       sodipodi:nodetypes="ccssssc" />
    <path
       style="fill:#659ec0;fill-opacity:1;stroke:none;stroke-width:0.30477017px;stroke-linecap:butt;stroke-linejoin:miter;stroke-opacity:1"
       d="m 50.568466,139.86178 c -6.278774,1.96696 -3.41747,1.7303 -5.285023,2.99354 -1.336727,0.90418 -1.869928,-0.17145 -2.871168,0.56435 -0.693796,0.50985 2.096963,1.93867 4.258816,0.77838 2.267819,-1.21715 -0.135762,1.10122 0.5435,1.21623 1.142384,0.19342 3.062938,-1.56081 4.308114,-0.74662 1.579807,1.03299 -3.200969,1.54511 -5.071491,2.64845 -1.258952,0.7426 -2.490202,1.03852 -1.364437,1.86582 0.887069,0.65189 3.340045,-2.03396 5.763944,-2.7675 1.594481,-0.48254 3.176382,0.6283 4.29168,1.44791 1.497538,1.10051 -4.569779,3.36055 -3.984347,0.89581 0.246182,-1.03646 -4.925362,1.60267 -5.312307,2.41542 -0.619525,1.30126 3.119586,-0.4813 2.126035,1.24634 -1.295666,2.25296 -6.719191,0.75466 -5.975431,1.93775 1.646331,2.6188 6.952799,-2.33734 9.195625,-0.68914 1.20058,0.88228 -7.404919,3.34924 -2.154778,5.27835 2.157519,0.79276 5.180601,-1.9393 9.346922,-0.91871 -0.284339,4.46295 -5.802029,3.6019 -6.478204,8.29468 -0.452752,3.14219 -5.241532,3.35961 -5.241532,3.35961 -3.74315,-0.45022 -28.383651,-9.04057 -27.3586,-14.66404 0.08867,-0.48644 0.433674,0.82744 2.706927,0.82744 0.959797,0 1.716148,-1.89316 1.661623,-3.46564 -0.04561,-1.31535 0.668945,-2.35128 1.755079,-2.72748 10.128175,-11.15817 22.081506,-13.34847 25.139053,-9.79095 z"
       id="path949"
       inkscape:connector-curvature="0"
       sodipodi:nodetypes="cscsssscscsssscccscssscc" />
    <path
       style="fill:#5386a5;fill-opacity:1;stroke:none;stroke-width:0.26458332px;stroke-linecap:butt;stroke-linejoin:miter;stroke-opacity:1"
       d="m 19.245751,155.35481 c -1.33375,5.16791 27.238454,14.41773 27.418633,14.32764 1.295383,0.43729 5.027043,-0.9176 5.119085,-3.17679 0.05473,-1.34325 1.743309,-1.72254 0.618549,-3.28134 -1.60219,-2.22047 -11.624753,-1.58209 -14.115655,-1.99724 -2.30428,-0.38405 -4.67827,-0.55393 -6.949006,-1.20271 -4.453655,-1.27248 -8.557012,-4.71022 -12.091602,-4.66956"
       id="path951"
       inkscape:connector-curvature="0"
       sodipodi:nodetypes="ccssccc" />
    <path
       style="fill:none;stroke:#153374;stroke-width:0.5;stroke-linecap:round;stroke-linejoin:miter;stroke-miterlimit:4;stroke-dasharray:none;stroke-opacity:1"
       d="m 19.577493,151.80583 c -1.380962,3.53271 1.235935,4.89288 3.073599,3.00678 1.781381,-1.82833 -1.12141,-1.75174 3.741774,-6.5481 8.653855,-8.65386 22.146825,-13.13875 33.542323,-10.28988 9.300459,2.52557 9.81606,16.16615 18.4416,13.89802"
       id="path884"
       inkscape:connector-curvature="0"
       sodipodi:nodetypes="csccc" />
    <path
       style="fill:#2f719b;fill-opacity:1;stroke:none;stroke-width:0.38390642px;stroke-linecap:butt;stroke-linejoin:miter;stroke-opacity:1"
       d="m 36.741395,155.21039 c -2.230206,4.45277 5.783747,-0.48675 0,0 z"
       id="path961"
       inkscape:connector-curvature="0" />
    <path
       style="fill:#2f719b;fill-opacity:1;stroke:none;stroke-width:0.38390642px;stroke-linecap:butt;stroke-linejoin:miter;stroke-opacity:1"
       d="m 32.350357,156.26188 c -1.120733,2.66389 3.450836,0.90354 0,0 z"
       id="path963"
       inkscape:connector-curvature="0" />
    <path
       style="fill:#2f719b;fill-opacity:1;stroke:none;stroke-width:0.38390642px;stroke-linecap:butt;stroke-linejoin:miter;stroke-opacity:1"
       d="m 28.369762,156.81834 c -0.15574,2.37117 3.228011,0.57522 0,0 z"
       id="path965"
       inkscape:connector-curvature="0" />
    <path
       style="fill:#2f719b;fill-opacity:1;stroke:none;stroke-width:0.38390642px;stroke-linecap:butt;stroke-linejoin:miter;stroke-opacity:1"
       d="m 24.032693,156.68715 c -0.654201,2.4548 3.787795,1.3916 0,0 z"
       id="path967"
       inkscape:connector-curvature="0" />
    <path
       style="fill:#2f719b;stroke:none;stroke-width:0.26458332px;stroke-linecap:butt;stroke-linejoin:miter;stroke-opacity:1;fill-opacity:1"
       d="m 76.114954,149.87277 c -0.260279,0.92619 1.449292,0 0,0 z"
       id="path969"
       inkscape:connector-curvature="0" />
    <path
       style="fill:#215d81;fill-opacity:1;stroke:none;stroke-width:0.26458332px;stroke-linecap:butt;stroke-linejoin:miter;stroke-opacity:1"
       d="m 70.894445,180.87156 c 0.401892,-1.09592 4.401517,-4.65648 3.588809,-5.46919 -0.992115,0.66954 -10.337612,-1.20741 -11.325323,-1.50187 -0.884329,-0.26364 -0.177697,2.94616 2.5097,5.48208 1.447546,1.36595 2.718612,2.04636 5.226814,1.48898 z"
       id="path971"
       inkscape:connector-curvature="0"
       sodipodi:nodetypes="ccssc" />
    <path
       style="fill:none;stroke:#153374;stroke-width:0.5;stroke-linecap:round;stroke-linejoin:miter;stroke-miterlimit:4;stroke-dasharray:none;stroke-opacity:1"
       d="m 62.686726,174.11189 c 3.744081,0.63697 8.907989,1.45278 12.680381,1.45278"
       id="path886"
       inkscape:connector-curvature="0"
       sodipodi:nodetypes="cc" />
    <path
       style="fill:#215d81;stroke:none;stroke-width:0.26458332px;stroke-linecap:butt;stroke-linejoin:miter;stroke-opacity:1;fill-opacity:1"
       d="m 98.622455,166.43883 c 7.481225,4.90231 11.969045,7.76874 17.773425,6.01357 0.60945,-0.18429 1.49611,1.61566 2.60588,2.80633 0.50978,0.54694 1.92373,2.28576 1.80406,2.40542 -3.60162,2.71413 -15.77845,-4.90462 -17.06774,-6.74608"
       id="path975"
       inkscape:connector-curvature="0"
       sodipodi:nodetypes="csscc" />
    <path
       style="fill:none;stroke:#153374;stroke-width:0.5;stroke-linecap:round;stroke-linejoin:miter;stroke-opacity:1;stroke-miterlimit:4;stroke-dasharray:none"
       d="m 93.143429,161.49435 c 1.663457,1.3723 7.407611,6.5114 13.634841,12.09642"
       id="path860"
       inkscape:connector-curvature="0"
       sodipodi:nodetypes="cc" />
    <path
       style="fill:none;stroke:#153374;stroke-width:0.5;stroke-linecap:round;stroke-linejoin:miter;stroke-opacity:1;stroke-miterlimit:4;stroke-dasharray:none"
       d="M 97.820645,158.82165 C 102.67667,161.9336 110.59227,164.20977 114.71577,170"
       id="path862"
       inkscape:connector-curvature="0"
       sodipodi:nodetypes="cc" />
    <path
       style="fill:#77bbe6;fill-opacity:0.24137932;stroke:none;stroke-width:0.26458332px;stroke-linecap:butt;stroke-linejoin:miter;stroke-opacity:1"
       d="m 19.511233,151.89648 c 14.786343,-23.35654 67.077237,-17.02886 76.867375,-17.14447 9.790142,-0.1156 24.696522,-2.23405 29.171812,-13.52471 1.68706,-4.25629 7.77627,-5.90539 10.95805,-9.08717 5.81031,-5.81031 18.86212,-11.34089 13.47036,-16.333268 1.50037,3.490398 -5.27683,5.939908 -8.0849,9.822158 -5.70001,1.89141 -12.94511,3.33944 -18.2144,5.44204 -8.77675,3.50218 -23.64283,9.03142 -36.323608,12.64945 -12.666659,3.614 -23.152717,5.31868 -23.477947,5.45806 0,0 -4.742383,-3.86681 -9.782933,-2.22109 -7.247178,2.36616 -4.600608,4.84017 -7.10327,6.0915 -2.555169,1.27758 -5.690344,1.78422 -8.57122,2.74451 -10.87416,3.01585 -18.504138,12.27836 -18.909319,16.10299 z"
       id="path977"
       inkscape:connector-curvature="0"
       sodipodi:nodetypes="czssccsscsccc" />
    <path
       style="fill:#77bbe6;fill-opacity:0.24137932;stroke:none;stroke-width:0.26458332px;stroke-linecap:butt;stroke-linejoin:miter;stroke-opacity:1"
       d="m 148.5356,92.495825 c 0.4154,-2.066642 0.97215,-4.847563 2.27179,-6.147199 0.83216,-0.832168 1.73725,4.250462 1.73725,3.073601 0,-4.115417 1.21009,-9.000535 5.47902,-10.423512 7.39424,-2.464745 1.59022,4.08256 3.34087,3.207234 3.12669,-1.563343 5.15178,-3.310882 8.41899,-4.944486 2.02132,-1.010658 4.77197,-2.091988 7.01583,-2.472243 1.85037,-0.313572 8.01808,-1.39986 8.01808,-0.200454 0,3.795797 -4.53353,3.301558 -5.94674,6.481286 0.47756,-0.437077 5.00914,-3.249047 8.74258,-5.224254 2.8892,-1.528555 5.35401,-2.261171 4.75453,-2.860647 -0.78507,-0.785068 -2.7898,-0.159847 -5.74066,-0.01712 -4.88387,0.236215 -11.54593,0.545291 -13.56957,1.219837 -2.78718,0.929059 -3.6089,2.427954 -6.5481,3.407686 -2.1238,0.707933 -5.58854,-1.220948 -7.25878,-1.054005 -3.2937,2.011008 -4.92255,1.930636 -5.52476,3.436024 -1.82334,4.557973 -2.85412,3.609071 -4.72241,4.16619 -0.37155,2.176133 -1.0828,4.593078 -0.46792,8.352066"
       id="path979"
       inkscape:connector-curvature="0"
       sodipodi:nodetypes="ccsssssscssssscscc" />
    <path
       style="fill:none;fill-opacity:1;stroke:#153374;stroke-width:0.1;stroke-linecap:round;stroke-linejoin:miter;stroke-miterlimit:4;stroke-dasharray:none;stroke-opacity:1"
       d="m 19.198502,153.32319 c 2.032907,-9.73123 12.033578,-15.99836 27.85953,-20.36486 0,0 1.51162,-2.64156 2.618796,-3.64958 1.356436,-1.23495 4.751742,-2.77601 4.751742,-2.77601 3.149801,-0.33275 6.299602,0.4594 9.449403,2.64583 6.6934,-2.3168 16.090797,-2.78733 26.830347,-6.59024 9.07003,-3.21172 18.22533,-5.63344 26.35653,-9.225 14.38713,-6.35482 23.23896,-5.74122 25.62116,-8.75321 2.51983,-3.18603 8.571,-5.153288 7.55952,-8.693454 0,0 -1.3094,-3.468404 -1.51191,-5.291666 -0.24378,-2.194962 0.37798,-6.614584 0.37798,-6.614584 l 3.2128,-1.322916 c 0.66391,-3.397427 4.21659,-4.509821 6.99255,-6.236605 0,0 5.85863,1.133927 6.80357,1.322916 0.94495,0.188987 3.63697,-2.750169 7.18156,-3.779763 3.54458,-1.029594 9.31082,-0.974742 13.98511,-1.133927 4.91126,-0.167254 15.99744,-1.396919 14.74108,0.188986 -1.25638,1.585905 -5.51887,4.546928 -10.39435,8.882441 -6.24137,5.550128 -25.39587,11.848361 -30.23809,18.520832 -0.18011,0.24817 -3.73869,18.38142 -8.1265,27.0253 -4.4384,8.74353 -9.37138,21.19881 -15.875,28.5372 C 130.45226,163.84802 114.71577,170 114.71577,170 l 6.2366,7.74852 c -3.88016,1.14768 -8.78667,-0.78364 -14.1741,-4.15774 0,0 -13.23735,0.19948 -18.33184,0.56697 -6.358443,0.45866 -13.526654,1.37242 -13.607148,1.5119 -1.388629,2.4062 -3.829267,5.60651 -5.236311,5.51308 -3.574848,-0.23737 -5.970984,-4.55107 -6.916245,-7.07083 -23.518757,-6.05652 -45.087531,-13.13305 -43.488224,-20.78871 z"
       id="path858-2"
       inkscape:connector-curvature="0"
       sodipodi:nodetypes="scsccssssscccczszsssscccssscs" />
    <path
       style="fill:#4083ad;stroke:none;stroke-width:0.26458332px;stroke-linecap:butt;stroke-linejoin:miter;stroke-opacity:1;fill-opacity:1"
       d="m 73.933433,149.68438 c -1.449531,-0.93417 -0.639273,-2.52011 0.902033,-3.29076 1.364769,-0.68238 6.407727,0.67492 4.543584,2.53906 -0.979533,0.97953 -3.918926,-2.02046 -5.445617,0.7517 z"
       id="path981"
       inkscape:connector-curvature="0" />
    <path
       style="fill:none;stroke:#162744;stroke-width:0.265;stroke-linecap:round;stroke-linejoin:miter;stroke-opacity:1;stroke-miterlimit:4;stroke-dasharray:none"
       d="m 73.933433,149.68438 c 0.511209,-1.73259 2.77206,-1.22853 3.775181,-0.3508"
       id="path888"
       inkscape:connector-curvature="0" />
    <path
       style="fill:none;stroke:#215d81;stroke-width:0.265;stroke-linecap:butt;stroke-linejoin:miter;stroke-opacity:1;stroke-miterlimit:4;stroke-dasharray:none"
       d="m 89.202381,149.21131 c 18.673249,-5.57436 34.796899,-9.59585 43.467259,-29.10417"
       id="path983"
       inkscape:connector-curvature="0" />
  </g>
</svg>
