<?xml version="1.0" encoding="UTF-8" standalone="no"?>
<!-- Created with Inkscape (http://www.inkscape.org/) -->

<svg
   xmlns:dc="http://purl.org/dc/elements/1.1/"
   xmlns:cc="http://creativecommons.org/ns#"
   xmlns:rdf="http://www.w3.org/1999/02/22-rdf-syntax-ns#"
   xmlns:svg="http://www.w3.org/2000/svg"
   xmlns="http://www.w3.org/2000/svg"
   xmlns:xlink="http://www.w3.org/1999/xlink"
   xmlns:sodipodi="http://sodipodi.sourceforge.net/DTD/sodipodi-0.dtd"
   xmlns:inkscape="http://www.inkscape.org/namespaces/inkscape"
   width="210mm"
   height="297mm"
   viewBox="0 0 210 297"
   version="1.1"
   id="svg8"
   inkscape:version="0.92.4 (5da689c313, 2019-01-14)"
   sodipodi:docname="clonal expansiom.svg">
  <defs
     id="defs2">
    <linearGradient
       inkscape:collect="always"
       id="linearGradient934">
      <stop
         style="stop-color:#b6b8d0;stop-opacity:1;"
         offset="0"
         id="stop930" />
      <stop
         style="stop-color:#b6b8d0;stop-opacity:0;"
         offset="1"
         id="stop932" />
    </linearGradient>
    <meshgradient
       inkscape:collect="always"
       id="meshgradient1670"
       gradientUnits="userSpaceOnUse"
       x="126.52521"
       y="232.19598"
       gradientTransform="matrix(0.87884052,0.05052419,-0.05052419,0.87884052,9.3367313,-142.90222)">
      <meshrow
         id="meshrow1672">
        <meshpatch
           id="meshpatch1674">
          <stop
             path="c 10.7407,0  21.4815,0  32.2222,0"
             style="stop-color:#ffffff;stop-opacity:1"
             id="stop1676" />
          <stop
             path="c 0,4.1328  0,8.2656  0,12.3984"
             style="stop-color:#505281;stop-opacity:1"
             id="stop1678" />
          <stop
             path="c -10.7407,0  -21.4815,0  -32.2222,0"
             style="stop-color:#ffffff;stop-opacity:1"
             id="stop1680" />
          <stop
             path="c 0,-4.1328  0,-8.2656  0,-12.3984"
             style="stop-color:#505281;stop-opacity:1"
             id="stop1682" />
        </meshpatch>
      </meshrow>
    </meshgradient>
    <radialGradient
       inkscape:collect="always"
       xlink:href="#linearGradient934"
       id="radialGradient936"
       cx="45.232802"
       cy="39.827725"
       fx="45.232802"
       fy="39.827725"
       r="14.623959"
       gradientTransform="matrix(1,0,0,0.41584909,0,23.265402)"
       gradientUnits="userSpaceOnUse" />
    <radialGradient
       inkscape:collect="always"
       xlink:href="#linearGradient934"
       id="radialGradient936-2"
       cx="45.232803"
       cy="39.827724"
       fx="45.232803"
       fy="39.827724"
       r="14.623959"
       gradientTransform="matrix(1,0,0,0.41584909,39.758906,23.32439)"
       gradientUnits="userSpaceOnUse" />
    <radialGradient
       inkscape:collect="always"
       xlink:href="#linearGradient934"
       id="radialGradient936-5"
       cx="45.232803"
       cy="39.827724"
       fx="45.232803"
       fy="39.827724"
       r="14.623959"
       gradientTransform="matrix(1,0,0,0.41584909,78.721165,22.805967)"
       gradientUnits="userSpaceOnUse" />
    <radialGradient
       inkscape:collect="always"
       xlink:href="#linearGradient934"
       id="radialGradient936-3"
       cx="45.232803"
       cy="39.827724"
       fx="45.232803"
       fy="39.827724"
       r="14.623959"
       gradientTransform="matrix(1,0,0,0.41584909,111.08229,23.057121)"
       gradientUnits="userSpaceOnUse" />
    <radialGradient
       inkscape:collect="always"
       xlink:href="#linearGradient934"
       id="radialGradient936-9"
       cx="45.232803"
       cy="39.827724"
       fx="45.232803"
       fy="39.827724"
       r="14.623959"
       gradientTransform="matrix(1,0,0,0.41584909,20.772026,39.082548)"
       gradientUnits="userSpaceOnUse" />
    <radialGradient
       inkscape:collect="always"
       xlink:href="#linearGradient934"
       id="radialGradient936-8"
       cx="45.232803"
       cy="39.827724"
       fx="45.232803"
       fy="39.827724"
       r="14.623959"
       gradientTransform="matrix(1,0,0,0.41584909,58.146783,39.098667)"
       gradientUnits="userSpaceOnUse" />
    <radialGradient
       inkscape:collect="always"
       xlink:href="#linearGradient934"
       id="radialGradient936-38"
       cx="45.232803"
       cy="39.827724"
       fx="45.232803"
       fy="39.827724"
       r="14.623959"
       gradientTransform="matrix(1,0,0,0.41584909,96.136661,40.696909)"
       gradientUnits="userSpaceOnUse" />
    <radialGradient
       inkscape:collect="always"
       xlink:href="#linearGradient934"
       id="radialGradient936-90"
       cx="45.232803"
       cy="39.827724"
       fx="45.232803"
       fy="39.827724"
       r="14.623959"
       gradientTransform="matrix(1,0,0,0.41584909,127.15604,37.222405)"
       gradientUnits="userSpaceOnUse" />
    <radialGradient
       inkscape:collect="always"
       xlink:href="#linearGradient934"
       id="radialGradient936-7"
       cx="45.232803"
       cy="39.827724"
       fx="45.232803"
       fy="39.827724"
       r="14.623959"
       gradientTransform="matrix(1,0,0,0.41584909,37.88802,57.29448)"
       gradientUnits="userSpaceOnUse" />
  </defs>
  <sodipodi:namedview
     id="base"
     pagecolor="#ffffff"
     bordercolor="#666666"
     borderopacity="1.0"
     inkscape:pageopacity="0.0"
     inkscape:pageshadow="2"
     inkscape:zoom="0.98994949"
     inkscape:cx="242.77327"
     inkscape:cy="862.55549"
     inkscape:document-units="mm"
     inkscape:current-layer="layer1"
     showgrid="false"
     showguides="false"
     inkscape:window-width="1920"
     inkscape:window-height="986"
     inkscape:window-x="-11"
     inkscape:window-y="-11"
     inkscape:window-maximized="1" />
  <metadata
     id="metadata5">
    <rdf:RDF>
      <cc:Work
         rdf:about="">
        <dc:format>image/svg+xml</dc:format>
        <dc:type
           rdf:resource="http://purl.org/dc/dcmitype/StillImage" />
        <dc:title />
      </cc:Work>
    </rdf:RDF>
  </metadata>
  <g
     inkscape:label="Layer 1"
     inkscape:groupmode="layer"
     id="layer1">
    <path
       style="fill:none;stroke:#707070;stroke-width:0.70227271;stroke-linecap:round;stroke-linejoin:miter;stroke-miterlimit:4;stroke-dasharray:none;stroke-opacity:1"
       d="m 28.192804,26.611305 c 18.375585,10.85296 -0.0037,9.6858 -10.339989,8.19331"
       id="path815-3"
       inkscape:connector-curvature="0" />
    <path
       style="fill:none;stroke:#707070;stroke-width:0.70227271;stroke-linecap:round;stroke-linejoin:miter;stroke-miterlimit:4;stroke-dasharray:none;stroke-opacity:1"
       d="m 42.925555,28.339035 c -0.417561,8.67306 9.765682,4.5939 18.432351,2.79343"
       id="path817-1"
       inkscape:connector-curvature="0" />
    <path
       style="fill:none;stroke:#707070;stroke-width:0.70227271;stroke-linecap:round;stroke-linejoin:miter;stroke-miterlimit:4;stroke-dasharray:none;stroke-opacity:1"
       d="m 32.426906,45.028995 c 15.10865,-5.48628 2.578298,8.83047 -3.266258,14.26027"
       id="path819-6"
       inkscape:connector-curvature="0" />
    <path
       style="fill:none;stroke:#707070;stroke-width:0.70227271;stroke-linecap:round;stroke-linejoin:miter;stroke-miterlimit:4;stroke-dasharray:none;stroke-opacity:1"
       d="m 46.636076,53.817805 c -0.66016,-12.75886 18.600012,-6.86892 22.122037,-5.22983"
       id="path827-4"
       inkscape:connector-curvature="0"
       sodipodi:nodetypes="cc" />
    <path
       style="fill:url(#radialGradient936);fill-opacity:1;stroke:#707070;stroke-width:0.88029164;stroke-linecap:butt;stroke-linejoin:miter;stroke-miterlimit:4;stroke-dasharray:none;stroke-opacity:1"
       d="m 31.087802,39.873865 c 1.005953,-3.5233 2.565578,-1.67051 4.988495,-2.71272 1.261855,-0.54278 3.235851,-2.36379 4.49977,-2.90746 0.930708,-0.40034 2.583424,1.14836 3.430609,1.19707 1.252359,0.072 11.091151,0.44698 11.137605,0.47365 1.454027,0.83459 2.947901,0.82803 3.539405,2.20316 1.057049,2.45741 0.935845,4.36604 -0.139458,5.32443 -0.791425,0.70538 -5.493252,0.33811 -6.544365,0.79024 -6.430314,2.76598 -7.240684,0.39057 -12.029116,-2.35794 -2.83726,-1.62856 -6.836436,1.0722 -8.882945,-2.01043 z"
       id="path829-5"
       inkscape:connector-curvature="0"
       sodipodi:nodetypes="cccsccsssc" />
    <path
       style="fill:#6a73bc;fill-opacity:1;stroke:#222241;stroke-width:0.23291048px;stroke-linecap:butt;stroke-linejoin:miter;stroke-opacity:1"
       d="m 49.826361,37.930795 c -1.094877,-0.44549 -2.48263,-0.39929 -3.651605,-0.25154 -0.702783,0.0888 -1.545759,0.1853 -2.176609,0.54142 -0.50218,0.28348 -1.963203,1.15487 -1.672872,1.92433 0.05047,0.13376 0.165866,0.27293 0.248414,0.38922 0.248707,0.35037 0.723221,0.58984 1.125632,0.71044 0.973819,0.29184 2.172535,0.44407 3.186499,0.37066 0.731752,-0.053 1.453417,-0.2185 2.183045,-0.2911 0.710566,-0.0707 2.396589,-0.30817 2.785376,-0.98551 0.327527,-0.57062 -0.555882,-1.63802 -1.035644,-1.9134 -0.151919,-0.0872 -0.371845,-0.1962 -0.461993,-0.29736 -0.08982,-0.10077 -0.381558,-0.11177 -0.530245,-0.19712 z"
       id="path837-0"
       inkscape:connector-curvature="0" />
    <path
       style="fill:none;stroke:#707070;stroke-width:0.70227271;stroke-linecap:round;stroke-linejoin:miter;stroke-miterlimit:4;stroke-dasharray:none;stroke-opacity:1"
       d="m 67.063172,26.583515 c 18.375588,10.85296 -0.0037,9.68579 -10.33999,8.19331"
       id="path815-3-75"
       inkscape:connector-curvature="0" />
    <path
       style="fill:none;stroke:#707070;stroke-width:0.70227271;stroke-linecap:round;stroke-linejoin:miter;stroke-miterlimit:4;stroke-dasharray:none;stroke-opacity:1"
       d="m 81.795919,28.311245 c -0.417578,8.67305 9.76569,4.5939 18.432371,2.79343"
       id="path817-1-8"
       inkscape:connector-curvature="0" />
    <path
       style="fill:none;stroke:#707070;stroke-width:0.70227271;stroke-linecap:round;stroke-linejoin:miter;stroke-miterlimit:4;stroke-dasharray:none;stroke-opacity:1"
       d="m 85.506447,53.790005 c -0.66016,-12.75885 18.600023,-6.86891 22.122053,-5.22982"
       id="path827-4-45"
       inkscape:connector-curvature="0"
       sodipodi:nodetypes="cc" />
    <path
       style="fill:none;stroke:#707070;stroke-width:0.70227271;stroke-linecap:round;stroke-linejoin:miter;stroke-miterlimit:4;stroke-dasharray:none;stroke-opacity:1"
       d="m 51.381582,61.341805 c 15.108649,-5.48628 2.578297,8.83046 -3.266259,14.26026"
       id="path819-6-5"
       inkscape:connector-curvature="0" />
    <path
       style="fill:none;stroke:#707070;stroke-width:0.70227271;stroke-linecap:round;stroke-linejoin:miter;stroke-miterlimit:4;stroke-dasharray:none;stroke-opacity:1"
       d="m 65.590751,70.130615 c -0.660159,-12.75887 18.600013,-6.86892 22.122038,-5.22984"
       id="path827-4-9"
       inkscape:connector-curvature="0"
       sodipodi:nodetypes="cc" />
    <path
       style="fill:none;stroke:#707070;stroke-width:0.70227271;stroke-linecap:round;stroke-linejoin:miter;stroke-miterlimit:4;stroke-dasharray:none;stroke-opacity:1"
       d="m 104.46116,70.102805 c -0.66016,-12.75885 18.60003,-6.8689 22.12205,-5.22981"
       id="path827-4-45-3"
       inkscape:connector-curvature="0"
       sodipodi:nodetypes="cc" />
    <path
       style="fill:none;stroke:#707070;stroke-width:0.70227271;stroke-linecap:round;stroke-linejoin:miter;stroke-miterlimit:4;stroke-dasharray:none;stroke-opacity:1"
       d="m 107.12845,26.103445 c 18.37557,10.85296 -0.004,9.68579 -10.340005,8.19332"
       id="path815-3-2"
       inkscape:connector-curvature="0" />
    <path
       style="fill:none;stroke:#707070;stroke-width:0.70227271;stroke-linecap:round;stroke-linejoin:miter;stroke-miterlimit:4;stroke-dasharray:none;stroke-opacity:1"
       d="m 121.86119,27.831175 c -0.41757,8.67305 9.76568,4.5939 18.43236,2.79342"
       id="path817-1-6"
       inkscape:connector-curvature="0" />
    <path
       style="fill:none;stroke:#707070;stroke-width:0.70227271;stroke-linecap:round;stroke-linejoin:miter;stroke-miterlimit:4;stroke-dasharray:none;stroke-opacity:1"
       d="m 125.57172,53.309935 c -0.66017,-12.75885 18.60001,-6.86891 22.12203,-5.22982"
       id="path827-4-7"
       inkscape:connector-curvature="0"
       sodipodi:nodetypes="cc" />
    <path
       style="fill:none;stroke:#707070;stroke-width:0.70227271;stroke-linecap:round;stroke-linejoin:miter;stroke-miterlimit:4;stroke-dasharray:none;stroke-opacity:1"
       d="m 160.73155,27.803375 c -0.41757,8.67306 9.7657,4.59391 18.43238,2.79343"
       id="path817-1-8-6"
       inkscape:connector-curvature="0" />
    <path
       style="fill:none;stroke:#707070;stroke-width:0.70227271;stroke-linecap:round;stroke-linejoin:miter;stroke-miterlimit:4;stroke-dasharray:none;stroke-opacity:1"
       d="m 140.23536,72.047755 c -0.66016,-12.75886 18.60001,-6.86892 22.12204,-5.22983"
       id="path827-4-2"
       inkscape:connector-curvature="0"
       sodipodi:nodetypes="cc" />
    <path
       style="fill:none;stroke:#707070;stroke-width:0.70227271;stroke-linecap:round;stroke-linejoin:miter;stroke-miterlimit:4;stroke-dasharray:none;stroke-opacity:1"
       d="m 179.10573,72.019955 c -0.66016,-12.75885 18.60002,-6.86891 22.12205,-5.22982"
       id="path827-4-45-4"
       inkscape:connector-curvature="0"
       sodipodi:nodetypes="cc" />
    <path
       style="fill:none;stroke:#707070;stroke-width:0.70227271;stroke-linecap:round;stroke-linejoin:miter;stroke-miterlimit:4;stroke-dasharray:none;stroke-opacity:1"
       d="m 72.175818,83.237755 c 14.768921,-6.34439 3.080871,8.66792 -2.442404,14.42421"
       id="path819-6-2"
       inkscape:connector-curvature="0" />
    <path
       style="fill:none;stroke:#707070;stroke-width:0.70227271;stroke-linecap:round;stroke-linejoin:miter;stroke-miterlimit:4;stroke-dasharray:none;stroke-opacity:1"
       d="m 85.120332,89.874805 c -0.660166,-12.75885 18.600028,-6.8689 22.122058,-5.22983"
       id="path827-4-5"
       inkscape:connector-curvature="0"
       sodipodi:nodetypes="cc" />
    <path
       style="fill:none;stroke:#707070;stroke-width:0.70227271;stroke-linecap:round;stroke-linejoin:miter;stroke-miterlimit:4;stroke-dasharray:none;stroke-opacity:1"
       d="m 109.78154,81.058215 c 15.10866,-5.48628 2.57829,8.83047 -3.26625,14.26026"
       id="path819-6-12-1"
       inkscape:connector-curvature="0" />
    <path
       style="fill:none;stroke:#707070;stroke-width:0.70227271;stroke-linecap:round;stroke-linejoin:miter;stroke-miterlimit:4;stroke-dasharray:none;stroke-opacity:1"
       d="m 123.99072,89.847005 c -0.66015,-12.75885 18.60002,-6.86889 22.12206,-5.22981"
       id="path827-4-45-85"
       inkscape:connector-curvature="0"
       sodipodi:nodetypes="cc" />
    <path
       style="fill:url(#meshgradient1670);fill-opacity:1;stroke:#707070;stroke-width:0.88029164;stroke-linecap:butt;stroke-linejoin:miter;stroke-miterlimit:4;stroke-dasharray:none;stroke-opacity:1"
       d="m 108.44243,73.786417 c 1.00596,-3.5233 2.56559,-1.67051 4.9885,-2.71272 1.26186,-0.54279 3.23585,-2.36379 4.49978,-2.90746 0.9307,-0.40034 2.58342,1.14835 3.4306,1.19706 1.25236,0.072 11.09116,0.44699 11.13762,0.47366 1.45402,0.83458 2.9479,0.82802 3.5394,2.20315 1.05707,2.45741 0.93586,4.36606 -0.13946,5.32444 -0.79143,0.70538 -5.49325,0.33812 -6.54436,0.79024 -6.43032,2.76598 -7.24069,0.39057 -12.02913,-2.35793 -2.83726,-1.62857 -6.83643,1.07218 -8.88295,-2.01044 z"
       id="path829-5-9-22"
       inkscape:connector-curvature="0"
       sodipodi:nodetypes="cccsccsssc" />
    <path
       style="fill:#6a73bc;fill-opacity:1;stroke:#222241;stroke-width:0.23291048px;stroke-linecap:butt;stroke-linejoin:miter;stroke-opacity:1"
       d="m 127.18101,71.843347 c -1.09488,-0.44549 -2.48263,-0.3993 -3.65161,-0.25155 -0.70278,0.0888 -1.54576,0.18531 -2.17661,0.54142 -0.50218,0.28348 -1.96321,1.15488 -1.67288,1.92434 0.0505,0.13376 0.16587,0.27292 0.24842,0.38921 0.24871,0.35037 0.72321,0.58985 1.12563,0.71044 0.97383,0.29184 2.17254,0.44407 3.18651,0.37066 0.73174,-0.053 1.45341,-0.21849 2.18304,-0.2911 0.71057,-0.0707 2.39659,-0.30816 2.78537,-0.9855 0.32753,-0.57063 -0.55588,-1.63803 -1.03564,-1.91341 -0.15192,-0.0872 -0.37185,-0.19619 -0.46199,-0.29735 -0.0898,-0.10078 -0.38156,-0.11178 -0.53024,-0.19712 z"
       id="path837-0-0-4"
       inkscape:connector-curvature="0" />
    <path
       style="fill:url(#radialGradient936-2);fill-opacity:1;stroke:#707070;stroke-width:0.88029164;stroke-linecap:butt;stroke-linejoin:miter;stroke-miterlimit:4;stroke-dasharray:none;stroke-opacity:1"
       d="m 70.846709,39.932855 c 1.005954,-3.5233 2.565579,-1.670511 4.988496,-2.71272 1.261854,-0.54278 3.235851,-2.36379 4.49977,-2.90746 0.930707,-0.400341 2.583423,1.14836 3.430608,1.19707 1.252359,0.072 11.091151,0.44698 11.137605,0.47365 1.454027,0.83459 2.947902,0.828029 3.539404,2.20316 1.05705,2.45741 0.935847,4.36604 -0.139456,5.32443 -0.791425,0.705379 -5.493253,0.338109 -6.544366,0.79024 -6.430314,2.76598 -7.240684,0.39057 -12.029115,-2.35794 -2.837261,-1.628561 -6.836436,1.0722 -8.882946,-2.01043 z"
       id="path829-5-7"
       inkscape:connector-curvature="0"
       sodipodi:nodetypes="cccsccsssc" />
    <path
       style="fill:#6a73bc;fill-opacity:1;stroke:#222241;stroke-width:0.23291048px;stroke-linecap:butt;stroke-linejoin:miter;stroke-opacity:1"
       d="m 89.585268,37.989784 c -1.094877,-0.445489 -2.48263,-0.399289 -3.651605,-0.251539 -0.702783,0.0888 -1.545759,0.185299 -2.176609,0.54142 -0.50218,0.283479 -1.963203,1.15487 -1.672872,1.92433 0.05047,0.13376 0.165866,0.27293 0.248414,0.38922 0.248707,0.35037 0.723221,0.589839 1.125632,0.71044 0.973819,0.29184 2.172535,0.444069 3.186499,0.37066 0.731752,-0.053 1.453417,-0.218501 2.183045,-0.2911 0.710566,-0.0707 2.396589,-0.30817 2.785376,-0.985511 0.327527,-0.57062 -0.555882,-1.638019 -1.035644,-1.9134 -0.151919,-0.0872 -0.371845,-0.196199 -0.461993,-0.297359 -0.08982,-0.10077 -0.381558,-0.111771 -0.530245,-0.19712 z"
       id="path837-0-3"
       inkscape:connector-curvature="0" />
    <path
       style="fill:url(#radialGradient936-5);fill-opacity:1;stroke:#707070;stroke-width:0.88029164;stroke-linecap:butt;stroke-linejoin:miter;stroke-miterlimit:4;stroke-dasharray:none;stroke-opacity:1"
       d="m 109.809,39.414432 c 1.00595,-3.5233 2.56558,-1.67051 4.9885,-2.71272 1.26185,-0.54278 3.23585,-2.36379 4.49977,-2.90746 0.9307,-0.40034 2.58342,1.14836 3.4306,1.19707 1.25236,0.072 11.09116,0.44698 11.13761,0.47365 1.45403,0.83459 2.9479,0.82803 3.5394,2.20316 1.05705,2.45741 0.93585,4.36604 -0.13945,5.32443 -0.79143,0.705379 -5.49326,0.338109 -6.54437,0.79024 -6.43031,2.76598 -7.24068,0.39057 -12.02911,-2.35794 -2.83726,-1.62856 -6.83644,1.0722 -8.88295,-2.01043 z"
       id="path829-5-9"
       inkscape:connector-curvature="0"
       sodipodi:nodetypes="cccsccsssc" />
    <path
       style="fill:#6a73bc;fill-opacity:1;stroke:#222241;stroke-width:0.23291048px;stroke-linecap:butt;stroke-linejoin:miter;stroke-opacity:1"
       d="m 128.54756,37.471362 c -1.09488,-0.44549 -2.48263,-0.39929 -3.65161,-0.25154 -0.70278,0.0888 -1.54575,0.1853 -2.1766,0.54142 -0.50218,0.28348 -1.96321,1.15487 -1.67288,1.92433 0.0505,0.13376 0.16587,0.27293 0.24842,0.38922 0.2487,0.35037 0.72322,0.58984 1.12563,0.71044 0.97382,0.29184 2.17253,0.44407 3.1865,0.37066 0.73175,-0.053 1.45342,-0.2185 2.18304,-0.2911 0.71057,-0.0707 2.39659,-0.30817 2.78538,-0.98551 0.32753,-0.57062 -0.55588,-1.63802 -1.03564,-1.9134 -0.15192,-0.0872 -0.37185,-0.1962 -0.462,-0.29736 -0.0898,-0.10077 -0.38156,-0.11177 -0.53024,-0.19712 z"
       id="path837-0-31"
       inkscape:connector-curvature="0" />
    <path
       style="fill:url(#radialGradient936-3);fill-opacity:1;stroke:#707070;stroke-width:0.88029164;stroke-linecap:butt;stroke-linejoin:miter;stroke-miterlimit:4;stroke-dasharray:none;stroke-opacity:1"
       d="m 142.17009,39.665585 c 1.00595,-3.5233 2.56558,-1.67051 4.9885,-2.71272 1.26185,-0.54278 3.23585,-2.36379 4.49977,-2.90746 0.9307,-0.40034 2.58342,1.14836 3.4306,1.19707 1.25236,0.072 11.09115,0.44698 11.13761,0.47365 1.45403,0.83459 2.9479,0.82803 3.5394,2.20316 1.05705,2.45741 0.93585,4.36604 -0.13945,5.32443 -0.79143,0.70538 -5.49326,0.33811 -6.54437,0.790241 -6.43031,2.76598 -7.24068,0.39057 -12.02911,-2.357941 -2.83727,-1.62856 -6.83644,1.0722 -8.88295,-2.01043 z"
       id="path829-5-4"
       inkscape:connector-curvature="0"
       sodipodi:nodetypes="cccsccsssc" />
    <path
       style="fill:#6a73bc;fill-opacity:1;stroke:#222241;stroke-width:0.23291048px;stroke-linecap:butt;stroke-linejoin:miter;stroke-opacity:1"
       d="m 160.90865,37.722515 c -1.09488,-0.44549 -2.48263,-0.39929 -3.65161,-0.25154 -0.70278,0.0888 -1.54576,0.1853 -2.17661,0.54142 -0.50218,0.28348 -1.9632,1.15487 -1.67287,1.92433 0.0505,0.13376 0.16587,0.27293 0.24842,0.38922 0.2487,0.35037 0.72322,0.58984 1.12563,0.71044 0.97382,0.29184 2.17253,0.44407 3.1865,0.37066 0.73175,-0.053 1.45341,-0.2185 2.18304,-0.2911 0.71057,-0.0707 2.39659,-0.30817 2.78538,-0.98551 0.32753,-0.57062 -0.55588,-1.63802 -1.03565,-1.9134 -0.15191,-0.0872 -0.37184,-0.1962 -0.46199,-0.29736 -0.0898,-0.10077 -0.38156,-0.11177 -0.53024,-0.19712 z"
       id="path837-0-0"
       inkscape:connector-curvature="0" />
    <path
       style="fill:url(#radialGradient936-9);fill-opacity:1;stroke:#707070;stroke-width:0.88029164;stroke-linecap:butt;stroke-linejoin:miter;stroke-miterlimit:4;stroke-dasharray:none;stroke-opacity:1"
       d="m 51.859829,55.691013 c 1.005953,-3.5233 2.565578,-1.670511 4.988495,-2.71272 1.261855,-0.54278 3.235851,-2.36379 4.49977,-2.90746 0.930708,-0.40034 2.583424,1.14836 3.430609,1.19707 1.252359,0.072 11.091151,0.44698 11.137605,0.47365 1.454027,0.83459 2.947902,0.828029 3.539404,2.20316 1.05705,2.45741 0.935847,4.36604 -0.139456,5.32443 -0.791425,0.705379 -5.493253,0.338109 -6.544366,0.79024 -6.430314,2.76598 -7.240684,0.39057 -12.029116,-2.35794 -2.83726,-1.628561 -6.836436,1.0722 -8.882945,-2.01043 z"
       id="path829-5-3"
       inkscape:connector-curvature="0"
       sodipodi:nodetypes="cccsccsssc" />
    <path
       style="fill:#6a73bc;fill-opacity:1;stroke:#222241;stroke-width:0.23291048px;stroke-linecap:butt;stroke-linejoin:miter;stroke-opacity:1"
       d="m 70.598388,53.747942 c -1.094877,-0.445489 -2.48263,-0.399289 -3.651605,-0.251539 -0.702783,0.0888 -1.545759,0.185299 -2.176609,0.54142 -0.50218,0.283479 -1.963203,1.15487 -1.672872,1.92433 0.05047,0.13376 0.165866,0.27293 0.248414,0.38922 0.248707,0.35037 0.723221,0.589839 1.125632,0.71044 0.973819,0.29184 2.172535,0.444069 3.186499,0.37066 0.731752,-0.053 1.453417,-0.218501 2.183045,-0.2911 0.710566,-0.0707 2.396589,-0.30817 2.785376,-0.985511 0.327527,-0.57062 -0.555882,-1.638019 -1.035644,-1.9134 -0.151919,-0.0872 -0.371845,-0.196199 -0.461993,-0.297359 -0.08982,-0.10077 -0.381558,-0.111771 -0.530245,-0.19712 z"
       id="path837-0-2"
       inkscape:connector-curvature="0" />
    <path
       style="fill:url(#radialGradient936-8);fill-opacity:1;stroke:#707070;stroke-width:0.88029164;stroke-linecap:butt;stroke-linejoin:miter;stroke-miterlimit:4;stroke-dasharray:none;stroke-opacity:1"
       d="m 89.234586,55.707132 c 1.005953,-3.5233 2.565578,-1.67051 4.988495,-2.71272 1.261855,-0.54278 3.235851,-2.36379 4.49977,-2.90746 0.930708,-0.40034 2.583429,1.14836 3.430619,1.19707 1.25237,0.072 11.09117,0.44698 11.13763,0.47365 1.45402,0.83459 2.9479,0.82803 3.5394,2.20316 1.05705,2.45741 0.93585,4.36604 -0.13946,5.32443 -0.79142,0.705379 -5.49325,0.338109 -6.54436,0.79024 -6.43033,2.76598 -7.2407,0.39057 -12.029149,-2.35794 -2.83726,-1.62856 -6.836436,1.0722 -8.882945,-2.01043 z"
       id="path829-5-1"
       inkscape:connector-curvature="0"
       sodipodi:nodetypes="cccsccsssc" />
    <path
       style="fill:#6a73bc;fill-opacity:1;stroke:#222241;stroke-width:0.23291048px;stroke-linecap:butt;stroke-linejoin:miter;stroke-opacity:1"
       d="m 107.97318,53.764062 c -1.09488,-0.44549 -2.48263,-0.39929 -3.65162,-0.25154 -0.70279,0.0888 -1.54576,0.1853 -2.17662,0.54142 -0.50218,0.28348 -1.96321,1.15487 -1.67288,1.92433 0.0505,0.13376 0.16587,0.27293 0.24842,0.38922 0.2487,0.35037 0.72322,0.58984 1.12563,0.71044 0.97383,0.29184 2.17255,0.44407 3.18652,0.37066 0.73176,-0.053 1.45342,-0.2185 2.18305,-0.2911 0.71057,-0.0707 2.39659,-0.30817 2.78538,-0.98551 0.32752,-0.57062 -0.55589,-1.63802 -1.03565,-1.9134 -0.15192,-0.0872 -0.37184,-0.1962 -0.46199,-0.29736 -0.0898,-0.10077 -0.38156,-0.11177 -0.53025,-0.19712 z"
       id="path837-0-03"
       inkscape:connector-curvature="0" />
    <path
       style="fill:url(#radialGradient936-38);fill-opacity:1;stroke:#707070;stroke-width:0.88029164;stroke-linecap:butt;stroke-linejoin:miter;stroke-miterlimit:4;stroke-dasharray:none;stroke-opacity:1"
       d="m 127.22447,57.305374 c 1.00596,-3.5233 2.56558,-1.67051 4.9885,-2.71272 1.26185,-0.54278 3.23585,-2.36379 4.49977,-2.90746 0.93071,-0.40034 2.58342,1.14836 3.43061,1.19707 1.25236,0.072 11.09115,0.44698 11.1376,0.47365 1.45403,0.83459 2.9479,0.82803 3.53941,2.20316 1.05705,2.45741 0.93584,4.36604 -0.13946,5.32443 -0.79143,0.705379 -5.49325,0.338109 -6.54437,0.79024 -6.43031,2.76598 -7.24068,0.39057 -12.02911,-2.35794 -2.83726,-1.62856 -6.83644,1.0722 -8.88295,-2.01043 z"
       id="path829-5-48"
       inkscape:connector-curvature="0"
       sodipodi:nodetypes="cccsccsssc" />
    <path
       style="fill:#6a73bc;fill-opacity:1;stroke:#222241;stroke-width:0.23291048px;stroke-linecap:butt;stroke-linejoin:miter;stroke-opacity:1"
       d="m 145.96303,55.362304 c -1.09488,-0.44549 -2.48263,-0.39929 -3.6516,-0.25154 -0.70279,0.0888 -1.54576,0.1853 -2.17661,0.54142 -0.50218,0.28348 -1.96321,1.15487 -1.67287,1.92433 0.0505,0.13376 0.16586,0.27293 0.24841,0.38922 0.24871,0.35037 0.72322,0.58984 1.12563,0.71044 0.97382,0.29184 2.17254,0.44407 3.1865,0.37066 0.73175,-0.053 1.45342,-0.2185 2.18305,-0.2911 0.71056,-0.0707 2.39658,-0.30817 2.78537,-0.98551 0.32753,-0.57062 -0.55588,-1.63802 -1.03564,-1.9134 -0.15192,-0.0872 -0.37185,-0.1962 -0.462,-0.29736 -0.0898,-0.10077 -0.38155,-0.11177 -0.53024,-0.19712 z"
       id="path837-0-4"
       inkscape:connector-curvature="0" />
    <path
       style="fill:url(#radialGradient936-90);fill-opacity:1;stroke:#707070;stroke-width:0.88029164;stroke-linecap:butt;stroke-linejoin:miter;stroke-miterlimit:4;stroke-dasharray:none;stroke-opacity:1"
       d="m 158.24385,53.83087 c 1.00595,-3.5233 2.56557,-1.67051 4.98849,-2.71272 1.26185,-0.54278 3.23585,-2.36379 4.49977,-2.90746 0.93071,-0.40034 2.58342,1.14836 3.43061,1.19707 1.25236,0.072 11.09115,0.44698 11.1376,0.47365 1.45403,0.83459 2.94791,0.82803 3.53941,2.20316 1.05705,2.45741 0.93584,4.36604 -0.13946,5.32443 -0.79142,0.705379 -5.49325,0.338109 -6.54436,0.79024 -6.43032,2.76598 -7.24069,0.39057 -12.02912,-2.35794 -2.83726,-1.62856 -6.83644,1.0722 -8.88294,-2.01043 z"
       id="path829-5-0"
       inkscape:connector-curvature="0"
       sodipodi:nodetypes="cccsccsssc" />
    <path
       style="fill:#6a73bc;fill-opacity:1;stroke:#222241;stroke-width:0.23291048px;stroke-linecap:butt;stroke-linejoin:miter;stroke-opacity:1"
       d="m 176.9824,51.8878 c -1.09487,-0.44549 -2.48263,-0.39929 -3.6516,-0.25154 -0.70278,0.0888 -1.54576,0.1853 -2.17661,0.54142 -0.50218,0.28348 -1.9632,1.15487 -1.67287,1.92433 0.0505,0.13376 0.16586,0.27293 0.24841,0.38922 0.24871,0.35037 0.72322,0.58984 1.12563,0.71044 0.97382,0.29184 2.17254,0.44407 3.1865,0.37066 0.73175,-0.053 1.45342,-0.2185 2.18305,-0.2911 0.71056,-0.0707 2.39659,-0.30817 2.78537,-0.98551 0.32753,-0.57062 -0.55588,-1.63802 -1.03564,-1.9134 -0.15192,-0.0872 -0.37185,-0.1962 -0.46199,-0.29736 -0.0898,-0.10077 -0.38156,-0.11177 -0.53025,-0.19712 z"
       id="path837-0-1"
       inkscape:connector-curvature="0" />
    <path
       style="fill:url(#radialGradient936-7);fill-opacity:1;stroke:#707070;stroke-width:0.88029164;stroke-linecap:butt;stroke-linejoin:miter;stroke-miterlimit:4;stroke-dasharray:none;stroke-opacity:1"
       d="m 68.975823,73.902945 c 1.005953,-3.5233 2.565578,-1.67051 4.988495,-2.71272 1.261855,-0.54278 3.235851,-2.36379 4.49977,-2.90746 0.930708,-0.40034 2.583424,1.14836 3.430609,1.19707 1.252359,0.072 11.091151,0.44698 11.137605,0.47365 1.454027,0.83459 2.947902,0.82803 3.539404,2.20316 1.05705,2.45741 0.935847,4.36604 -0.139456,5.32443 -0.791425,0.705379 -5.493253,0.338109 -6.544366,0.79024 -6.430314,2.76598 -7.240684,0.39057 -12.029116,-2.35794 -2.83726,-1.62856 -6.836436,1.0722 -8.882945,-2.01043 z"
       id="path829-5-08"
       inkscape:connector-curvature="0"
       sodipodi:nodetypes="cccsccsssc" />
    <path
       style="fill:#6a73bc;fill-opacity:1;stroke:#222241;stroke-width:0.23291048px;stroke-linecap:butt;stroke-linejoin:miter;stroke-opacity:1"
       d="m 87.714382,71.959875 c -1.094877,-0.44549 -2.48263,-0.39929 -3.651605,-0.25154 -0.702783,0.0888 -1.545759,0.1853 -2.176609,0.54142 -0.50218,0.28348 -1.963203,1.15487 -1.672872,1.92433 0.05047,0.13376 0.165866,0.27293 0.248414,0.38922 0.248707,0.35037 0.723221,0.58984 1.125632,0.71044 0.973819,0.29184 2.172535,0.44407 3.186499,0.37066 0.731752,-0.053 1.453417,-0.2185 2.183045,-0.2911 0.710566,-0.0707 2.396589,-0.30817 2.785376,-0.98551 0.327527,-0.57062 -0.555882,-1.63802 -1.035644,-1.9134 -0.151919,-0.0872 -0.371845,-0.1962 -0.461993,-0.29736 -0.08982,-0.10077 -0.381558,-0.11177 -0.530245,-0.19712 z"
       id="path837-0-49"
       inkscape:connector-curvature="0" />
  </g>
</svg>
