<?xml version="1.0" encoding="UTF-8" standalone="no"?>
<!-- Created with Inkscape (http://www.inkscape.org/) -->

<svg
   xmlns:dc="http://purl.org/dc/elements/1.1/"
   xmlns:cc="http://creativecommons.org/ns#"
   xmlns:rdf="http://www.w3.org/1999/02/22-rdf-syntax-ns#"
   xmlns:svg="http://www.w3.org/2000/svg"
   xmlns="http://www.w3.org/2000/svg"
   xmlns:xlink="http://www.w3.org/1999/xlink"
   xmlns:sodipodi="http://sodipodi.sourceforge.net/DTD/sodipodi-0.dtd"
   xmlns:inkscape="http://www.inkscape.org/namespaces/inkscape"
   width="210mm"
   height="297mm"
   viewBox="0 0 210 297"
   version="1.1"
   id="svg8"
   inkscape:version="0.92.4 (5da689c313, 2019-01-14)"
   sodipodi:docname="clonal expansion2.svg">
  <defs
     id="defs2">
    <meshgradient
       inkscape:collect="always"
       id="meshgradient1670"
       gradientUnits="userSpaceOnUse"
       x="126.52521"
       y="232.19598"
       gradientTransform="matrix(0.87884052,0.05052419,-0.05052419,0.87884052,7.5537072,-147.56613)">
      <meshrow
         id="meshrow1672">
        <meshpatch
           id="meshpatch1674">
          <stop
             path="c 10.7407,0  21.4815,0  32.2222,0"
             style="stop-color:#ffffff;stop-opacity:1"
             id="stop1676" />
          <stop
             path="c 0,4.1328  0,8.2656  0,12.3984"
             style="stop-color:#505281;stop-opacity:1"
             id="stop1678" />
          <stop
             path="c -10.7407,0  -21.4815,0  -32.2222,0"
             style="stop-color:#ffffff;stop-opacity:1"
             id="stop1680" />
          <stop
             path="c 0,-4.1328  0,-8.2656  0,-12.3984"
             style="stop-color:#505281;stop-opacity:1"
             id="stop1682" />
        </meshpatch>
      </meshrow>
    </meshgradient>
    <linearGradient
       inkscape:collect="always"
       id="linearGradient934">
      <stop
         style="stop-color:#b6b8d0;stop-opacity:1;"
         offset="0"
         id="stop930" />
      <stop
         style="stop-color:#b6b8d0;stop-opacity:0;"
         offset="1"
         id="stop932" />
    </linearGradient>
    <radialGradient
       inkscape:collect="always"
       xlink:href="#linearGradient934"
       id="radialGradient936"
       cx="45.232803"
       cy="39.827724"
       fx="45.232803"
       fy="39.827724"
       r="14.623959"
       gradientTransform="matrix(1,0,0,0.41584909,-1.1852263,18.692665)"
       gradientUnits="userSpaceOnUse" />
    <meshgradient
       y="168.51766"
       x="66.977005"
       gradientUnits="userSpaceOnUse"
       id="meshgradient2153"
       inkscape:collect="always"
       gradientTransform="translate(0.37797619,-106.58929)">
      <meshrow
         id="meshrow2155">
        <meshpatch
           id="meshpatch2157">
          <stop
             path="c 9.23854,0.489058  18.4772,0.978121  27.7157,1.46718"
             style="stop-color:#ffffff;stop-opacity:1"
             id="stop2159" />
          <stop
             path="c -0.204364,3.27328  -0.408728,6.54656  -0.613092,9.81983"
             style="stop-color:#505281;stop-opacity:1"
             id="stop2161" />
          <stop
             path="c -9.23854,-0.489058  -18.4772,-0.978121  -27.7157,-1.46718"
             style="stop-color:#ffffff;stop-opacity:1"
             id="stop2163" />
          <stop
             path="c 0.204364,-3.27328  0.408728,-6.54656  0.613092,-9.81983"
             style="stop-color:#505281;stop-opacity:1"
             id="stop2165" />
        </meshpatch>
      </meshrow>
    </meshgradient>
    <meshgradient
       y="149.24087"
       x="159.58117"
       gradientUnits="userSpaceOnUse"
       id="meshgradient2428"
       inkscape:collect="always"
       gradientTransform="translate(0.37797619,-106.58929)">
      <meshrow
         id="meshrow2430">
        <meshpatch
           id="meshpatch2432">
          <stop
             path="c 9.23854,0.489058  18.4772,0.978121  27.7157,1.46718"
             style="stop-color:#ffffff;stop-opacity:1"
             id="stop2434" />
          <stop
             path="c -0.204364,3.27328  -0.408728,6.54656  -0.613092,9.81983"
             style="stop-color:#505281;stop-opacity:1"
             id="stop2436" />
          <stop
             path="c -9.23854,-0.489058  -18.4772,-0.978121  -27.7157,-1.46718"
             style="stop-color:#ffffff;stop-opacity:1"
             id="stop2438" />
          <stop
             path="c 0.204364,-3.27328  0.408728,-6.54656  0.613092,-9.81983"
             style="stop-color:#505281;stop-opacity:1"
             id="stop2440" />
        </meshpatch>
      </meshrow>
    </meshgradient>
    <meshgradient
       y="151.43313"
       x="51.857958"
       gradientUnits="userSpaceOnUse"
       id="meshgradient2454"
       inkscape:collect="always"
       gradientTransform="translate(0.37797619,-106.58929)">
      <meshrow
         id="meshrow2456">
        <meshpatch
           id="meshpatch2458">
          <stop
             path="c 9.23854,0.489058  18.4772,0.978121  27.7157,1.46718"
             style="stop-color:#ffffff;stop-opacity:1"
             id="stop2460" />
          <stop
             path="c -0.204364,3.27328  -0.408728,6.54656  -0.613092,9.81983"
             style="stop-color:#505281;stop-opacity:1"
             id="stop2462" />
          <stop
             path="c -9.23854,-0.489058  -18.4772,-0.978121  -27.7157,-1.46718"
             style="stop-color:#ffffff;stop-opacity:1"
             id="stop2464" />
          <stop
             path="c 0.204364,-3.27328  0.408728,-6.54656  0.613092,-9.81983"
             style="stop-color:#505281;stop-opacity:1"
             id="stop2466" />
        </meshpatch>
      </meshrow>
    </meshgradient>
    <meshgradient
       y="136.69205"
       x="68.564508"
       gradientUnits="userSpaceOnUse"
       id="meshgradient2480"
       inkscape:collect="always"
       gradientTransform="translate(0.37797619,-106.58929)">
      <meshrow
         id="meshrow2482">
        <meshpatch
           id="meshpatch2484">
          <stop
             path="c 9.23854,0.489058  18.4772,0.978121  27.7157,1.46718"
             style="stop-color:#ffffff;stop-opacity:1"
             id="stop2486" />
          <stop
             path="c -0.204364,3.27328  -0.408728,6.54656  -0.613092,9.81983"
             style="stop-color:#505281;stop-opacity:1"
             id="stop2488" />
          <stop
             path="c -9.23854,-0.489058  -18.4772,-0.978121  -27.7157,-1.46718"
             style="stop-color:#ffffff;stop-opacity:1"
             id="stop2490" />
          <stop
             path="c 0.204364,-3.27328  0.408728,-6.54656  0.613092,-9.81983"
             style="stop-color:#505281;stop-opacity:1"
             id="stop2492" />
        </meshpatch>
      </meshrow>
    </meshgradient>
    <meshgradient
       y="151.50873"
       x="88.44605"
       gradientUnits="userSpaceOnUse"
       id="meshgradient2506"
       inkscape:collect="always"
       gradientTransform="translate(0.37797619,-106.58929)">
      <meshrow
         id="meshrow2508">
        <meshpatch
           id="meshpatch2510">
          <stop
             path="c 9.23853,0.489058  18.4772,0.978121  27.7157,1.46718"
             style="stop-color:#ffffff;stop-opacity:1"
             id="stop2512" />
          <stop
             path="c -0.204364,3.27328  -0.408728,6.54656  -0.613092,9.81983"
             style="stop-color:#505281;stop-opacity:1"
             id="stop2514" />
          <stop
             path="c -9.23853,-0.489058  -18.4772,-0.978121  -27.7157,-1.46718"
             style="stop-color:#ffffff;stop-opacity:1"
             id="stop2516" />
          <stop
             path="c 0.204364,-3.27328  0.408728,-6.54656  0.613092,-9.81983"
             style="stop-color:#505281;stop-opacity:1"
             id="stop2518" />
        </meshpatch>
      </meshrow>
    </meshgradient>
    <meshgradient
       y="153.02064"
       x="127.07522"
       gradientUnits="userSpaceOnUse"
       id="meshgradient2532"
       inkscape:collect="always"
       gradientTransform="translate(0.37797619,-106.58929)">
      <meshrow
         id="meshrow2534">
        <meshpatch
           id="meshpatch2536">
          <stop
             path="c 9.23854,0.489058  18.4772,0.978121  27.7157,1.46718"
             style="stop-color:#ffffff;stop-opacity:1"
             id="stop2538" />
          <stop
             path="c -0.204364,3.27328  -0.408728,6.54656  -0.613092,9.81983"
             style="stop-color:#505281;stop-opacity:1"
             id="stop2540" />
          <stop
             path="c -9.23854,-0.489058  -18.4772,-0.978121  -27.7157,-1.46718"
             style="stop-color:#ffffff;stop-opacity:1"
             id="stop2542" />
          <stop
             path="c 0.204364,-3.27328  0.408728,-6.54656  0.613092,-9.81983"
             style="stop-color:#505281;stop-opacity:1"
             id="stop2544" />
        </meshpatch>
      </meshrow>
    </meshgradient>
    <meshgradient
       y="135.70934"
       x="108.02525"
       gradientUnits="userSpaceOnUse"
       id="meshgradient2558"
       inkscape:collect="always"
       gradientTransform="translate(0.37797619,-106.58929)">
      <meshrow
         id="meshrow2560">
        <meshpatch
           id="meshpatch2562">
          <stop
             path="c 9.23854,0.489058  18.4772,0.978121  27.7157,1.46718"
             style="stop-color:#ffffff;stop-opacity:1"
             id="stop2564" />
          <stop
             path="c -0.204364,3.27328  -0.408728,6.54656  -0.613092,9.81983"
             style="stop-color:#505281;stop-opacity:1"
             id="stop2566" />
          <stop
             path="c -9.23854,-0.489058  -18.4772,-0.978121  -27.7157,-1.46718"
             style="stop-color:#ffffff;stop-opacity:1"
             id="stop2568" />
          <stop
             path="c 0.204364,-3.27328  0.408728,-6.54656  0.613092,-9.81983"
             style="stop-color:#505281;stop-opacity:1"
             id="stop2570" />
        </meshpatch>
      </meshrow>
    </meshgradient>
    <meshgradient
       y="136.99446"
       x="142.57226"
       gradientUnits="userSpaceOnUse"
       id="meshgradient2584"
       inkscape:collect="always"
       gradientTransform="translate(0.37797619,-106.58929)">
      <meshrow
         id="meshrow2586">
        <meshpatch
           id="meshpatch2588">
          <stop
             path="c 9.23854,0.489058  18.4772,0.978121  27.7157,1.46718"
             style="stop-color:#ffffff;stop-opacity:1"
             id="stop2590" />
          <stop
             path="c -0.204364,3.27328  -0.408728,6.54656  -0.613092,9.81983"
             style="stop-color:#505281;stop-opacity:1"
             id="stop2592" />
          <stop
             path="c -9.23854,-0.489058  -18.4772,-0.978121  -27.7157,-1.46718"
             style="stop-color:#ffffff;stop-opacity:1"
             id="stop2594" />
          <stop
             path="c 0.204364,-3.27328  0.408728,-6.54656  0.613092,-9.81983"
             style="stop-color:#505281;stop-opacity:1"
             id="stop2596" />
        </meshpatch>
      </meshrow>
    </meshgradient>
  </defs>
  <sodipodi:namedview
     id="base"
     pagecolor="#ffffff"
     bordercolor="#666666"
     borderopacity="1.0"
     inkscape:pageopacity="0.0"
     inkscape:pageshadow="2"
     inkscape:zoom="0.7"
     inkscape:cx="188.54159"
     inkscape:cy="663.84767"
     inkscape:document-units="mm"
     inkscape:current-layer="layer1"
     showgrid="false"
     showguides="false"
     inkscape:window-width="1920"
     inkscape:window-height="986"
     inkscape:window-x="-11"
     inkscape:window-y="-11"
     inkscape:window-maximized="1" />
  <metadata
     id="metadata5">
    <rdf:RDF>
      <cc:Work
         rdf:about="">
        <dc:format>image/svg+xml</dc:format>
        <dc:type
           rdf:resource="http://purl.org/dc/dcmitype/StillImage" />
        <dc:title />
      </cc:Work>
    </rdf:RDF>
  </metadata>
  <g
     inkscape:label="Layer 1"
     inkscape:groupmode="layer"
     id="layer1">
    <path
       style="fill:url(#meshgradient1670);fill-opacity:1;stroke:#707070;stroke-width:0.88029164;stroke-linecap:butt;stroke-linejoin:miter;stroke-miterlimit:4;stroke-dasharray:none;stroke-opacity:1"
       d="m 106.65941,69.122535 c 1.00596,-3.5233 2.56559,-1.67051 4.9885,-2.71272 1.26186,-0.54279 3.23585,-2.36379 4.49978,-2.90746 0.9307,-0.40034 2.58342,1.14835 3.4306,1.19706 1.25236,0.072 11.09116,0.44699 11.13762,0.47366 1.45402,0.83458 2.9479,0.82802 3.5394,2.20315 1.05707,2.45741 0.93586,4.36606 -0.13946,5.32444 -0.79143,0.70538 -5.49325,0.33812 -6.54436,0.79024 -6.43032,2.76598 -7.24069,0.39057 -12.02913,-2.35793 -2.83726,-1.62857 -6.83643,1.07218 -8.88295,-2.01044 z"
       id="path829-5-9-22"
       inkscape:connector-curvature="0"
       sodipodi:nodetypes="cccsccsssc" />
    <path
       style="fill:#6a73bc;fill-opacity:1;stroke:#222241;stroke-width:0.23291048px;stroke-linecap:butt;stroke-linejoin:miter;stroke-opacity:1"
       d="m 125.39799,67.179465 c -1.09488,-0.44549 -2.48263,-0.3993 -3.65161,-0.25155 -0.70278,0.0888 -1.54576,0.18531 -2.17661,0.54142 -0.50218,0.28348 -1.96321,1.15488 -1.67288,1.92434 0.0505,0.13376 0.16587,0.27292 0.24842,0.38921 0.24871,0.35037 0.72321,0.58985 1.12563,0.71044 0.97383,0.29184 2.17254,0.44407 3.18651,0.37066 0.73174,-0.053 1.45341,-0.21849 2.18304,-0.2911 0.71057,-0.0707 2.39659,-0.30816 2.78537,-0.9855 0.32753,-0.57063 -0.55588,-1.63803 -1.03564,-1.91341 -0.15192,-0.0872 -0.37185,-0.19619 -0.46199,-0.29735 -0.0898,-0.10078 -0.38156,-0.11178 -0.53024,-0.19712 z"
       id="path837-0-0-4"
       inkscape:connector-curvature="0" />
    <path
       style="fill:none;stroke:#707070;stroke-width:0.70227277;stroke-linecap:round;stroke-linejoin:miter;stroke-miterlimit:4;stroke-dasharray:none;stroke-opacity:1"
       d="m 27.007578,22.038565 c 18.375584,10.85296 -0.0037,9.6858 -10.339989,8.19331"
       id="path815-3-7"
       inkscape:connector-curvature="0" />
    <path
       style="fill:none;stroke:#707070;stroke-width:0.70227277;stroke-linecap:round;stroke-linejoin:miter;stroke-miterlimit:4;stroke-dasharray:none;stroke-opacity:1"
       d="m 41.740329,23.766295 c -0.417561,8.67306 9.765683,4.5939 18.432351,2.79343"
       id="path817-1-5"
       inkscape:connector-curvature="0" />
    <path
       style="fill:none;stroke:#707070;stroke-width:0.70227277;stroke-linecap:round;stroke-linejoin:miter;stroke-miterlimit:4;stroke-dasharray:none;stroke-opacity:1"
       d="m 31.24168,40.456255 c 15.10865,-5.48628 2.578298,8.83047 -3.266259,14.26027"
       id="path819-6-0"
       inkscape:connector-curvature="0" />
    <path
       style="fill:none;stroke:#707070;stroke-width:0.70227277;stroke-linecap:round;stroke-linejoin:miter;stroke-miterlimit:4;stroke-dasharray:none;stroke-opacity:1"
       d="m 45.45085,49.245065 c -0.660162,-12.75886 18.600013,-6.86892 22.122038,-5.22983"
       id="path827-4-3"
       inkscape:connector-curvature="0"
       sodipodi:nodetypes="cc" />
    <path
       style="fill:url(#radialGradient936);fill-opacity:1;stroke:#707070;stroke-width:0.88029164;stroke-linecap:butt;stroke-linejoin:miter;stroke-miterlimit:4;stroke-dasharray:none;stroke-opacity:1"
       d="m 29.902576,35.301125 c 1.005953,-3.5233 2.565578,-1.67051 4.988495,-2.71272 1.261855,-0.54278 3.235851,-2.36379 4.49977,-2.90746 0.930708,-0.40034 2.583424,1.14836 3.430609,1.19707 1.252358,0.072 11.091151,0.44698 11.137604,0.47365 1.454028,0.83459 2.947903,0.82803 3.539405,2.20316 1.05705,2.45741 0.935845,4.36604 -0.139456,5.32443 -0.791427,0.70538 -5.493253,0.33811 -6.544366,0.79024 -6.430314,2.76598 -7.240685,0.39057 -12.029116,-2.35794 -2.83726,-1.62856 -6.836437,1.0722 -8.882945,-2.01043 z"
       id="path829-5-16"
       inkscape:connector-curvature="0"
       sodipodi:nodetypes="cccsccsssc" />
    <path
       style="fill:#6a73bc;fill-opacity:1;stroke:#222241;stroke-width:0.23291048px;stroke-linecap:butt;stroke-linejoin:miter;stroke-opacity:1"
       d="m 48.641135,33.358055 c -1.094877,-0.44549 -2.48263,-0.39929 -3.651604,-0.25154 -0.702784,0.0888 -1.54576,0.1853 -2.176611,0.54142 -0.502179,0.28348 -1.963202,1.15487 -1.672871,1.92433 0.05047,0.13376 0.165866,0.27293 0.248414,0.38922 0.248707,0.35037 0.723221,0.58984 1.125632,0.71044 0.973819,0.29184 2.172535,0.44407 3.186498,0.37066 0.731753,-0.053 1.453417,-0.2185 2.183045,-0.2911 0.710565,-0.0707 2.396591,-0.30817 2.785378,-0.98551 0.327525,-0.57062 -0.555882,-1.63802 -1.035646,-1.9134 -0.151918,-0.0872 -0.371845,-0.1962 -0.461991,-0.29736 -0.08982,-0.10077 -0.381558,-0.11177 -0.530246,-0.19712 z"
       id="path837-0-36"
       inkscape:connector-curvature="0" />
    <path
       style="fill:none;stroke:#707070;stroke-width:0.70227277;stroke-linecap:round;stroke-linejoin:miter;stroke-miterlimit:4;stroke-dasharray:none;stroke-opacity:1"
       d="m 65.877946,22.010775 c 18.375587,10.85296 -0.0037,9.68579 -10.339991,8.19331"
       id="path815-3-75-1"
       inkscape:connector-curvature="0" />
    <path
       style="fill:none;stroke:#707070;stroke-width:0.70227277;stroke-linecap:round;stroke-linejoin:miter;stroke-miterlimit:4;stroke-dasharray:none;stroke-opacity:1"
       d="m 80.610692,23.738505 c -0.417576,8.67305 9.765691,4.5939 18.432372,2.79343"
       id="path817-1-8-9"
       inkscape:connector-curvature="0" />
    <path
       style="fill:none;stroke:#707070;stroke-width:0.70227277;stroke-linecap:round;stroke-linejoin:miter;stroke-miterlimit:4;stroke-dasharray:none;stroke-opacity:1"
       d="m 84.321222,49.217265 c -0.660162,-12.75885 18.600028,-6.86891 22.122058,-5.22982"
       id="path827-4-45-2"
       inkscape:connector-curvature="0"
       sodipodi:nodetypes="cc" />
    <path
       style="fill:none;stroke:#707070;stroke-width:0.70227277;stroke-linecap:round;stroke-linejoin:miter;stroke-miterlimit:4;stroke-dasharray:none;stroke-opacity:1"
       d="m 50.196356,56.769065 c 15.108648,-5.48628 2.578296,8.83046 -3.26626,14.26026"
       id="path819-6-5-9"
       inkscape:connector-curvature="0" />
    <path
       style="fill:none;stroke:#707070;stroke-width:0.70227277;stroke-linecap:round;stroke-linejoin:miter;stroke-miterlimit:4;stroke-dasharray:none;stroke-opacity:1"
       d="m 64.405526,65.557875 c -0.660159,-12.75887 18.600013,-6.86892 22.122038,-5.22984"
       id="path827-4-9-5"
       inkscape:connector-curvature="0"
       sodipodi:nodetypes="cc" />
    <path
       style="fill:none;stroke:#707070;stroke-width:0.70227277;stroke-linecap:round;stroke-linejoin:miter;stroke-miterlimit:4;stroke-dasharray:none;stroke-opacity:1"
       d="m 103.27594,65.530065 c -0.66016,-12.75885 18.60003,-6.8689 22.12205,-5.22981"
       id="path827-4-45-3-6"
       inkscape:connector-curvature="0"
       sodipodi:nodetypes="cc" />
    <path
       style="fill:none;stroke:#707070;stroke-width:0.70227277;stroke-linecap:round;stroke-linejoin:miter;stroke-miterlimit:4;stroke-dasharray:none;stroke-opacity:1"
       d="m 105.94323,21.530705 c 18.37557,10.85296 -0.004,9.68579 -10.340011,8.19332"
       id="path815-3-2-8"
       inkscape:connector-curvature="0" />
    <path
       style="fill:none;stroke:#707070;stroke-width:0.70227277;stroke-linecap:round;stroke-linejoin:miter;stroke-miterlimit:4;stroke-dasharray:none;stroke-opacity:1"
       d="m 120.67597,23.258435 c -0.41757,8.67305 9.76567,4.5939 18.43235,2.79342"
       id="path817-1-6-1"
       inkscape:connector-curvature="0" />
    <path
       style="fill:none;stroke:#707070;stroke-width:0.70227277;stroke-linecap:round;stroke-linejoin:miter;stroke-miterlimit:4;stroke-dasharray:none;stroke-opacity:1"
       d="m 124.3865,48.737195 c -0.66017,-12.75885 18.6,-6.86891 22.12202,-5.22982"
       id="path827-4-7-0"
       inkscape:connector-curvature="0"
       sodipodi:nodetypes="cc" />
    <path
       style="fill:none;stroke:#707070;stroke-width:0.70227277;stroke-linecap:round;stroke-linejoin:miter;stroke-miterlimit:4;stroke-dasharray:none;stroke-opacity:1"
       d="m 159.54632,23.230635 c -0.41757,8.67306 9.7657,4.59391 18.43238,2.79343"
       id="path817-1-8-6-4"
       inkscape:connector-curvature="0" />
    <path
       style="fill:none;stroke:#707070;stroke-width:0.70227277;stroke-linecap:round;stroke-linejoin:miter;stroke-miterlimit:4;stroke-dasharray:none;stroke-opacity:1"
       d="m 139.05013,67.475015 c -0.66016,-12.75886 18.60001,-6.86892 22.12204,-5.22983"
       id="path827-4-2-2"
       inkscape:connector-curvature="0"
       sodipodi:nodetypes="cc" />
    <path
       style="fill:none;stroke:#707070;stroke-width:0.70227277;stroke-linecap:round;stroke-linejoin:miter;stroke-miterlimit:4;stroke-dasharray:none;stroke-opacity:1"
       d="m 177.9205,67.447215 c -0.66016,-12.75885 18.60002,-6.86891 22.12205,-5.22982"
       id="path827-4-45-4-9"
       inkscape:connector-curvature="0"
       sodipodi:nodetypes="cc" />
    <path
       style="fill:none;stroke:#707070;stroke-width:0.70227277;stroke-linecap:round;stroke-linejoin:miter;stroke-miterlimit:4;stroke-dasharray:none;stroke-opacity:1"
       d="m 70.990593,78.665015 c 14.76892,-6.34439 3.080869,8.66792 -2.442406,14.42421"
       id="path819-6-2-7"
       inkscape:connector-curvature="0" />
    <path
       style="fill:none;stroke:#707070;stroke-width:0.70227277;stroke-linecap:round;stroke-linejoin:miter;stroke-miterlimit:4;stroke-dasharray:none;stroke-opacity:1"
       d="m 83.935107,85.302065 c -0.660167,-12.75885 18.600033,-6.8689 22.122063,-5.22983"
       id="path827-4-5-2"
       inkscape:connector-curvature="0"
       sodipodi:nodetypes="cc" />
    <path
       style="fill:none;stroke:#707070;stroke-width:0.70227277;stroke-linecap:round;stroke-linejoin:miter;stroke-miterlimit:4;stroke-dasharray:none;stroke-opacity:1"
       d="m 108.59632,76.485475 c 15.10866,-5.48628 2.57829,8.83047 -3.26625,14.26026"
       id="path819-6-12-1-3"
       inkscape:connector-curvature="0" />
    <path
       style="fill:none;stroke:#707070;stroke-width:0.70227277;stroke-linecap:round;stroke-linejoin:miter;stroke-miterlimit:4;stroke-dasharray:none;stroke-opacity:1"
       d="m 122.8055,85.274265 c -0.66015,-12.75885 18.60001,-6.86889 22.12205,-5.22981"
       id="path827-4-45-85-3"
       inkscape:connector-curvature="0"
       sodipodi:nodetypes="cc" />
    <path
       style="fill:url(#meshgradient2153);fill-opacity:1;stroke:#707070;stroke-width:0.88029164;stroke-linecap:butt;stroke-linejoin:miter;stroke-miterlimit:4;stroke-dasharray:none;stroke-opacity:1"
       d="m 66.741889,67.614595 c 1.00596,-3.5233 2.56559,-1.67051 4.9885,-2.71272 1.26186,-0.54279 3.23585,-2.36379 4.49978,-2.90746 0.930701,-0.40034 2.583421,1.14835 3.430601,1.19706 1.25236,0.072 11.09116,0.44699 11.13762,0.47366 1.45402,0.83458 2.947901,0.82802 3.539401,2.20315 1.057068,2.45741 0.93586,4.36606 -0.139462,5.32444 -0.79143,0.70538 -5.493249,0.33812 -6.544359,0.79024 -6.43032,2.76598 -7.24069,0.39057 -12.029131,-2.35793 -2.83726,-1.62857 -6.83643,1.07218 -8.88295,-2.01044 z"
       id="path829-5-9-22-4"
       inkscape:connector-curvature="0"
       sodipodi:nodetypes="cccsccsssc" />
    <path
       style="fill:#6a73bc;fill-opacity:1;stroke:#222241;stroke-width:0.23291048px;stroke-linecap:butt;stroke-linejoin:miter;stroke-opacity:1"
       d="m 85.48047,65.671525 c -1.09488,-0.44549 -2.48263,-0.3993 -3.65161,-0.25155 -0.70278,0.0888 -1.54576,0.18531 -2.17661,0.54142 -0.50218,0.28348 -1.96321,1.15488 -1.67288,1.92434 0.0505,0.13376 0.16587,0.27292 0.24842,0.38921 0.24871,0.35037 0.72321,0.58985 1.12563,0.71044 0.97383,0.29184 2.17254,0.44407 3.18651,0.37066 0.73174,-0.053 1.45341,-0.21849 2.18304,-0.2911 0.71057,-0.0707 2.39659,-0.30816 2.78537,-0.9855 0.32753,-0.57063 -0.55588,-1.63803 -1.03564,-1.91341 -0.15192,-0.0872 -0.37185,-0.19619 -0.46199,-0.29735 -0.0898,-0.10078 -0.38156,-0.11178 -0.53024,-0.19712 z"
       id="path837-0-0-4-9"
       inkscape:connector-curvature="0" />
    <path
       style="fill:url(#meshgradient2532);fill-opacity:1;stroke:#707070;stroke-width:0.88029164;stroke-linecap:butt;stroke-linejoin:miter;stroke-miterlimit:4;stroke-dasharray:none;stroke-opacity:1"
       d="m 126.84011,52.117575 c 1.00596,-3.5233 2.56559,-1.67051 4.9885,-2.71272 1.26186,-0.54279 3.23585,-2.36379 4.49978,-2.90746 0.9307,-0.40034 2.58342,1.14835 3.4306,1.19706 1.25236,0.072 11.09116,0.44699 11.13762,0.47366 1.45402,0.83458 2.9479,0.82802 3.5394,2.20315 1.05707,2.45741 0.93586,4.36606 -0.13946,5.32444 -0.79143,0.70538 -5.49325,0.33812 -6.54436,0.79024 -6.43032,2.76598 -7.24069,0.39057 -12.02913,-2.35793 -2.83726,-1.62857 -6.83643,1.07218 -8.88295,-2.01044 z"
       id="path829-5-9-22-4-2"
       inkscape:connector-curvature="0"
       sodipodi:nodetypes="cccsccsssc" />
    <path
       style="fill:#6a73bc;fill-opacity:1;stroke:#222241;stroke-width:0.23291048px;stroke-linecap:butt;stroke-linejoin:miter;stroke-opacity:1"
       d="m 145.57869,50.174505 c -1.09488,-0.44549 -2.48263,-0.3993 -3.65161,-0.25155 -0.70278,0.0888 -1.54576,0.18531 -2.17661,0.54142 -0.50218,0.28348 -1.96321,1.15488 -1.67288,1.92434 0.0505,0.13376 0.16587,0.27292 0.24842,0.38921 0.24871,0.35037 0.72321,0.58985 1.12563,0.71044 0.97383,0.29184 2.17254,0.44407 3.18651,0.37066 0.73174,-0.053 1.45341,-0.21849 2.18304,-0.2911 0.71057,-0.0707 2.39659,-0.30816 2.78537,-0.9855 0.32753,-0.57063 -0.55588,-1.63803 -1.03564,-1.91341 -0.15192,-0.0872 -0.37185,-0.19619 -0.46199,-0.29735 -0.0898,-0.10078 -0.38156,-0.11178 -0.53024,-0.19712 z"
       id="path837-0-0-4-9-8"
       inkscape:connector-curvature="0" />
    <path
       style="fill:url(#meshgradient2428);fill-opacity:1;stroke:#707070;stroke-width:0.88029164;stroke-linecap:butt;stroke-linejoin:miter;stroke-miterlimit:4;stroke-dasharray:none;stroke-opacity:1"
       d="m 159.34606,48.337805 c 1.00596,-3.5233 2.56559,-1.67051 4.9885,-2.71272 1.26186,-0.54279 3.23585,-2.36379 4.49978,-2.90746 0.9307,-0.40034 2.58342,1.14835 3.4306,1.19706 1.25236,0.072 11.09116,0.44699 11.13762,0.47366 1.45402,0.83458 2.9479,0.82802 3.5394,2.20315 1.05707,2.45741 0.93586,4.36606 -0.13946,5.32444 -0.79143,0.70538 -5.49325,0.33812 -6.54436,0.79024 -6.43032,2.76598 -7.24069,0.39057 -12.02913,-2.35793 -2.83726,-1.62857 -6.83643,1.07218 -8.88295,-2.01044 z"
       id="path829-5-9-22-4-0"
       inkscape:connector-curvature="0"
       sodipodi:nodetypes="cccsccsssc" />
    <path
       style="fill:#6a73bc;fill-opacity:1;stroke:#222241;stroke-width:0.23291048px;stroke-linecap:butt;stroke-linejoin:miter;stroke-opacity:1"
       d="m 178.08464,46.394735 c -1.09488,-0.44549 -2.48263,-0.3993 -3.65161,-0.25155 -0.70278,0.0888 -1.54576,0.18531 -2.17661,0.54142 -0.50218,0.28348 -1.96321,1.15488 -1.67288,1.92434 0.0505,0.13376 0.16587,0.27292 0.24842,0.38921 0.24871,0.35037 0.72321,0.58985 1.12563,0.71044 0.97383,0.29184 2.17254,0.44407 3.18651,0.37066 0.73174,-0.053 1.45341,-0.21849 2.18304,-0.2911 0.71057,-0.0707 2.39659,-0.30816 2.78537,-0.9855 0.32753,-0.57063 -0.55588,-1.63803 -1.03564,-1.91341 -0.15192,-0.0872 -0.37185,-0.19619 -0.46199,-0.29735 -0.0898,-0.10078 -0.38156,-0.11178 -0.53024,-0.19712 z"
       id="path837-0-0-4-9-6"
       inkscape:connector-curvature="0" />
    <path
       style="fill:url(#meshgradient2480);fill-opacity:1;stroke:#707070;stroke-width:0.88029164;stroke-linecap:butt;stroke-linejoin:miter;stroke-miterlimit:4;stroke-dasharray:none;stroke-opacity:1"
       d="m 68.329392,35.788985 c 1.00596,-3.5233 2.56559,-1.67051 4.9885,-2.71272 1.26186,-0.54279 3.23585,-2.36379 4.49978,-2.90746 0.930701,-0.40034 2.583421,1.14835 3.430601,1.19706 1.25236,0.072 11.09116,0.44699 11.13762,0.47366 1.45402,0.83458 2.9479,0.82802 3.5394,2.20315 1.057068,2.45741 0.93586,4.36606 -0.139462,5.32444 -0.79143,0.70538 -5.493248,0.33812 -6.544358,0.79024 -6.43032,2.76598 -7.24069,0.39057 -12.029131,-2.35793 -2.83726,-1.62857 -6.83643,1.07218 -8.88295,-2.01044 z"
       id="path829-5-9-22-4-03"
       inkscape:connector-curvature="0"
       sodipodi:nodetypes="cccsccsssc" />
    <path
       style="fill:#6a73bc;fill-opacity:1;stroke:#222241;stroke-width:0.23291048px;stroke-linecap:butt;stroke-linejoin:miter;stroke-opacity:1"
       d="m 87.067973,33.845915 c -1.09488,-0.44549 -2.48263,-0.3993 -3.65161,-0.25155 -0.70278,0.0888 -1.54576,0.18531 -2.17661,0.54142 -0.50218,0.28348 -1.96321,1.15488 -1.67288,1.92434 0.0505,0.13376 0.16587,0.27292 0.24842,0.38921 0.24871,0.35037 0.72321,0.58985 1.12563,0.71044 0.97383,0.29184 2.17254,0.44407 3.18651,0.37066 0.73174,-0.053 1.45341,-0.21849 2.18304,-0.2911 0.71057,-0.0707 2.39659,-0.30816 2.78537,-0.9855 0.32753,-0.57063 -0.55588,-1.63803 -1.03564,-1.91341 -0.15192,-0.0872 -0.37185,-0.19619 -0.46199,-0.29735 -0.0898,-0.10078 -0.38156,-0.11178 -0.53024,-0.19712 z"
       id="path837-0-0-4-9-4"
       inkscape:connector-curvature="0" />
    <path
       style="fill:url(#meshgradient2558);fill-opacity:1;stroke:#707070;stroke-width:0.88029164;stroke-linecap:butt;stroke-linejoin:miter;stroke-miterlimit:4;stroke-dasharray:none;stroke-opacity:1"
       d="m 107.79014,34.806275 c 1.00596,-3.5233 2.56559,-1.67051 4.9885,-2.71272 1.26186,-0.54279 3.23585,-2.36379 4.49978,-2.90746 0.9307,-0.40034 2.58342,1.14835 3.4306,1.19706 1.25236,0.072 11.09116,0.44699 11.13762,0.47366 1.45402,0.83458 2.9479,0.82802 3.5394,2.20315 1.05707,2.45741 0.93586,4.36606 -0.13946,5.32444 -0.79143,0.70538 -5.49325,0.33812 -6.54436,0.79024 -6.43032,2.76598 -7.24069,0.39057 -12.02913,-2.35793 -2.83726,-1.62857 -6.83643,1.07218 -8.88295,-2.01044 z"
       id="path829-5-9-22-4-7"
       inkscape:connector-curvature="0"
       sodipodi:nodetypes="cccsccsssc" />
    <path
       style="fill:#6a73bc;fill-opacity:1;stroke:#222241;stroke-width:0.23291048px;stroke-linecap:butt;stroke-linejoin:miter;stroke-opacity:1"
       d="m 126.52872,32.863205 c -1.09488,-0.44549 -2.48263,-0.3993 -3.65161,-0.25155 -0.70278,0.0888 -1.54576,0.18531 -2.17661,0.54142 -0.50218,0.28348 -1.96321,1.15488 -1.67288,1.92434 0.0505,0.13376 0.16587,0.27292 0.24842,0.38921 0.24871,0.35037 0.72321,0.58985 1.12563,0.71044 0.97383,0.29184 2.17254,0.44407 3.18651,0.37066 0.73174,-0.053 1.45341,-0.21849 2.18304,-0.2911 0.71057,-0.0707 2.39659,-0.30816 2.78537,-0.9855 0.32753,-0.57063 -0.55588,-1.63803 -1.03564,-1.91341 -0.15192,-0.0872 -0.37185,-0.19619 -0.46199,-0.29735 -0.0898,-0.10078 -0.38156,-0.11178 -0.53024,-0.19712 z"
       id="path837-0-0-4-9-84"
       inkscape:connector-curvature="0" />
    <path
       style="fill:url(#meshgradient2584);fill-opacity:1;stroke:#707070;stroke-width:0.88029164;stroke-linecap:butt;stroke-linejoin:miter;stroke-miterlimit:4;stroke-dasharray:none;stroke-opacity:1"
       d="m 142.33715,36.091395 c 1.00596,-3.5233 2.56559,-1.67051 4.9885,-2.71272 1.26186,-0.54279 3.23585,-2.36379 4.49978,-2.90746 0.9307,-0.40034 2.58342,1.14835 3.4306,1.19706 1.25236,0.072 11.09116,0.44699 11.13762,0.47366 1.45402,0.83458 2.9479,0.82802 3.5394,2.20315 1.05707,2.45741 0.93586,4.36606 -0.13946,5.32444 -0.79143,0.70538 -5.49325,0.33812 -6.54436,0.79024 -6.43032,2.76598 -7.24069,0.39057 -12.02913,-2.35793 -2.83726,-1.62857 -6.83643,1.07218 -8.88295,-2.01044 z"
       id="path829-5-9-22-4-8"
       inkscape:connector-curvature="0"
       sodipodi:nodetypes="cccsccsssc" />
    <path
       style="fill:#6a73bc;fill-opacity:1;stroke:#222241;stroke-width:0.23291048px;stroke-linecap:butt;stroke-linejoin:miter;stroke-opacity:1"
       d="m 161.07573,34.148325 c -1.09488,-0.44549 -2.48263,-0.3993 -3.65161,-0.25155 -0.70278,0.0888 -1.54576,0.18531 -2.17661,0.54142 -0.50218,0.28348 -1.96321,1.15488 -1.67288,1.92434 0.0505,0.13376 0.16587,0.27292 0.24842,0.38921 0.24871,0.35037 0.72321,0.58985 1.12563,0.71044 0.97383,0.29184 2.17254,0.44407 3.18651,0.37066 0.73174,-0.053 1.45341,-0.21849 2.18304,-0.2911 0.71057,-0.0707 2.39659,-0.30816 2.78537,-0.9855 0.32753,-0.57063 -0.55588,-1.63803 -1.03564,-1.91341 -0.15192,-0.0872 -0.37185,-0.19619 -0.46199,-0.29735 -0.0898,-0.10078 -0.38156,-0.11178 -0.53024,-0.19712 z"
       id="path837-0-0-4-9-2"
       inkscape:connector-curvature="0" />
    <path
       style="fill:url(#meshgradient2454);fill-opacity:1;stroke:#707070;stroke-width:0.88029164;stroke-linecap:butt;stroke-linejoin:miter;stroke-miterlimit:4;stroke-dasharray:none;stroke-opacity:1"
       d="m 51.622842,50.530065 c 1.00596,-3.5233 2.56559,-1.67051 4.9885,-2.71272 1.26186,-0.54279 3.23585,-2.36379 4.49978,-2.90746 0.930701,-0.40034 2.583421,1.14835 3.430601,1.19706 1.25236,0.072 11.09116,0.44699 11.13762,0.47366 1.45402,0.83458 2.9479,0.82802 3.5394,2.20315 1.057068,2.45741 0.93586,4.36606 -0.139462,5.32444 -0.79143,0.70538 -5.493248,0.33812 -6.544358,0.79024 -6.43032,2.76598 -7.24069,0.39057 -12.029131,-2.35793 -2.83726,-1.62857 -6.83643,1.07218 -8.88295,-2.01044 z"
       id="path829-5-9-22-4-3"
       inkscape:connector-curvature="0"
       sodipodi:nodetypes="cccsccsssc" />
    <path
       style="fill:#6a73bc;fill-opacity:1;stroke:#222241;stroke-width:0.23291048px;stroke-linecap:butt;stroke-linejoin:miter;stroke-opacity:1"
       d="m 70.361423,48.586995 c -1.09488,-0.44549 -2.48263,-0.3993 -3.65161,-0.25155 -0.70278,0.0888 -1.54576,0.18531 -2.17661,0.54142 -0.50218,0.28348 -1.96321,1.15488 -1.67288,1.92434 0.0505,0.13376 0.16587,0.27292 0.24842,0.38921 0.24871,0.35037 0.72321,0.58985 1.12563,0.71044 0.97383,0.29184 2.17254,0.44407 3.18651,0.37066 0.73174,-0.053 1.45341,-0.21849 2.18304,-0.2911 0.71057,-0.0707 2.39659,-0.30816 2.78537,-0.9855 0.32753,-0.57063 -0.55588,-1.63803 -1.03564,-1.91341 -0.15192,-0.0872 -0.37185,-0.19619 -0.46199,-0.29735 -0.0898,-0.10078 -0.38156,-0.11178 -0.53024,-0.19712 z"
       id="path837-0-0-4-9-80"
       inkscape:connector-curvature="0" />
    <path
       style="fill:url(#meshgradient2506);fill-opacity:1;stroke:#707070;stroke-width:0.88029164;stroke-linecap:butt;stroke-linejoin:miter;stroke-miterlimit:4;stroke-dasharray:none;stroke-opacity:1"
       d="m 88.210934,50.605665 c 1.00596,-3.5233 2.56559,-1.67051 4.9885,-2.71272 1.26186,-0.54279 3.235846,-2.36379 4.49977,-2.90746 0.930704,-0.40034 2.583416,1.14835 3.430596,1.19706 1.25236,0.072 11.09116,0.44699 11.13762,0.47366 1.45402,0.83458 2.9479,0.82802 3.5394,2.20315 1.05706,2.45741 0.93586,4.36606 -0.13947,5.32444 -0.79143,0.70538 -5.49324,0.33812 -6.54435,0.79024 -6.43032,2.76598 -7.24069,0.39057 -12.029123,-2.35793 -2.837253,-1.62857 -6.836423,1.07218 -8.882943,-2.01044 z"
       id="path829-5-9-22-4-4"
       inkscape:connector-curvature="0"
       sodipodi:nodetypes="cccsccsssc" />
    <path
       style="fill:#6a73bc;fill-opacity:1;stroke:#222241;stroke-width:0.23291048px;stroke-linecap:butt;stroke-linejoin:miter;stroke-opacity:1"
       d="m 106.9495,48.662595 c -1.09488,-0.44549 -2.48263,-0.3993 -3.65161,-0.25155 -0.70278,0.0888 -1.54576,0.18531 -2.17661,0.54142 -0.50218,0.28348 -1.963205,1.15488 -1.672878,1.92434 0.0505,0.13376 0.16587,0.27292 0.24842,0.38921 0.248707,0.35037 0.723208,0.58985 1.125628,0.71044 0.97383,0.29184 2.17254,0.44407 3.18651,0.37066 0.73174,-0.053 1.45341,-0.21849 2.18304,-0.2911 0.71057,-0.0707 2.39659,-0.30816 2.78537,-0.9855 0.32753,-0.57063 -0.55588,-1.63803 -1.03564,-1.91341 -0.15192,-0.0872 -0.37185,-0.19619 -0.46199,-0.29735 -0.0898,-0.10078 -0.38156,-0.11178 -0.53024,-0.19712 z"
       id="path837-0-0-4-9-1"
       inkscape:connector-curvature="0" />
  </g>
</svg>
