<?xml version="1.0" encoding="UTF-8" standalone="no"?>
<!-- Created with Inkscape (http://www.inkscape.org/) -->

<svg
   xmlns:dc="http://purl.org/dc/elements/1.1/"
   xmlns:cc="http://creativecommons.org/ns#"
   xmlns:rdf="http://www.w3.org/1999/02/22-rdf-syntax-ns#"
   xmlns:svg="http://www.w3.org/2000/svg"
   xmlns="http://www.w3.org/2000/svg"
   xmlns:xlink="http://www.w3.org/1999/xlink"
   xmlns:sodipodi="http://sodipodi.sourceforge.net/DTD/sodipodi-0.dtd"
   xmlns:inkscape="http://www.inkscape.org/namespaces/inkscape"
   width="210mm"
   height="297mm"
   viewBox="0 0 210 297"
   version="1.1"
   id="svg8"
   inkscape:version="0.92.4 (5da689c313, 2019-01-14)"
   sodipodi:docname="clonal expansion3.svg">
  <defs
     id="defs2">
    <radialGradient
       inkscape:collect="always"
       xlink:href="#linearGradient934"
       id="radialGradient936"
       cx="45.232803"
       cy="39.827724"
       fx="45.232803"
       fy="39.827724"
       r="14.623959"
       gradientTransform="matrix(1,0,0,0.41584909,-4.9987415,25.113636)"
       gradientUnits="userSpaceOnUse" />
    <linearGradient
       inkscape:collect="always"
       id="linearGradient934">
      <stop
         style="stop-color:#b6b8d0;stop-opacity:1;"
         offset="0"
         id="stop930" />
      <stop
         style="stop-color:#b6b8d0;stop-opacity:0;"
         offset="1"
         id="stop932" />
    </linearGradient>
    <radialGradient
       inkscape:collect="always"
       xlink:href="#linearGradient934"
       id="radialGradient3420"
       cx="94.16256"
       cy="118.60299"
       fx="94.16256"
       fy="118.60299"
       r="14.623999"
       gradientTransform="matrix(1,0,0,0.41584968,-15.501632,-7.1571074)"
       gradientUnits="userSpaceOnUse" />
    <radialGradient
       inkscape:collect="always"
       xlink:href="#linearGradient934"
       id="radialGradient3428"
       cx="133.62347"
       cy="117.62028"
       fx="133.62347"
       fy="117.62028"
       r="14.624054"
       gradientTransform="matrix(1,0,0,0.41584845,-15.501632,-7.7310154)"
       gradientUnits="userSpaceOnUse" />
    <radialGradient
       inkscape:collect="always"
       xlink:href="#linearGradient934"
       id="radialGradient3436"
       cx="168.17065"
       cy="118.9054"
       fx="168.17065"
       fy="118.9054"
       r="14.624034"
       gradientTransform="matrix(1,0,0,0.41584869,-15.501632,-6.9803364)"
       gradientUnits="userSpaceOnUse" />
    <radialGradient
       inkscape:collect="always"
       xlink:href="#linearGradient934"
       id="radialGradient3444"
       cx="77.455978"
       cy="133.3441"
       fx="77.455978"
       fy="133.3441"
       r="14.623981"
       gradientTransform="matrix(1,0,0,0.41584832,-15.501632,1.4540936)"
       gradientUnits="userSpaceOnUse" />
    <radialGradient
       inkscape:collect="always"
       xlink:href="#linearGradient934"
       id="radialGradient3452"
       cx="114.04415"
       cy="133.41969"
       fx="114.04415"
       fy="133.41969"
       r="14.624043"
       gradientTransform="matrix(1,0,0,0.41584657,-15.501632,1.4984896)"
       gradientUnits="userSpaceOnUse" />
    <meshgradient
       y="144.78855"
       x="79.043109"
       gradientUnits="userSpaceOnUse"
       id="meshgradient3534"
       inkscape:collect="always"
       gradientTransform="translate(-15.501632,-76.439084)">
      <meshrow
         id="meshrow3536">
        <meshpatch
           id="meshpatch3538">
          <stop
             path="c 9.23855,0.489058  18.4772,0.97812  27.7157,1.46718"
             style="stop-color:#ffffff;stop-opacity:1"
             id="stop3540" />
          <stop
             path="c -0.204364,3.27328  -0.408729,6.54655  -0.613093,9.81983"
             style="stop-color:#505281;stop-opacity:1"
             id="stop3542" />
          <stop
             path="c -9.23855,-0.489058  -18.4772,-0.97812  -27.7157,-1.46718"
             style="stop-color:#ffffff;stop-opacity:1"
             id="stop3544" />
          <stop
             path="c 0.204364,-3.27328  0.408729,-6.54655  0.613093,-9.81983"
             style="stop-color:#505281;stop-opacity:1"
             id="stop3546" />
        </meshpatch>
      </meshrow>
    </meshgradient>
    <meshgradient
       y="129.29153"
       x="139.14156"
       gradientUnits="userSpaceOnUse"
       id="meshgradient3560"
       inkscape:collect="always"
       gradientTransform="translate(-15.501632,-76.439084)">
      <meshrow
         id="meshrow3562">
        <meshpatch
           id="meshpatch3564">
          <stop
             path="c 9.23859,0.489058  18.4773,0.978121  27.7159,1.46718"
             style="stop-color:#ffffff;stop-opacity:1"
             id="stop3566" />
          <stop
             path="c -0.204365,3.27328  -0.40873,6.54656  -0.613095,9.81983"
             style="stop-color:#505281;stop-opacity:1"
             id="stop3568" />
          <stop
             path="c -9.23859,-0.489058  -18.4773,-0.978121  -27.7159,-1.46718"
             style="stop-color:#ffffff;stop-opacity:1"
             id="stop3570" />
          <stop
             path="c 0.204365,-3.27328  0.40873,-6.54656  0.613095,-9.81983"
             style="stop-color:#505281;stop-opacity:1"
             id="stop3572" />
        </meshpatch>
      </meshrow>
    </meshgradient>
    <meshgradient
       y="125.51176"
       x="171.64768"
       gradientUnits="userSpaceOnUse"
       id="meshgradient3586"
       inkscape:collect="always"
       gradientTransform="translate(-15.501632,-76.439084)">
      <meshrow
         id="meshrow3588">
        <meshpatch
           id="meshpatch3590">
          <stop
             path="c 9.23855,0.489058  18.4772,0.97812  27.7157,1.46718"
             style="stop-color:#ffffff;stop-opacity:1"
             id="stop3592" />
          <stop
             path="c -0.204364,3.27328  -0.408728,6.54655  -0.613093,9.81983"
             style="stop-color:#505281;stop-opacity:1"
             id="stop3594" />
          <stop
             path="c -9.23855,-0.489058  -18.4772,-0.97812  -27.7157,-1.46718"
             style="stop-color:#ffffff;stop-opacity:1"
             id="stop3596" />
          <stop
             path="c 0.204364,-3.27328  0.408728,-6.54655  0.613093,-9.81983"
             style="stop-color:#505281;stop-opacity:1"
             id="stop3598" />
        </meshpatch>
      </meshrow>
    </meshgradient>
    <meshgradient
       y="146.29649"
       x="118.96074"
       gradientUnits="userSpaceOnUse"
       id="meshgradient3612"
       inkscape:collect="always"
       gradientTransform="translate(-15.501632,-76.439084)">
      <meshrow
         id="meshrow3614">
        <meshpatch
           id="meshpatch3616">
          <stop
             path="c 9.23859,0.489058  18.4773,0.97812  27.7159,1.46718"
             style="stop-color:#ffffff;stop-opacity:1"
             id="stop3618" />
          <stop
             path="c -0.204365,3.27328  -0.40873,6.54655  -0.613096,9.81983"
             style="stop-color:#505281;stop-opacity:1"
             id="stop3620" />
          <stop
             path="c -9.23859,-0.489058  -18.4773,-0.97812  -27.7159,-1.46718"
             style="stop-color:#ffffff;stop-opacity:1"
             id="stop3622" />
          <stop
             path="c 0.204365,-3.27328  0.40873,-6.54655  0.613096,-9.81983"
             style="stop-color:#505281;stop-opacity:1"
             id="stop3624" />
        </meshpatch>
      </meshrow>
    </meshgradient>
  </defs>
  <sodipodi:namedview
     id="base"
     pagecolor="#ffffff"
     bordercolor="#666666"
     borderopacity="1.0"
     inkscape:pageopacity="0.0"
     inkscape:pageshadow="2"
     inkscape:zoom="0.49497475"
     inkscape:cx="874.63703"
     inkscape:cy="544.25579"
     inkscape:document-units="mm"
     inkscape:current-layer="layer1"
     showgrid="false"
     showguides="false"
     inkscape:window-width="1920"
     inkscape:window-height="986"
     inkscape:window-x="-11"
     inkscape:window-y="-11"
     inkscape:window-maximized="1" />
  <metadata
     id="metadata5">
    <rdf:RDF>
      <cc:Work
         rdf:about="">
        <dc:format>image/svg+xml</dc:format>
        <dc:type
           rdf:resource="http://purl.org/dc/dcmitype/StillImage" />
        <dc:title />
      </cc:Work>
    </rdf:RDF>
  </metadata>
  <g
     inkscape:label="Layer 1"
     inkscape:groupmode="layer"
     id="layer1">
    <path
       style="fill:url(#meshgradient3612);fill-opacity:1;stroke:#707070;stroke-width:0.88029164;stroke-linecap:butt;stroke-linejoin:miter;stroke-miterlimit:4;stroke-dasharray:none;stroke-opacity:1"
       d="m 102.84601,75.543626 c 1.00597,-3.5233 2.56561,-1.67052 4.98853,-2.71272 1.26187,-0.54279 3.23587,-2.36379 4.49981,-2.90746 0.9307,-0.40034 2.58343,1.14835 3.43062,1.19706 1.25236,0.072 11.09122,0.44699 11.13768,0.47366 1.45403,0.83458 2.94792,0.82801 3.53942,2.20315 1.05708,2.4574 0.93587,4.36606 -0.13946,5.32444 -0.79143,0.70538 -5.49328,0.33812 -6.5444,0.79024 -6.43035,2.76597 -7.24073,0.39057 -12.0292,-2.35793 -2.83727,-1.62857 -6.83647,1.07218 -8.883,-2.01044 z"
       id="path829-5-9-22-0"
       inkscape:connector-curvature="0"
       sodipodi:nodetypes="cccsccsssc" />
    <path
       style="fill:#6a73bc;fill-opacity:1;stroke:#222241;stroke-width:0.23291048px;stroke-linecap:butt;stroke-linejoin:miter;stroke-opacity:1"
       d="m 121.5847,73.600556 c -1.09488,-0.4455 -2.48264,-0.3993 -3.65163,-0.25155 -0.70279,0.0888 -1.54577,0.18531 -2.17662,0.54142 -0.50218,0.28348 -1.96322,1.15488 -1.67289,1.92434 0.0505,0.13376 0.16587,0.27292 0.24842,0.38921 0.24871,0.35037 0.72321,0.58985 1.12564,0.71044 0.97383,0.29184 2.17255,0.44407 3.18652,0.37066 0.73175,-0.053 1.45342,-0.21849 2.18306,-0.2911 0.71057,-0.0707 2.3966,-0.30816 2.78538,-0.9855 0.32753,-0.57064 -0.55588,-1.63803 -1.03565,-1.91341 -0.15192,-0.0872 -0.37185,-0.1962 -0.46199,-0.29735 -0.0898,-0.10078 -0.38156,-0.11178 -0.53024,-0.19712 z"
       id="path837-0-0-4-4"
       inkscape:connector-curvature="0" />
    <path
       style="fill:none;stroke:#707070;stroke-width:0.70227283;stroke-linecap:round;stroke-linejoin:miter;stroke-miterlimit:4;stroke-dasharray:none;stroke-opacity:1"
       d="m 23.194063,28.459556 c 18.375585,10.85303 -0.0037,9.68586 -10.339988,8.19336"
       id="path815-3-7"
       inkscape:connector-curvature="0" />
    <path
       style="fill:none;stroke:#707070;stroke-width:0.70227283;stroke-linecap:round;stroke-linejoin:miter;stroke-miterlimit:4;stroke-dasharray:none;stroke-opacity:1"
       d="m 37.926815,30.187296 c -0.417561,8.67311 9.765683,4.59393 18.432355,2.79345"
       id="path817-1-5"
       inkscape:connector-curvature="0" />
    <path
       style="fill:none;stroke:#707070;stroke-width:0.70227283;stroke-linecap:round;stroke-linejoin:miter;stroke-miterlimit:4;stroke-dasharray:none;stroke-opacity:1"
       d="m 27.428166,46.877346 c 15.10865,-5.4863 2.578298,8.83047 -3.266259,14.26027"
       id="path819-6-0"
       inkscape:connector-curvature="0" />
    <path
       style="fill:none;stroke:#707070;stroke-width:0.70227283;stroke-linecap:round;stroke-linejoin:miter;stroke-miterlimit:4;stroke-dasharray:none;stroke-opacity:1"
       d="m 41.637336,55.666156 c -0.660162,-12.75887 18.60002,-6.86892 22.122047,-5.22983"
       id="path827-4-3"
       inkscape:connector-curvature="0"
       sodipodi:nodetypes="cc" />
    <path
       style="fill:url(#radialGradient936);fill-opacity:1;stroke:#707070;stroke-width:0.88029164;stroke-linecap:butt;stroke-linejoin:miter;stroke-miterlimit:4;stroke-dasharray:none;stroke-opacity:1"
       d="m 26.089062,41.722196 c 1.005953,-3.52332 2.565578,-1.67052 4.988495,-2.71273 1.261855,-0.54279 3.235851,-2.36381 4.49977,-2.90748 0.930708,-0.40035 2.583424,1.14836 3.430609,1.19707 1.252358,0.072 11.091152,0.44699 11.137605,0.47366 1.454029,0.83459 2.947905,0.82803 3.539407,2.20317 1.05705,2.45742 0.935845,4.36607 -0.139456,5.32446 -0.791427,0.70538 -5.493256,0.33811 -6.544369,0.79024 -6.430314,2.76598 -7.240685,0.39057 -12.029116,-2.35795 -2.83726,-1.62857 -6.836437,1.07221 -8.882945,-2.01044 z"
       id="path829-5-16"
       inkscape:connector-curvature="0"
       sodipodi:nodetypes="cccsccsssc" />
    <path
       style="fill:#6a73bc;fill-opacity:1;stroke:#222241;stroke-width:0.23291048px;stroke-linecap:butt;stroke-linejoin:miter;stroke-opacity:1"
       d="m 44.827621,39.779116 c -1.094877,-0.44549 -2.48263,-0.39929 -3.651604,-0.25154 -0.702784,0.0888 -1.54576,0.1853 -2.176611,0.54142 -0.502179,0.28348 -1.963202,1.15488 -1.672871,1.92434 0.05047,0.13376 0.165866,0.27293 0.248414,0.38922 0.248707,0.35038 0.723221,0.58985 1.125632,0.71045 0.973819,0.29184 2.172535,0.44407 3.186498,0.37066 0.731753,-0.053 1.453417,-0.2185 2.183045,-0.2911 0.710565,-0.0707 2.396591,-0.30817 2.785378,-0.98552 0.327525,-0.57062 -0.555882,-1.63803 -1.035646,-1.91341 -0.151918,-0.0872 -0.371845,-0.1962 -0.461991,-0.29736 -0.08982,-0.10077 -0.381558,-0.11177 -0.530246,-0.19712 z"
       id="path837-0-36"
       inkscape:connector-curvature="0" />
    <path
       style="fill:none;stroke:#707070;stroke-width:0.70227283;stroke-linecap:round;stroke-linejoin:miter;stroke-miterlimit:4;stroke-dasharray:none;stroke-opacity:1"
       d="m 62.06444,28.431766 c 18.375591,10.85303 -0.0037,9.68585 -10.339997,8.19336"
       id="path815-3-75-1"
       inkscape:connector-curvature="0" />
    <path
       style="fill:none;stroke:#707070;stroke-width:0.70227283;stroke-linecap:round;stroke-linejoin:miter;stroke-miterlimit:4;stroke-dasharray:none;stroke-opacity:1"
       d="m 76.79719,30.159506 c -0.417576,8.6731 9.765698,4.59393 18.432428,2.79345"
       id="path817-1-8-9"
       inkscape:connector-curvature="0" />
    <path
       style="fill:none;stroke:#707070;stroke-width:0.70227283;stroke-linecap:round;stroke-linejoin:miter;stroke-miterlimit:4;stroke-dasharray:none;stroke-opacity:1"
       d="m 80.50772,55.638346 c -0.660162,-12.75885 18.600108,-6.8689 22.12216,-5.22981"
       id="path827-4-45-2"
       inkscape:connector-curvature="0"
       sodipodi:nodetypes="cc" />
    <path
       style="fill:none;stroke:#707070;stroke-width:0.70227283;stroke-linecap:round;stroke-linejoin:miter;stroke-miterlimit:4;stroke-dasharray:none;stroke-opacity:1"
       d="m 46.382842,63.190156 c 15.108656,-5.48629 2.578296,8.83046 -3.26626,14.26026"
       id="path819-6-5-9"
       inkscape:connector-curvature="0" />
    <path
       style="fill:none;stroke:#707070;stroke-width:0.70227283;stroke-linecap:round;stroke-linejoin:miter;stroke-miterlimit:4;stroke-dasharray:none;stroke-opacity:1"
       d="m 60.592019,71.978966 c -0.660159,-12.75887 18.600018,-6.86892 22.122043,-5.22984"
       id="path827-4-9-5"
       inkscape:connector-curvature="0"
       sodipodi:nodetypes="cc" />
    <path
       style="fill:none;stroke:#707070;stroke-width:0.70227283;stroke-linecap:round;stroke-linejoin:miter;stroke-miterlimit:4;stroke-dasharray:none;stroke-opacity:1"
       d="m 99.462518,71.951156 c -0.66016,-12.75885 18.600142,-6.8689 22.122182,-5.22981"
       id="path827-4-45-3-6"
       inkscape:connector-curvature="0"
       sodipodi:nodetypes="cc" />
    <path
       style="fill:none;stroke:#707070;stroke-width:0.70227283;stroke-linecap:round;stroke-linejoin:miter;stroke-miterlimit:4;stroke-dasharray:none;stroke-opacity:1"
       d="m 102.12983,27.951696 c 18.37568,10.85302 -0.004,9.68585 -10.340072,8.19337"
       id="path815-3-2-8"
       inkscape:connector-curvature="0" />
    <path
       style="fill:none;stroke:#707070;stroke-width:0.70227283;stroke-linecap:round;stroke-linejoin:miter;stroke-miterlimit:4;stroke-dasharray:none;stroke-opacity:1"
       d="m 116.86265,29.679436 c -0.41757,8.6731 9.76573,4.59393 18.43246,2.79344"
       id="path817-1-6-1"
       inkscape:connector-curvature="0" />
    <path
       style="fill:none;stroke:#707070;stroke-width:0.70227283;stroke-linecap:round;stroke-linejoin:miter;stroke-miterlimit:4;stroke-dasharray:none;stroke-opacity:1"
       d="m 120.57321,55.158286 c -0.66018,-12.75887 18.6001,-6.86891 22.12214,-5.22982"
       id="path827-4-7-0"
       inkscape:connector-curvature="0"
       sodipodi:nodetypes="cc" />
    <path
       style="fill:none;stroke:#707070;stroke-width:0.70227283;stroke-linecap:round;stroke-linejoin:miter;stroke-miterlimit:4;stroke-dasharray:none;stroke-opacity:1"
       d="m 155.73322,29.651636 c -0.41757,8.67311 9.76573,4.59394 18.43241,2.79345"
       id="path817-1-8-6-4"
       inkscape:connector-curvature="0" />
    <path
       style="fill:none;stroke:#707070;stroke-width:0.70227283;stroke-linecap:round;stroke-linejoin:miter;stroke-miterlimit:4;stroke-dasharray:none;stroke-opacity:1"
       d="m 135.23692,73.896096 c -0.66017,-12.75885 18.60011,-6.86891 22.12216,-5.22982"
       id="path827-4-2-2"
       inkscape:connector-curvature="0"
       sodipodi:nodetypes="cc" />
    <path
       style="fill:none;stroke:#707070;stroke-width:0.70227283;stroke-linecap:round;stroke-linejoin:miter;stroke-miterlimit:4;stroke-dasharray:none;stroke-opacity:1"
       d="m 174.10743,73.868296 c -0.66016,-12.75884 18.60002,-6.8689 22.12205,-5.22981"
       id="path827-4-45-4-9"
       inkscape:connector-curvature="0"
       sodipodi:nodetypes="cc" />
    <path
       style="fill:none;stroke:#707070;stroke-width:0.70227283;stroke-linecap:round;stroke-linejoin:miter;stroke-miterlimit:4;stroke-dasharray:none;stroke-opacity:1"
       d="m 67.17709,85.086106 c 14.768921,-6.34439 3.08087,8.66792 -2.442408,14.42421"
       id="path819-6-2-7"
       inkscape:connector-curvature="0" />
    <path
       style="fill:none;stroke:#707070;stroke-width:0.70227283;stroke-linecap:round;stroke-linejoin:miter;stroke-miterlimit:4;stroke-dasharray:none;stroke-opacity:1"
       d="m 80.121605,91.723156 c -0.660167,-12.75885 18.600113,-6.8689 22.122165,-5.22983"
       id="path827-4-5-2"
       inkscape:connector-curvature="0"
       sodipodi:nodetypes="cc" />
    <path
       style="fill:none;stroke:#707070;stroke-width:0.70227283;stroke-linecap:round;stroke-linejoin:miter;stroke-miterlimit:4;stroke-dasharray:none;stroke-opacity:1"
       d="m 104.78293,82.906566 c 15.10875,-5.48628 2.57831,8.83047 -3.26626,14.26026"
       id="path819-6-12-1-3"
       inkscape:connector-curvature="0" />
    <path
       style="fill:none;stroke:#707070;stroke-width:0.70227283;stroke-linecap:round;stroke-linejoin:miter;stroke-miterlimit:4;stroke-dasharray:none;stroke-opacity:1"
       d="m 118.9922,91.695356 c -0.66016,-12.75885 18.60011,-6.86889 22.12217,-5.22981"
       id="path827-4-45-85-3"
       inkscape:connector-curvature="0"
       sodipodi:nodetypes="cc" />
    <path
       style="fill:url(#meshgradient3534);fill-opacity:1;stroke:#707070;stroke-width:0.88029164;stroke-linecap:butt;stroke-linejoin:miter;stroke-miterlimit:4;stroke-dasharray:none;stroke-opacity:1"
       d="m 62.928384,74.035686 c 1.00596,-3.5233 2.565592,-1.67051 4.988502,-2.71272 1.261862,-0.54279 3.235852,-2.36379 4.49978,-2.90746 0.930701,-0.40034 2.583421,1.14835 3.430601,1.19706 1.25236,0.072 11.091171,0.44699 11.137631,0.47366 1.45403,0.83458 2.94792,0.82802 3.53942,2.20314 1.05708,2.45741 0.93587,4.36607 -0.13946,5.32445 -0.79143,0.70538 -5.49328,0.33812 -6.544391,0.79024 -6.43032,2.76597 -7.240688,0.39057 -12.02913,-2.35794 -2.83726,-1.62856 -6.836431,1.07219 -8.882953,-2.01043 z"
       id="path829-5-9-22-4"
       inkscape:connector-curvature="0"
       sodipodi:nodetypes="cccsccsssc" />
    <path
       style="fill:#6a73bc;fill-opacity:1;stroke:#222241;stroke-width:0.23291048px;stroke-linecap:butt;stroke-linejoin:miter;stroke-opacity:1"
       d="m 81.666968,72.092606 c -1.09488,-0.44548 -2.482631,-0.39929 -3.65161,-0.25155 -0.702781,0.0888 -1.545759,0.18532 -2.176611,0.54143 -0.502179,0.28348 -1.963208,1.15488 -1.672878,1.92434 0.0505,0.13376 0.16587,0.27292 0.24842,0.38921 0.248708,0.35037 0.723209,0.58985 1.12563,0.71044 0.973828,0.29184 2.172539,0.44406 3.186509,0.37066 0.73174,-0.053 1.453409,-0.21849 2.18304,-0.2911 0.710571,-0.0707 2.396591,-0.30816 2.78537,-0.98551 0.32753,-0.57062 -0.555879,-1.63802 -1.03564,-1.9134 -0.151919,-0.0872 -0.371851,-0.1962 -0.461989,-0.29735 -0.0898,-0.10078 -0.381561,-0.11178 -0.530241,-0.19712 z"
       id="path837-0-0-4-9"
       inkscape:connector-curvature="0" />
    <path
       style="fill:url(#meshgradient3560);fill-opacity:1;stroke:#707070;stroke-width:0.88029164;stroke-linecap:butt;stroke-linejoin:miter;stroke-miterlimit:4;stroke-dasharray:none;stroke-opacity:1"
       d="m 123.02683,58.538666 c 1.00596,-3.5233 2.5656,-1.67051 4.98853,-2.71272 1.26186,-0.54279 3.23587,-2.36379 4.4998,-2.90746 0.93071,-0.40034 2.58344,1.14835 3.43062,1.19706 1.25237,0.072 11.09123,0.44698 11.13769,0.47365 1.45402,0.83459 2.94791,0.82803 3.53941,2.20316 1.05708,2.45741 0.93587,4.36605 -0.13946,5.32444 -0.79143,0.70538 -5.49328,0.33812 -6.54439,0.79024 -6.43036,2.76598 -7.24073,0.39057 -12.0292,-2.35793 -2.83728,-1.62858 -6.83647,1.07217 -8.883,-2.01044 z"
       id="path829-5-9-22-4-2"
       inkscape:connector-curvature="0"
       sodipodi:nodetypes="cccsccsssc" />
    <path
       style="fill:#6a73bc;fill-opacity:1;stroke:#222241;stroke-width:0.23291048px;stroke-linecap:butt;stroke-linejoin:miter;stroke-opacity:1"
       d="m 141.76552,56.595596 c -1.09489,-0.44549 -2.48265,-0.39931 -3.65164,-0.25155 -0.70278,0.0888 -1.54576,0.1853 -2.17662,0.54142 -0.50218,0.28348 -1.96322,1.15488 -1.67289,1.92434 0.0505,0.13376 0.16587,0.27292 0.24842,0.38921 0.24871,0.35037 0.72322,0.58985 1.12564,0.71044 0.97384,0.29184 2.17255,0.44407 3.18653,0.37065 0.73174,-0.053 1.45342,-0.21848 2.18305,-0.2911 0.71058,-0.0707 2.3966,-0.30815 2.78539,-0.98549 0.32753,-0.57063 -0.55589,-1.63803 -1.03565,-1.91342 -0.15192,-0.0872 -0.37185,-0.19618 -0.46199,-0.29734 -0.0898,-0.10078 -0.38156,-0.11178 -0.53024,-0.19712 z"
       id="path837-0-0-4-9-8"
       inkscape:connector-curvature="0" />
    <path
       style="fill:url(#meshgradient3586);fill-opacity:1;stroke:#707070;stroke-width:0.88029164;stroke-linecap:butt;stroke-linejoin:miter;stroke-miterlimit:4;stroke-dasharray:none;stroke-opacity:1"
       d="m 155.53296,54.758896 c 1.00597,-3.5233 2.56561,-1.67051 4.98853,-2.71272 1.26186,-0.54279 3.23585,-2.36379 4.49978,-2.90746 0.9307,-0.40034 2.58342,1.14835 3.4306,1.19706 1.25236,0.072 11.09116,0.44699 11.13762,0.47366 1.45402,0.83458 2.9479,0.82802 3.5394,2.20315 1.05707,2.4574 0.93586,4.36606 -0.13946,5.32444 -0.79143,0.70538 -5.49325,0.33812 -6.54436,0.79024 -6.43032,2.76597 -7.24069,0.39057 -12.02913,-2.35794 -2.83726,-1.62856 -6.83644,1.07219 -8.88298,-2.01043 z"
       id="path829-5-9-22-4-0"
       inkscape:connector-curvature="0"
       sodipodi:nodetypes="cccsccsssc" />
    <path
       style="fill:#6a73bc;fill-opacity:1;stroke:#222241;stroke-width:0.23291048px;stroke-linecap:butt;stroke-linejoin:miter;stroke-opacity:1"
       d="m 174.27157,52.815826 c -1.09488,-0.44549 -2.48263,-0.3993 -3.65161,-0.25155 -0.70278,0.0888 -1.54576,0.18531 -2.17661,0.54142 -0.50218,0.28348 -1.96321,1.15488 -1.67288,1.92433 0.0505,0.13377 0.16587,0.27293 0.24842,0.38922 0.24871,0.35037 0.72321,0.58985 1.12563,0.71044 0.97383,0.29184 2.17254,0.44406 3.18651,0.37066 0.73174,-0.053 1.45341,-0.21849 2.18304,-0.2911 0.71057,-0.0707 2.39659,-0.30816 2.78537,-0.98551 0.32753,-0.57063 -0.55588,-1.63802 -1.03564,-1.9134 -0.15192,-0.0872 -0.37185,-0.19619 -0.46199,-0.29735 -0.0898,-0.10078 -0.38156,-0.11178 -0.53024,-0.19712 z"
       id="path837-0-0-4-9-6"
       inkscape:connector-curvature="0" />
    <path
       style="fill:url(#radialGradient3420);fill-opacity:1;stroke:#707070;stroke-width:0.88029164;stroke-linecap:butt;stroke-linejoin:miter;stroke-miterlimit:4;stroke-dasharray:none;stroke-opacity:1"
       d="m 64.515887,42.210056 c 1.00596,-3.52332 2.565593,-1.67052 4.988502,-2.71273 1.261862,-0.54279 3.235852,-2.36381 4.499782,-2.90748 0.930701,-0.40034 2.583421,1.14836 3.430601,1.19707 1.25236,0.072 11.091176,0.44699 11.137636,0.47366 1.45403,0.83459 2.94792,0.82803 3.53943,2.20316 1.05707,2.45743 0.93586,4.36609 -0.13947,5.32447 -0.79143,0.70538 -5.49328,0.33812 -6.54439,0.79024 -6.430328,2.76598 -7.240696,0.39057 -12.029139,-2.35793 -2.837259,-1.62859 -6.836429,1.07218 -8.882952,-2.01046 z"
       id="path829-5-9-22-4-03"
       inkscape:connector-curvature="0"
       sodipodi:nodetypes="cccsccsssc" />
    <path
       style="fill:#6a73bc;fill-opacity:1;stroke:#222241;stroke-width:0.23291048px;stroke-linecap:butt;stroke-linejoin:miter;stroke-opacity:1"
       d="m 83.25447,40.266976 c -1.09488,-0.44549 -2.48263,-0.3993 -3.651609,-0.25155 -0.702779,0.0888 -1.54576,0.18531 -2.176611,0.54142 -0.502179,0.28348 -1.963208,1.15489 -1.672878,1.92435 0.0505,0.13377 0.165869,0.27293 0.248419,0.38922 0.248711,0.35037 0.72321,0.58985 1.125631,0.71044 0.97383,0.29184 2.172538,0.44407 3.186509,0.37066 0.73174,-0.053 1.453409,-0.21849 2.18304,-0.2911 0.71057,-0.0707 2.396587,-0.30816 2.785367,-0.9855 0.32754,-0.57064 -0.55588,-1.63804 -1.035638,-1.91343 -0.151918,-0.0872 -0.371848,-0.19619 -0.461989,-0.29735 -0.0898,-0.10078 -0.381561,-0.11178 -0.530241,-0.19712 z"
       id="path837-0-0-4-9-4"
       inkscape:connector-curvature="0" />
    <path
       style="fill:url(#radialGradient3428);fill-opacity:1;stroke:#707070;stroke-width:0.88029164;stroke-linecap:butt;stroke-linejoin:miter;stroke-miterlimit:4;stroke-dasharray:none;stroke-opacity:1"
       d="m 103.97675,41.227346 c 1.00596,-3.52332 2.5656,-1.67052 4.98853,-2.71274 1.26186,-0.54279 3.23587,-2.3638 4.4998,-2.90748 0.93071,-0.40034 2.58344,1.14836 3.43062,1.19707 1.25237,0.072 11.09123,0.44699 11.13769,0.47366 1.45403,0.83459 2.94791,0.82803 3.53942,2.20317 1.05707,2.45742 0.93586,4.36608 -0.13946,5.32447 -0.79144,0.70538 -5.49328,0.33812 -6.5444,0.79024 -6.43036,2.76598 -7.24073,0.39057 -12.0292,-2.35794 -2.83728,-1.62858 -6.83647,1.07219 -8.883,-2.01045 z"
       id="path829-5-9-22-4-7"
       inkscape:connector-curvature="0"
       sodipodi:nodetypes="cccsccsssc" />
    <path
       style="fill:#6a73bc;fill-opacity:1;stroke:#222241;stroke-width:0.23291048px;stroke-linecap:butt;stroke-linejoin:miter;stroke-opacity:1"
       d="m 122.71544,39.284266 c -1.09489,-0.4455 -2.48265,-0.39931 -3.65163,-0.25155 -0.70279,0.0888 -1.54577,0.18531 -2.17663,0.54142 -0.50218,0.28348 -1.96322,1.15488 -1.67288,1.92435 0.0505,0.13376 0.16587,0.27292 0.24842,0.38921 0.24871,0.35037 0.72321,0.58985 1.12563,0.71044 0.97384,0.29185 2.17255,0.44408 3.18653,0.37067 0.73175,-0.053 1.45342,-0.21849 2.18305,-0.2911 0.71058,-0.0707 2.39661,-0.30817 2.78539,-0.98551 0.32753,-0.57063 -0.55588,-1.63804 -1.03565,-1.91342 -0.15192,-0.0872 -0.37185,-0.19619 -0.46199,-0.29735 -0.0898,-0.10078 -0.38156,-0.11178 -0.53024,-0.19712 z"
       id="path837-0-0-4-9-84"
       inkscape:connector-curvature="0" />
    <path
       style="fill:url(#radialGradient3436);fill-opacity:1;stroke:#707070;stroke-width:0.88029164;stroke-linecap:butt;stroke-linejoin:miter;stroke-miterlimit:4;stroke-dasharray:none;stroke-opacity:1"
       d="m 138.52396,42.512466 c 1.00596,-3.52331 2.5656,-1.67052 4.98852,-2.71273 1.26187,-0.54279 3.23587,-2.3638 4.49981,-2.90748 0.9307,-0.40034 2.58343,1.14836 3.43062,1.19707 1.25237,0.072 11.09121,0.44699 11.13767,0.47366 1.45402,0.83459 2.9479,0.82803 3.5394,2.20316 1.05707,2.45743 0.93586,4.36609 -0.13946,5.32447 -0.79143,0.70538 -5.49325,0.33812 -6.54437,0.79024 -6.43035,2.76598 -7.24073,0.39057 -12.02919,-2.35793 -2.83728,-1.62858 -6.83647,1.07218 -8.883,-2.01046 z"
       id="path829-5-9-22-4-8"
       inkscape:connector-curvature="0"
       sodipodi:nodetypes="cccsccsssc" />
    <path
       style="fill:#6a73bc;fill-opacity:1;stroke:#222241;stroke-width:0.23291048px;stroke-linecap:butt;stroke-linejoin:miter;stroke-opacity:1"
       d="m 157.26264,40.569386 c -1.09488,-0.44549 -2.48264,-0.3993 -3.65163,-0.25155 -0.70278,0.0888 -1.54577,0.18531 -2.17662,0.54142 -0.50218,0.28349 -1.96322,1.15489 -1.67289,1.92436 0.0505,0.13376 0.16587,0.27292 0.24842,0.38921 0.24871,0.35037 0.72322,0.58985 1.12564,0.71044 0.97383,0.29184 2.17255,0.44408 3.18652,0.37067 0.73175,-0.053 1.45342,-0.2185 2.18306,-0.29111 0.71057,-0.0707 2.3966,-0.30816 2.78538,-0.9855 0.32753,-0.57064 -0.55588,-1.63804 -1.03564,-1.91342 -0.15192,-0.0872 -0.37185,-0.1962 -0.46199,-0.29736 -0.0898,-0.10078 -0.38157,-0.11178 -0.53025,-0.19712 z"
       id="path837-0-0-4-9-2"
       inkscape:connector-curvature="0" />
    <path
       style="fill:url(#radialGradient3444);fill-opacity:1;stroke:#707070;stroke-width:0.88029164;stroke-linecap:butt;stroke-linejoin:miter;stroke-miterlimit:4;stroke-dasharray:none;stroke-opacity:1"
       d="m 47.809327,56.951156 c 1.005962,-3.5233 2.565592,-1.67051 4.988505,-2.71272 1.261859,-0.54279 3.23585,-2.36379 4.499781,-2.90746 0.930702,-0.40034 2.583423,1.14835 3.430603,1.19706 1.252361,0.072 11.091164,0.44699 11.137625,0.47366 1.45402,0.83458 2.9479,0.82802 3.5394,2.20315 1.057068,2.45741 0.93586,4.36606 -0.139462,5.32444 -0.79143,0.70537 -5.493248,0.33811 -6.544358,0.79023 -6.430323,2.76599 -7.240694,0.39057 -12.029137,-2.35792 -2.837264,-1.62857 -6.836435,1.07218 -8.882957,-2.01044 z"
       id="path829-5-9-22-4-3"
       inkscape:connector-curvature="0"
       sodipodi:nodetypes="cccsccsssc" />
    <path
       style="fill:#6a73bc;fill-opacity:1;stroke:#222241;stroke-width:0.23291048px;stroke-linecap:butt;stroke-linejoin:miter;stroke-opacity:1"
       d="m 66.547921,55.008086 c -1.094881,-0.44549 -2.482632,-0.3993 -3.651613,-0.25155 -0.702781,0.0888 -1.545762,0.18531 -2.176611,0.54141 -0.502182,0.28348 -1.963212,1.15488 -1.672882,1.92435 0.0505,0.13376 0.165869,0.27292 0.248419,0.38921 0.248711,0.35036 0.723211,0.58984 1.125632,0.71044 0.973831,0.29183 2.172542,0.44407 3.186511,0.37066 0.731742,-0.053 1.453413,-0.21849 2.183041,-0.2911 0.710571,-0.0707 2.396592,-0.30816 2.785373,-0.9855 0.327531,-0.57063 -0.555882,-1.63803 -1.03564,-1.91341 -0.151921,-0.0872 -0.371851,-0.19619 -0.461992,-0.29736 -0.0898,-0.10078 -0.381558,-0.11177 -0.530238,-0.19712 z"
       id="path837-0-0-4-9-80"
       inkscape:connector-curvature="0" />
    <path
       style="fill:url(#radialGradient3452);fill-opacity:1;stroke:#707070;stroke-width:0.88029164;stroke-linecap:butt;stroke-linejoin:miter;stroke-miterlimit:4;stroke-dasharray:none;stroke-opacity:1"
       d="m 84.397433,57.026756 c 1.005965,-3.5233 2.565595,-1.67051 4.988525,-2.71272 1.26187,-0.54279 3.23587,-2.36379 4.49979,-2.90746 0.93072,-0.40034 2.58344,1.14835 3.43062,1.19706 1.25237,0.072 11.091222,0.44699 11.137692,0.47366 1.45402,0.83458 2.94791,0.82802 3.53941,2.20314 1.05707,2.45741 0.93587,4.36607 -0.13947,5.32445 -0.79143,0.70538 -5.49327,0.33812 -6.54438,0.79024 -6.430362,2.76597 -7.240732,0.39057 -12.029202,-2.35794 -2.83726,-1.62856 -6.83646,1.07219 -8.882985,-2.01043 z"
       id="path829-5-9-22-4-4"
       inkscape:connector-curvature="0"
       sodipodi:nodetypes="cccsccsssc" />
    <path
       style="fill:#6a73bc;fill-opacity:1;stroke:#222241;stroke-width:0.23291048px;stroke-linecap:butt;stroke-linejoin:miter;stroke-opacity:1"
       d="m 103.1361,55.083676 c -1.09488,-0.44548 -2.48264,-0.39929 -3.651632,-0.25155 -0.70278,0.0888 -1.54577,0.18532 -2.17662,0.54143 -0.50218,0.28348 -1.96321,1.15488 -1.67288,1.92434 0.0505,0.13376 0.16587,0.27292 0.24842,0.38921 0.2487,0.35037 0.72321,0.58985 1.12563,0.71044 0.97384,0.29184 2.17255,0.44406 3.186532,0.37066 0.73174,-0.053 1.45341,-0.21849 2.18305,-0.2911 0.71057,-0.0707 2.3966,-0.30816 2.78539,-0.98551 0.32753,-0.57062 -0.55589,-1.63803 -1.03565,-1.9134 -0.15192,-0.0872 -0.37185,-0.1962 -0.46199,-0.29735 -0.0898,-0.10078 -0.38157,-0.11178 -0.53025,-0.19712 z"
       id="path837-0-0-4-9-1"
       inkscape:connector-curvature="0" />
  </g>
</svg>
