<?xml version="1.0" encoding="UTF-8" standalone="no"?>
<svg
   xmlns:dc="http://purl.org/dc/elements/1.1/"
   xmlns:cc="http://creativecommons.org/ns#"
   xmlns:rdf="http://www.w3.org/1999/02/22-rdf-syntax-ns#"
   xmlns:svg="http://www.w3.org/2000/svg"
   xmlns="http://www.w3.org/2000/svg"
   xmlns:sodipodi="http://sodipodi.sourceforge.net/DTD/sodipodi-0.dtd"
   xmlns:inkscape="http://www.inkscape.org/namespaces/inkscape"
   width="210mm"
   height="297mm"
   viewBox="0 0 210 297"
   version="1.1"
   id="svg498"
   inkscape:version="1.0.2-2 (e86c870879, 2021-01-15)"
   sodipodi:docname="SUPPLEMENTARY_FIGURE2_A4.svg">
  <defs
     id="defs492">
    <clipPath
       clipPathUnits="userSpaceOnUse"
       id="clipPath524">
      <path
         d="M 35.574,22.398 H 264.308 V 472.511 H 35.574 Z"
         id="path522" />
    </clipPath>
    <clipPath
       clipPathUnits="userSpaceOnUse"
       id="clipPath534">
      <path
         d="M 0,0 H 504 V 504 H 0 Z"
         id="path532" />
    </clipPath>
    <clipPath
       clipPathUnits="userSpaceOnUse"
       id="clipPath590">
      <path
         d="M 269.785,22.398 H 498.519 V 472.511 H 269.785 Z"
         id="path588" />
    </clipPath>
    <clipPath
       clipPathUnits="userSpaceOnUse"
       id="clipPath600">
      <path
         d="M 0,0 H 504 V 504 H 0 Z"
         id="path598" />
    </clipPath>
    <clipPath
       clipPathUnits="userSpaceOnUse"
       id="clipPath664">
      <path
         d="M 35.574,5.48 H 264.308 V 22.398 H 35.574 Z"
         id="path662" />
    </clipPath>
    <clipPath
       clipPathUnits="userSpaceOnUse"
       id="clipPath674">
      <path
         d="M 0,0 H 504 V 504 H 0 Z"
         id="path672" />
    </clipPath>
    <clipPath
       clipPathUnits="userSpaceOnUse"
       id="clipPath714">
      <path
         d="M 269.785,5.48 H 498.519 V 22.398 H 269.785 Z"
         id="path712" />
    </clipPath>
    <clipPath
       clipPathUnits="userSpaceOnUse"
       id="clipPath724">
      <path
         d="M 0,0 H 504 V 504 H 0 Z"
         id="path722" />
    </clipPath>
  </defs>
  <sodipodi:namedview
     id="base"
     pagecolor="#ffffff"
     bordercolor="#666666"
     borderopacity="1.0"
     inkscape:pageopacity="0.0"
     inkscape:pageshadow="2"
     inkscape:zoom="0.85127483"
     inkscape:cx="392.14105"
     inkscape:cy="864.81847"
     inkscape:document-units="mm"
     inkscape:current-layer="g760"
     inkscape:document-rotation="0"
     showgrid="false"
     inkscape:window-width="958"
     inkscape:window-height="1008"
     inkscape:window-x="-7"
     inkscape:window-y="0"
     inkscape:window-maximized="0" />
  <metadata
     id="metadata495">
    <rdf:RDF>
      <cc:Work
         rdf:about="">
        <dc:format>image/svg+xml</dc:format>
        <dc:type
           rdf:resource="http://purl.org/dc/dcmitype/StillImage" />
        <dc:title></dc:title>
      </cc:Work>
    </rdf:RDF>
  </metadata>
  <g
     inkscape:label="Слой 1"
     inkscape:groupmode="layer"
     id="layer1">
    <g
       id="g508"
       inkscape:label="Supplements_Fig3"
       transform="matrix(0.35277777,0,0,0.35277777,16.177384,24.492856)">
      <g
         id="g510">
        <path
           d="M 0,0 H 504 V 504 H 0 Z"
           style="fill:#ffffff;fill-opacity:1;fill-rule:nonzero;stroke:none"
           id="path512" />
        <g
           id="g514">
          <path
             d="M 0,0 H 504 V 504 H 0 Z"
             style="fill:none;stroke:#ffffff;stroke-width:1.06698;stroke-linecap:round;stroke-linejoin:round;stroke-miterlimit:10;stroke-dasharray:none;stroke-opacity:1"
             id="path516" />
        </g>
      </g>
      <g
         id="g518">
        <g
           id="g520"
           clip-path="url(#clipPath524)">
          <g
             id="g526">
            <g
               id="g528">
              <g
                 id="g530"
                 clip-path="url(#clipPath534)">
                <g
                   id="g536">
                  <path
                     d="M 35.574,22.395 H 264.308 V 472.508 H 35.574 Z"
                     style="fill:#ffffff;fill-opacity:1;fill-rule:nonzero;stroke:none"
                     id="path538" />
                  <g
                     id="g540">
                    <path
                       d="m 99.91,452.051 c 0,2.605 -3.91,2.605 -3.91,0 0,-2.61 3.91,-2.61 3.91,0"
                       style="fill:#333333;fill-opacity:1;fill-rule:nonzero;stroke:#333333;stroke-width:0.708661;stroke-linecap:round;stroke-linejoin:round;stroke-miterlimit:10;stroke-dasharray:none;stroke-opacity:1"
                       id="path542" />
                  </g>
                  <g
                     id="g544">
                    <path
                       d="m 99.91,429.355 c 0,2.61 -3.91,2.61 -3.91,0 0,-2.605 3.91,-2.605 3.91,0"
                       style="fill:#333333;fill-opacity:1;fill-rule:nonzero;stroke:#333333;stroke-width:0.708661;stroke-linecap:round;stroke-linejoin:round;stroke-miterlimit:10;stroke-dasharray:none;stroke-opacity:1"
                       id="path546" />
                  </g>
                  <g
                     id="g548">
                    <path
                       d="M 97.953,218.879 V 126.672"
                       style="fill:none;stroke:#333333;stroke-width:1.06698;stroke-linecap:butt;stroke-linejoin:round;stroke-miterlimit:10;stroke-dasharray:none;stroke-opacity:1"
                       id="path550" />
                  </g>
                  <g
                     id="g552">
                    <path
                       d="M 97.953,289.586 V 392.164"
                       style="fill:none;stroke:#333333;stroke-width:1.06698;stroke-linecap:butt;stroke-linejoin:round;stroke-miterlimit:10;stroke-dasharray:none;stroke-opacity:1"
                       id="path554" />
                  </g>
                  <g
                     id="g556">
                    <path
                       d="m 58.965,218.879 h 77.98 v 70.707 h -77.98 z"
                       style="fill:#ffffff;fill-opacity:1;fill-rule:nonzero;stroke:#333333;stroke-width:1.06698;stroke-linecap:round;stroke-linejoin:round;stroke-miterlimit:10;stroke-dasharray:none;stroke-opacity:1"
                       id="path558" />
                  </g>
                  <g
                     id="g560">
                    <path
                       d="m 58.965,248.441 h 77.98"
                       style="fill:none;stroke:#333333;stroke-width:2.13396;stroke-linecap:butt;stroke-linejoin:round;stroke-miterlimit:10;stroke-dasharray:none;stroke-opacity:1"
                       id="path562" />
                  </g>
                  <g
                     id="g564">
                    <path
                       d="M 201.926,173.449 V 80.359"
                       style="fill:none;stroke:#333333;stroke-width:1.06698;stroke-linecap:butt;stroke-linejoin:round;stroke-miterlimit:10;stroke-dasharray:none;stroke-opacity:1"
                       id="path566" />
                  </g>
                  <g
                     id="g568">
                    <path
                       d="m 201.926,242.512 v 53.84"
                       style="fill:none;stroke:#333333;stroke-width:1.06698;stroke-linecap:butt;stroke-linejoin:round;stroke-miterlimit:10;stroke-dasharray:none;stroke-opacity:1"
                       id="path570" />
                  </g>
                  <g
                     id="g572">
                    <path
                       d="m 162.938,173.449 h 77.977 v 69.063 h -77.977 z"
                       style="fill:#ffffff;fill-opacity:1;fill-rule:nonzero;stroke:#333333;stroke-width:1.06698;stroke-linecap:round;stroke-linejoin:round;stroke-miterlimit:10;stroke-dasharray:none;stroke-opacity:1"
                       id="path574" />
                  </g>
                  <g
                     id="g576">
                    <path
                       d="m 162.938,216.383 h 77.976"
                       style="fill:none;stroke:#333333;stroke-width:2.13396;stroke-linecap:butt;stroke-linejoin:round;stroke-miterlimit:10;stroke-dasharray:none;stroke-opacity:1"
                       id="path578" />
                  </g>
                  <g
                     id="g580">
                    <path
                       d="M 35.574,22.395 H 264.308 V 472.508 H 35.574 Z"
                       style="fill:none;stroke:#333333;stroke-width:1.06698;stroke-linecap:round;stroke-linejoin:round;stroke-miterlimit:10;stroke-dasharray:none;stroke-opacity:1"
                       id="path582" />
                  </g>
                </g>
              </g>
            </g>
          </g>
        </g>
      </g>
      <g
         id="g584">
        <g
           id="g586"
           clip-path="url(#clipPath590)">
          <g
             id="g592">
            <g
               id="g594">
              <g
                 id="g596"
                 clip-path="url(#clipPath600)">
                <g
                   id="g602">
                  <path
                     d="M 269.785,22.395 H 498.519 V 472.508 H 269.785 Z"
                     style="fill:#ffffff;fill-opacity:1;fill-rule:nonzero;stroke:none"
                     id="path604" />
                  <g
                     id="g606">
                    <path
                       d="M 332.168,225.797 V 113.488"
                       style="fill:none;stroke:#333333;stroke-width:1.06698;stroke-linecap:butt;stroke-linejoin:round;stroke-miterlimit:10;stroke-dasharray:none;stroke-opacity:1"
                       id="path608" />
                  </g>
                  <g
                     id="g610">
                    <path
                       d="M 332.168,333.684 V 449.367"
                       style="fill:none;stroke:#333333;stroke-width:1.06698;stroke-linecap:butt;stroke-linejoin:round;stroke-miterlimit:10;stroke-dasharray:none;stroke-opacity:1"
                       id="path612" />
                  </g>
                  <g
                     id="g614">
                    <path
                       d="m 293.18,225.797 h 77.977 V 333.684 H 293.18 Z"
                       style="fill:#ffffff;fill-opacity:1;fill-rule:nonzero;stroke:#333333;stroke-width:1.06698;stroke-linecap:round;stroke-linejoin:round;stroke-miterlimit:10;stroke-dasharray:none;stroke-opacity:1"
                       id="path616" />
                  </g>
                  <g
                     id="g618">
                    <path
                       d="m 293.18,288.508 h 77.976"
                       style="fill:none;stroke:#333333;stroke-width:2.13396;stroke-linecap:butt;stroke-linejoin:round;stroke-miterlimit:10;stroke-dasharray:none;stroke-opacity:1"
                       id="path620" />
                  </g>
                  <g
                     id="g622">
                    <path
                       d="m 438.094,42.855 c 0,2.61 -3.91,2.61 -3.91,0 0,-2.605 3.91,-2.605 3.91,0"
                       style="fill:#333333;fill-opacity:1;fill-rule:nonzero;stroke:#333333;stroke-width:0.708661;stroke-linecap:round;stroke-linejoin:round;stroke-miterlimit:10;stroke-dasharray:none;stroke-opacity:1"
                       id="path624" />
                  </g>
                  <g
                     id="g626">
                    <path
                       d="m 438.094,390.008 c 0,2.609 -3.91,2.609 -3.91,0 0,-2.606 3.91,-2.606 3.91,0"
                       style="fill:#333333;fill-opacity:1;fill-rule:nonzero;stroke:#333333;stroke-width:0.708661;stroke-linecap:round;stroke-linejoin:round;stroke-miterlimit:10;stroke-dasharray:none;stroke-opacity:1"
                       id="path628" />
                  </g>
                  <g
                     id="g630">
                    <path
                       d="m 438.094,370.199 c 0,2.606 -3.91,2.606 -3.91,0 0,-2.605 3.91,-2.605 3.91,0"
                       style="fill:#333333;fill-opacity:1;fill-rule:nonzero;stroke:#333333;stroke-width:0.708661;stroke-linecap:round;stroke-linejoin:round;stroke-miterlimit:10;stroke-dasharray:none;stroke-opacity:1"
                       id="path632" />
                  </g>
                  <g
                     id="g634">
                    <path
                       d="m 438.094,411.598 c 0,2.609 -3.91,2.609 -3.91,0 0,-2.606 3.91,-2.606 3.91,0"
                       style="fill:#333333;fill-opacity:1;fill-rule:nonzero;stroke:#333333;stroke-width:0.708661;stroke-linecap:round;stroke-linejoin:round;stroke-miterlimit:10;stroke-dasharray:none;stroke-opacity:1"
                       id="path636" />
                  </g>
                  <g
                     id="g638">
                    <path
                       d="M 436.137,191.133 V 108.867"
                       style="fill:none;stroke:#333333;stroke-width:1.06698;stroke-linecap:butt;stroke-linejoin:round;stroke-miterlimit:10;stroke-dasharray:none;stroke-opacity:1"
                       id="path640" />
                  </g>
                  <g
                     id="g642">
                    <path
                       d="m 436.137,258.332 v 48.875"
                       style="fill:none;stroke:#333333;stroke-width:1.06698;stroke-linecap:butt;stroke-linejoin:round;stroke-miterlimit:10;stroke-dasharray:none;stroke-opacity:1"
                       id="path644" />
                  </g>
                  <g
                     id="g646">
                    <path
                       d="m 397.148,191.133 h 77.98 v 67.199 h -77.98 z"
                       style="fill:#ffffff;fill-opacity:1;fill-rule:nonzero;stroke:#333333;stroke-width:1.06698;stroke-linecap:round;stroke-linejoin:round;stroke-miterlimit:10;stroke-dasharray:none;stroke-opacity:1"
                       id="path648" />
                  </g>
                  <g
                     id="g650">
                    <path
                       d="m 397.148,223.039 h 77.981"
                       style="fill:none;stroke:#333333;stroke-width:2.13396;stroke-linecap:butt;stroke-linejoin:round;stroke-miterlimit:10;stroke-dasharray:none;stroke-opacity:1"
                       id="path652" />
                  </g>
                  <g
                     id="g654">
                    <path
                       d="M 269.785,22.395 H 498.519 V 472.508 H 269.785 Z"
                       style="fill:none;stroke:#333333;stroke-width:1.06698;stroke-linecap:round;stroke-linejoin:round;stroke-miterlimit:10;stroke-dasharray:none;stroke-opacity:1"
                       id="path656" />
                  </g>
                </g>
              </g>
            </g>
          </g>
        </g>
      </g>
      <g
         id="g658">
        <g
           id="g660"
           clip-path="url(#clipPath664)">
          <g
             id="g666">
            <g
               id="g668">
              <g
                 id="g670"
                 clip-path="url(#clipPath674)">
                <g
                   id="g676">
                  <g
                     id="g678">
                    <path
                       d="M 35.574,5.48 H 264.308 V 22.398 H 35.574 Z"
                       style="fill:#d9d9d9;fill-opacity:1;fill-rule:nonzero;stroke:#333333;stroke-width:1.06698;stroke-linecap:round;stroke-linejoin:round;stroke-miterlimit:10;stroke-dasharray:none;stroke-opacity:1"
                       id="path680" />
                  </g>
                  <path
                     d="m 119.766,17.09 v -6.301 h 0.832 v 5.559 h 3.105 v 0.742 z"
                     style="fill:#191919;fill-opacity:1;fill-rule:nonzero;stroke:none"
                     id="path682" />
                  <path
                     d="m 124.309,14.809 c 0,-0.844 0.234,-1.473 0.703,-1.879 0.39,-0.336 0.867,-0.504 1.437,-0.508 0.625,0.004 1.137,0.211 1.535,0.617 0.395,0.414 0.594,0.981 0.598,1.703 -0.004,0.59 -0.09,1.051 -0.266,1.387 -0.175,0.336 -0.433,0.598 -0.765,0.785 -0.34,0.184 -0.707,0.274 -1.102,0.277 -0.644,-0.003 -1.16,-0.203 -1.551,-0.613 -0.394,-0.406 -0.589,-0.996 -0.589,-1.769 z m 0.793,0 c -0.004,0.586 0.125,1.023 0.382,1.312 0.254,0.297 0.575,0.442 0.965,0.438 0.379,0.004 0.699,-0.141 0.957,-0.438 0.254,-0.289 0.383,-0.738 0.383,-1.34 0,-0.562 -0.129,-0.988 -0.387,-1.281 -0.257,-0.289 -0.578,-0.434 -0.953,-0.437 -0.39,0.003 -0.711,0.148 -0.965,0.433 -0.257,0.293 -0.386,0.731 -0.382,1.313 z"
                     style="fill:#191919;fill-opacity:1;fill-rule:nonzero;stroke:none"
                     id="path684" />
                  <path
                     d="m 129.488,17.09 v -4.563 h 0.7 v 0.649 c 0.332,-0.5 0.812,-0.75 1.449,-0.754 0.273,0.004 0.527,0.055 0.758,0.148 0.23,0.102 0.402,0.231 0.519,0.391 0.109,0.16 0.191,0.352 0.242,0.57 0.028,0.149 0.043,0.399 0.043,0.754 v 2.805 h -0.773 v -2.777 c 0,-0.313 -0.031,-0.547 -0.09,-0.708 -0.063,-0.152 -0.168,-0.277 -0.32,-0.371 -0.157,-0.093 -0.336,-0.14 -0.539,-0.14 -0.332,0 -0.618,0.105 -0.856,0.316 -0.242,0.211 -0.363,0.61 -0.359,1.188 v 2.492 z"
                     style="fill:#191919;fill-opacity:1;fill-rule:nonzero;stroke:none"
                     id="path686" />
                  <path
                     d="m 134.242,17.469 0.754,0.109 c 0.027,0.231 0.117,0.402 0.262,0.508 0.191,0.141 0.453,0.211 0.785,0.215 0.359,-0.004 0.633,-0.074 0.828,-0.215 0.192,-0.145 0.324,-0.348 0.399,-0.602 0.035,-0.16 0.054,-0.488 0.054,-0.992 -0.34,0.399 -0.761,0.598 -1.261,0.598 -0.633,0 -1.118,-0.227 -1.458,-0.68 -0.347,-0.453 -0.519,-0.996 -0.515,-1.629 -0.004,-0.433 0.074,-0.832 0.234,-1.203 0.156,-0.367 0.387,-0.652 0.688,-0.855 0.297,-0.196 0.648,-0.297 1.054,-0.301 0.536,0.004 0.977,0.223 1.332,0.656 v -0.551 h 0.711 v 3.946 c -0.004,0.711 -0.078,1.211 -0.218,1.507 -0.149,0.297 -0.375,0.532 -0.688,0.704 -0.312,0.171 -0.699,0.257 -1.156,0.257 -0.547,0 -0.988,-0.125 -1.32,-0.367 -0.336,-0.25 -0.497,-0.617 -0.485,-1.105 z m 0.641,-2.742 c 0,0.601 0.117,1.039 0.355,1.312 0.239,0.277 0.535,0.414 0.895,0.41 0.351,0.004 0.652,-0.133 0.894,-0.41 0.239,-0.269 0.356,-0.699 0.36,-1.285 -0.004,-0.559 -0.125,-0.981 -0.371,-1.266 -0.25,-0.281 -0.551,-0.422 -0.895,-0.425 -0.348,0.003 -0.641,0.144 -0.879,0.421 -0.242,0.282 -0.359,0.696 -0.359,1.243 z"
                     style="fill:#191919;fill-opacity:1;fill-rule:nonzero;stroke:none"
                     id="path688" />
                  <path
                     d="m 141.797,17.09 v -6.301 h 1.254 l 1.492,4.461 c 0.133,0.418 0.234,0.73 0.301,0.934 0.066,-0.227 0.183,-0.563 0.332,-1.012 l 1.512,-4.383 h 1.121 v 6.301 h -0.805 v -5.274 l -1.828,5.274 h -0.754 l -1.824,-5.363 v 5.363 z"
                     style="fill:#191919;fill-opacity:1;fill-rule:nonzero;stroke:none"
                     id="path690" />
                  <path
                     d="m 152.031,16.527 c -0.289,0.243 -0.562,0.414 -0.828,0.516 -0.265,0.098 -0.551,0.145 -0.851,0.148 -0.504,-0.003 -0.891,-0.121 -1.161,-0.367 -0.269,-0.242 -0.402,-0.554 -0.402,-0.937 0,-0.219 0.051,-0.426 0.152,-0.614 0.102,-0.183 0.235,-0.332 0.403,-0.445 0.16,-0.109 0.344,-0.191 0.554,-0.254 0.149,-0.035 0.379,-0.074 0.688,-0.113 0.621,-0.074 1.082,-0.164 1.379,-0.266 0,-0.105 0,-0.172 0.004,-0.203 -0.004,-0.312 -0.078,-0.535 -0.219,-0.668 -0.203,-0.172 -0.496,-0.258 -0.879,-0.261 -0.367,0.003 -0.637,0.066 -0.808,0.191 -0.176,0.129 -0.301,0.355 -0.383,0.676 l -0.754,-0.102 c 0.062,-0.32 0.176,-0.582 0.336,-0.781 0.156,-0.199 0.383,-0.352 0.683,-0.461 0.297,-0.106 0.645,-0.16 1.035,-0.164 0.391,0.004 0.708,0.051 0.95,0.141 0.242,0.093 0.422,0.207 0.539,0.343 0.113,0.141 0.191,0.317 0.242,0.528 0.019,0.132 0.031,0.371 0.035,0.711 v 1.031 c -0.004,0.722 0.016,1.179 0.051,1.367 0.031,0.195 0.094,0.375 0.195,0.547 h -0.808 c -0.082,-0.16 -0.133,-0.348 -0.153,-0.563 z m -0.066,-1.726 c -0.281,0.117 -0.703,0.215 -1.262,0.289 -0.32,0.051 -0.547,0.101 -0.676,0.156 -0.132,0.059 -0.234,0.145 -0.304,0.254 -0.075,0.113 -0.11,0.234 -0.106,0.363 -0.004,0.211 0.074,0.383 0.235,0.52 0.152,0.137 0.382,0.203 0.683,0.203 0.297,0 0.559,-0.063 0.793,-0.195 0.231,-0.125 0.402,-0.305 0.512,-0.536 0.082,-0.171 0.125,-0.429 0.125,-0.773 z"
                     style="fill:#191919;fill-opacity:1;fill-rule:nonzero;stroke:none"
                     id="path692" />
                  <path
                     d="m 155.637,16.398 0.109,0.684 c -0.219,0.047 -0.414,0.066 -0.582,0.066 -0.285,0 -0.504,-0.043 -0.656,-0.132 -0.156,-0.086 -0.266,-0.203 -0.324,-0.348 -0.067,-0.145 -0.098,-0.449 -0.094,-0.914 v -2.625 h -0.567 v -0.602 h 0.567 v -1.132 l 0.769,-0.461 v 1.593 h 0.778 v 0.602 h -0.778 v 2.668 c -0.004,0.223 0.008,0.363 0.039,0.426 0.024,0.062 0.071,0.113 0.133,0.152 0.063,0.039 0.149,0.059 0.266,0.055 0.082,0.004 0.195,-0.008 0.34,-0.032 z"
                     style="fill:#191919;fill-opacity:1;fill-rule:nonzero;stroke:none"
                     id="path694" />
                  <path
                     d="m 159.383,17.09 v -0.672 c -0.36,0.516 -0.84,0.77 -1.449,0.773 -0.27,-0.003 -0.524,-0.05 -0.754,-0.152 -0.235,-0.101 -0.407,-0.23 -0.52,-0.391 -0.113,-0.152 -0.191,-0.343 -0.238,-0.574 -0.031,-0.148 -0.047,-0.39 -0.047,-0.719 v -2.828 h 0.773 v 2.532 c 0,0.406 0.016,0.679 0.047,0.816 0.047,0.207 0.149,0.367 0.309,0.48 0.156,0.118 0.351,0.172 0.586,0.172 0.23,0 0.449,-0.058 0.652,-0.175 0.203,-0.118 0.344,-0.278 0.43,-0.489 0.082,-0.203 0.125,-0.5 0.129,-0.89 v -2.446 h 0.773 v 4.563 z"
                     style="fill:#191919;fill-opacity:1;fill-rule:nonzero;stroke:none"
                     id="path696" />
                  <path
                     d="m 161.277,17.09 v -4.563 h 0.696 v 0.692 c 0.179,-0.321 0.343,-0.535 0.492,-0.641 0.148,-0.101 0.312,-0.152 0.5,-0.156 0.258,0.004 0.523,0.086 0.793,0.25 l -0.266,0.719 c -0.195,-0.11 -0.383,-0.168 -0.566,-0.168 -0.172,0 -0.324,0.05 -0.457,0.152 -0.137,0.102 -0.235,0.242 -0.289,0.422 -0.09,0.277 -0.133,0.578 -0.129,0.902 v 2.391 z"
                     style="fill:#191919;fill-opacity:1;fill-rule:nonzero;stroke:none"
                     id="path698" />
                  <path
                     d="m 167.195,16.527 c -0.289,0.243 -0.562,0.414 -0.828,0.516 -0.265,0.098 -0.551,0.145 -0.851,0.148 -0.504,-0.003 -0.891,-0.121 -1.161,-0.367 -0.269,-0.242 -0.402,-0.554 -0.402,-0.937 0,-0.219 0.051,-0.426 0.152,-0.614 0.102,-0.183 0.235,-0.332 0.403,-0.445 0.16,-0.109 0.344,-0.191 0.555,-0.254 0.148,-0.035 0.378,-0.074 0.687,-0.113 0.621,-0.074 1.082,-0.164 1.379,-0.266 0,-0.105 0,-0.172 0.004,-0.203 -0.004,-0.312 -0.078,-0.535 -0.219,-0.668 -0.203,-0.172 -0.496,-0.258 -0.879,-0.261 -0.367,0.003 -0.637,0.066 -0.808,0.191 -0.176,0.129 -0.301,0.355 -0.383,0.676 l -0.754,-0.102 c 0.062,-0.32 0.176,-0.582 0.336,-0.781 0.156,-0.199 0.383,-0.352 0.683,-0.461 0.297,-0.106 0.645,-0.16 1.036,-0.164 0.39,0.004 0.707,0.051 0.949,0.141 0.242,0.093 0.422,0.207 0.539,0.343 0.113,0.141 0.191,0.317 0.242,0.528 0.02,0.132 0.031,0.371 0.035,0.711 v 1.031 c -0.004,0.722 0.016,1.179 0.051,1.367 0.031,0.195 0.094,0.375 0.195,0.547 h -0.808 c -0.082,-0.16 -0.133,-0.348 -0.153,-0.563 z m -0.066,-1.726 c -0.281,0.117 -0.703,0.215 -1.262,0.289 -0.32,0.051 -0.547,0.101 -0.676,0.156 -0.132,0.059 -0.234,0.145 -0.304,0.254 -0.074,0.113 -0.11,0.234 -0.106,0.363 -0.004,0.211 0.074,0.383 0.235,0.52 0.152,0.137 0.382,0.203 0.683,0.203 0.297,0 0.559,-0.063 0.793,-0.195 0.231,-0.125 0.403,-0.305 0.512,-0.536 0.082,-0.171 0.125,-0.429 0.125,-0.773 z"
                     style="fill:#191919;fill-opacity:1;fill-rule:nonzero;stroke:none"
                     id="path700" />
                  <path
                     d="m 170.801,16.398 0.109,0.684 c -0.219,0.047 -0.414,0.066 -0.582,0.066 -0.285,0 -0.504,-0.043 -0.656,-0.132 -0.156,-0.086 -0.266,-0.203 -0.324,-0.348 -0.067,-0.145 -0.098,-0.449 -0.094,-0.914 v -2.625 h -0.566 v -0.602 h 0.566 v -1.132 l 0.769,-0.461 v 1.593 h 0.778 v 0.602 h -0.778 v 2.668 c -0.003,0.223 0.008,0.363 0.04,0.426 0.023,0.062 0.07,0.113 0.132,0.152 0.063,0.039 0.149,0.059 0.266,0.055 0.082,0.004 0.195,-0.008 0.34,-0.032 z"
                     style="fill:#191919;fill-opacity:1;fill-rule:nonzero;stroke:none"
                     id="path702" />
                  <path
                     d="m 174.68,15.621 0.8,0.098 c -0.128,0.469 -0.363,0.832 -0.703,1.086 -0.339,0.258 -0.773,0.383 -1.304,0.386 -0.668,-0.003 -1.2,-0.203 -1.59,-0.613 -0.395,-0.406 -0.59,-0.984 -0.586,-1.73 -0.004,-0.766 0.195,-1.364 0.594,-1.789 0.394,-0.422 0.906,-0.633 1.539,-0.637 0.605,0.004 1.101,0.211 1.492,0.625 0.383,0.414 0.578,1 0.582,1.754 -0.004,0.047 -0.004,0.113 -0.004,0.203 h -3.402 c 0.023,0.504 0.168,0.891 0.425,1.156 0.254,0.27 0.571,0.403 0.954,0.399 0.281,0.004 0.523,-0.071 0.726,-0.223 0.199,-0.148 0.36,-0.387 0.477,-0.715 z m -2.539,-1.25 h 2.547 c -0.04,-0.383 -0.133,-0.668 -0.29,-0.863 -0.25,-0.297 -0.57,-0.449 -0.96,-0.449 -0.356,0 -0.657,0.121 -0.895,0.359 -0.246,0.238 -0.379,0.555 -0.402,0.953 z"
                     style="fill:#191919;fill-opacity:1;fill-rule:nonzero;stroke:none"
                     id="path704" />
                  <path
                     d="m 179.41,17.09 v -0.574 c -0.289,0.449 -0.715,0.672 -1.273,0.675 -0.367,-0.003 -0.703,-0.101 -1.004,-0.3 -0.309,-0.2 -0.543,-0.477 -0.711,-0.84 -0.168,-0.356 -0.254,-0.77 -0.25,-1.238 -0.004,-0.454 0.074,-0.868 0.226,-1.239 0.153,-0.371 0.379,-0.656 0.684,-0.855 0.301,-0.196 0.641,-0.293 1.02,-0.297 0.269,0.004 0.515,0.062 0.734,0.176 0.215,0.117 0.387,0.269 0.523,0.453 v -2.262 h 0.77 v 6.301 z m -2.445,-2.277 c -0.004,0.585 0.121,1.023 0.371,1.312 0.246,0.293 0.535,0.438 0.871,0.434 0.336,0.004 0.625,-0.133 0.863,-0.414 0.235,-0.274 0.352,-0.696 0.356,-1.266 -0.004,-0.621 -0.125,-1.082 -0.363,-1.375 -0.243,-0.293 -0.54,-0.438 -0.887,-0.441 -0.348,0.003 -0.633,0.144 -0.863,0.421 -0.235,0.286 -0.352,0.727 -0.348,1.329 z"
                     style="fill:#191919;fill-opacity:1;fill-rule:nonzero;stroke:none"
                     id="path706" />
                </g>
              </g>
            </g>
          </g>
        </g>
      </g>
      <g
         id="g708">
        <g
           id="g710"
           clip-path="url(#clipPath714)">
          <g
             id="g716">
            <g
               id="g718">
              <g
                 id="g720"
                 clip-path="url(#clipPath724)">
                <g
                   id="g726">
                  <g
                     id="g728">
                    <path
                       d="M 269.785,5.48 H 498.519 V 22.398 H 269.785 Z"
                       style="fill:#d9d9d9;fill-opacity:1;fill-rule:nonzero;stroke:#333333;stroke-width:1.06698;stroke-linecap:round;stroke-linejoin:round;stroke-miterlimit:10;stroke-dasharray:none;stroke-opacity:1"
                       id="path730" />
                  </g>
                  <path
                     d="m 352.996,15.066 0.785,-0.07 c 0.035,0.32 0.125,0.578 0.262,0.777 0.133,0.204 0.344,0.368 0.633,0.489 0.285,0.129 0.605,0.191 0.969,0.187 0.312,0.004 0.593,-0.043 0.839,-0.14 0.243,-0.094 0.422,-0.227 0.543,-0.391 0.118,-0.164 0.18,-0.344 0.18,-0.539 0,-0.195 -0.059,-0.367 -0.172,-0.516 -0.117,-0.148 -0.305,-0.273 -0.566,-0.375 -0.172,-0.062 -0.547,-0.164 -1.121,-0.304 -0.582,-0.141 -0.989,-0.27 -1.215,-0.395 -0.305,-0.152 -0.528,-0.348 -0.676,-0.586 -0.148,-0.23 -0.223,-0.492 -0.219,-0.785 -0.004,-0.313 0.086,-0.609 0.27,-0.891 0.176,-0.273 0.437,-0.484 0.789,-0.629 0.344,-0.14 0.73,-0.21 1.156,-0.214 0.465,0.004 0.879,0.078 1.238,0.226 0.356,0.153 0.629,0.375 0.821,0.664 0.191,0.297 0.293,0.625 0.308,0.992 l -0.797,0.059 c -0.046,-0.398 -0.191,-0.699 -0.437,-0.902 -0.25,-0.203 -0.617,-0.305 -1.098,-0.305 -0.504,0 -0.871,0.094 -1.101,0.277 -0.231,0.188 -0.344,0.41 -0.344,0.668 0,0.231 0.078,0.418 0.242,0.559 0.156,0.148 0.578,0.297 1.258,0.449 0.676,0.156 1.141,0.289 1.395,0.402 0.367,0.172 0.636,0.387 0.812,0.645 0.172,0.258 0.258,0.559 0.262,0.895 -0.004,0.335 -0.098,0.648 -0.289,0.945 -0.192,0.297 -0.469,0.531 -0.828,0.695 -0.364,0.164 -0.766,0.242 -1.211,0.246 -0.571,-0.004 -1.051,-0.086 -1.434,-0.25 -0.391,-0.164 -0.691,-0.414 -0.906,-0.75 -0.223,-0.332 -0.34,-0.707 -0.348,-1.133 z"
                     style="fill:#191919;fill-opacity:1;fill-rule:nonzero;stroke:none"
                     id="path732" />
                  <path
                     d="m 359.051,17.09 v -6.301 h 0.773 v 2.262 c 0.36,-0.414 0.817,-0.625 1.367,-0.629 0.336,0.004 0.629,0.07 0.883,0.203 0.246,0.133 0.426,0.316 0.535,0.551 0.106,0.234 0.157,0.578 0.161,1.023 v 2.891 h -0.774 v -2.891 c -0.004,-0.383 -0.086,-0.664 -0.254,-0.844 -0.168,-0.171 -0.406,-0.261 -0.707,-0.265 -0.234,0.004 -0.449,0.062 -0.648,0.18 -0.203,0.117 -0.348,0.277 -0.434,0.48 -0.09,0.203 -0.133,0.484 -0.129,0.844 v 2.496 z"
                     style="fill:#191919;fill-opacity:1;fill-rule:nonzero;stroke:none"
                     id="path734" />
                  <path
                     d="m 363.66,14.809 c 0,-0.844 0.235,-1.473 0.703,-1.879 0.391,-0.336 0.864,-0.504 1.438,-0.508 0.625,0.004 1.137,0.211 1.535,0.617 0.391,0.414 0.594,0.981 0.594,1.703 0,0.59 -0.086,1.051 -0.266,1.387 -0.172,0.336 -0.43,0.598 -0.766,0.785 -0.335,0.184 -0.703,0.274 -1.097,0.277 -0.645,-0.003 -1.16,-0.203 -1.551,-0.613 -0.398,-0.406 -0.59,-0.996 -0.59,-1.769 z m 0.793,0 c -0.008,0.586 0.125,1.023 0.383,1.312 0.25,0.297 0.574,0.442 0.965,0.438 0.379,0.004 0.699,-0.141 0.957,-0.438 0.25,-0.289 0.383,-0.738 0.383,-1.34 0,-0.562 -0.133,-0.988 -0.387,-1.281 -0.262,-0.289 -0.578,-0.434 -0.953,-0.437 -0.391,0.003 -0.715,0.148 -0.965,0.433 -0.258,0.293 -0.391,0.731 -0.383,1.313 z"
                     style="fill:#191919;fill-opacity:1;fill-rule:nonzero;stroke:none"
                     id="path736" />
                  <path
                     d="m 368.828,17.09 v -4.563 h 0.695 v 0.692 c 0.18,-0.321 0.344,-0.535 0.493,-0.641 0.148,-0.101 0.312,-0.152 0.5,-0.156 0.257,0.004 0.523,0.086 0.793,0.25 l -0.266,0.719 c -0.195,-0.11 -0.383,-0.168 -0.566,-0.168 -0.172,0 -0.325,0.05 -0.457,0.152 -0.137,0.102 -0.235,0.242 -0.29,0.422 -0.089,0.277 -0.132,0.578 -0.128,0.902 v 2.391 z"
                     style="fill:#191919;fill-opacity:1;fill-rule:nonzero;stroke:none"
                     id="path738" />
                  <path
                     d="m 373.461,16.398 0.109,0.684 c -0.218,0.047 -0.414,0.066 -0.582,0.066 -0.285,0 -0.504,-0.043 -0.656,-0.132 -0.156,-0.086 -0.266,-0.203 -0.324,-0.348 -0.067,-0.145 -0.098,-0.449 -0.094,-0.914 v -2.625 h -0.566 v -0.602 h 0.566 v -1.132 l 0.77,-0.461 v 1.593 h 0.777 v 0.602 h -0.777 v 2.668 c -0.004,0.223 0.007,0.363 0.039,0.426 0.023,0.062 0.07,0.113 0.132,0.152 0.063,0.039 0.149,0.059 0.266,0.055 0.082,0.004 0.195,-0.008 0.34,-0.032 z"
                     style="fill:#191919;fill-opacity:1;fill-rule:nonzero;stroke:none"
                     id="path740" />
                  <path
                     d="m 376.73,17.09 v -6.301 h 1.254 l 1.493,4.461 c 0.136,0.418 0.234,0.73 0.3,0.934 0.071,-0.227 0.184,-0.563 0.336,-1.012 l 1.508,-4.383 h 1.121 v 6.301 h -0.804 v -5.274 l -1.829,5.274 h -0.754 l -1.82,-5.363 v 5.363 z"
                     style="fill:#191919;fill-opacity:1;fill-rule:nonzero;stroke:none"
                     id="path742" />
                  <path
                     d="m 386.969,16.527 c -0.289,0.243 -0.563,0.414 -0.828,0.516 -0.266,0.098 -0.551,0.145 -0.852,0.148 -0.504,-0.003 -0.891,-0.121 -1.16,-0.367 -0.27,-0.242 -0.402,-0.554 -0.402,-0.937 0,-0.219 0.05,-0.426 0.152,-0.614 0.101,-0.183 0.234,-0.332 0.402,-0.445 0.16,-0.109 0.344,-0.191 0.555,-0.254 0.148,-0.035 0.379,-0.074 0.687,-0.113 0.622,-0.074 1.082,-0.164 1.379,-0.266 0,-0.105 0,-0.172 0.004,-0.203 -0.004,-0.312 -0.078,-0.535 -0.218,-0.668 -0.204,-0.172 -0.497,-0.258 -0.879,-0.261 -0.368,0.003 -0.637,0.066 -0.809,0.191 -0.176,0.129 -0.301,0.355 -0.383,0.676 l -0.754,-0.102 c 0.063,-0.32 0.176,-0.582 0.336,-0.781 0.156,-0.199 0.383,-0.352 0.684,-0.461 0.297,-0.106 0.644,-0.16 1.035,-0.164 0.391,0.004 0.707,0.051 0.949,0.141 0.242,0.093 0.422,0.207 0.539,0.343 0.114,0.141 0.192,0.317 0.242,0.528 0.02,0.132 0.032,0.371 0.036,0.711 v 1.031 c -0.004,0.722 0.015,1.179 0.05,1.367 0.032,0.195 0.094,0.375 0.196,0.547 h -0.809 c -0.082,-0.16 -0.133,-0.348 -0.152,-0.563 z m -0.067,-1.726 c -0.281,0.117 -0.703,0.215 -1.261,0.289 -0.321,0.051 -0.547,0.101 -0.676,0.156 -0.133,0.059 -0.235,0.145 -0.305,0.254 -0.074,0.113 -0.109,0.234 -0.105,0.363 -0.004,0.211 0.074,0.383 0.234,0.52 0.152,0.137 0.383,0.203 0.684,0.203 0.297,0 0.558,-0.063 0.793,-0.195 0.23,-0.125 0.402,-0.305 0.511,-0.536 0.082,-0.171 0.125,-0.429 0.125,-0.773 z"
                     style="fill:#191919;fill-opacity:1;fill-rule:nonzero;stroke:none"
                     id="path744" />
                  <path
                     d="m 390.574,16.398 0.11,0.684 c -0.219,0.047 -0.414,0.066 -0.582,0.066 -0.286,0 -0.504,-0.043 -0.657,-0.132 -0.156,-0.086 -0.265,-0.203 -0.324,-0.348 -0.066,-0.145 -0.098,-0.449 -0.094,-0.914 v -2.625 h -0.566 v -0.602 h 0.566 v -1.132 l 0.77,-0.461 v 1.593 h 0.777 v 0.602 h -0.777 v 2.668 c -0.004,0.223 0.008,0.363 0.039,0.426 0.023,0.062 0.07,0.113 0.133,0.152 0.062,0.039 0.148,0.059 0.265,0.055 0.082,0.004 0.196,-0.008 0.34,-0.032 z"
                     style="fill:#191919;fill-opacity:1;fill-rule:nonzero;stroke:none"
                     id="path746" />
                  <path
                     d="m 394.32,17.09 v -0.672 c -0.359,0.516 -0.84,0.77 -1.449,0.773 -0.269,-0.003 -0.523,-0.05 -0.754,-0.152 -0.234,-0.101 -0.406,-0.23 -0.519,-0.391 -0.114,-0.152 -0.192,-0.343 -0.239,-0.574 -0.031,-0.148 -0.046,-0.39 -0.046,-0.719 v -2.828 h 0.773 v 2.532 c 0,0.406 0.016,0.679 0.047,0.816 0.047,0.207 0.148,0.367 0.308,0.48 0.157,0.118 0.352,0.172 0.586,0.172 0.231,0 0.45,-0.058 0.653,-0.175 0.203,-0.118 0.343,-0.278 0.429,-0.489 0.082,-0.203 0.125,-0.5 0.129,-0.89 v -2.446 h 0.774 v 4.563 z"
                     style="fill:#191919;fill-opacity:1;fill-rule:nonzero;stroke:none"
                     id="path748" />
                  <path
                     d="m 396.215,17.09 v -4.563 h 0.695 v 0.692 c 0.18,-0.321 0.344,-0.535 0.492,-0.641 0.149,-0.101 0.313,-0.152 0.5,-0.156 0.258,0.004 0.524,0.086 0.793,0.25 l -0.265,0.719 c -0.196,-0.11 -0.383,-0.168 -0.567,-0.168 -0.172,0 -0.324,0.05 -0.457,0.152 -0.136,0.102 -0.234,0.242 -0.289,0.422 -0.09,0.277 -0.133,0.578 -0.129,0.902 v 2.391 z"
                     style="fill:#191919;fill-opacity:1;fill-rule:nonzero;stroke:none"
                     id="path750" />
                  <path
                     d="m 402.133,16.527 c -0.289,0.243 -0.563,0.414 -0.828,0.516 -0.266,0.098 -0.551,0.145 -0.852,0.148 -0.504,-0.003 -0.89,-0.121 -1.16,-0.367 -0.27,-0.242 -0.402,-0.554 -0.402,-0.937 0,-0.219 0.05,-0.426 0.152,-0.614 0.102,-0.183 0.234,-0.332 0.402,-0.445 0.16,-0.109 0.344,-0.191 0.555,-0.254 0.148,-0.035 0.379,-0.074 0.688,-0.113 0.621,-0.074 1.082,-0.164 1.378,-0.266 0,-0.105 0,-0.172 0.004,-0.203 -0.004,-0.312 -0.078,-0.535 -0.218,-0.668 -0.204,-0.172 -0.497,-0.258 -0.879,-0.261 -0.368,0.003 -0.637,0.066 -0.809,0.191 -0.176,0.129 -0.301,0.355 -0.383,0.676 l -0.754,-0.102 c 0.063,-0.32 0.176,-0.582 0.336,-0.781 0.157,-0.199 0.383,-0.352 0.684,-0.461 0.297,-0.106 0.644,-0.16 1.035,-0.164 0.391,0.004 0.707,0.051 0.949,0.141 0.242,0.093 0.422,0.207 0.539,0.343 0.114,0.141 0.192,0.317 0.243,0.528 0.019,0.132 0.031,0.371 0.035,0.711 v 1.031 c -0.004,0.722 0.015,1.179 0.05,1.367 0.032,0.195 0.094,0.375 0.196,0.547 h -0.809 c -0.082,-0.16 -0.133,-0.348 -0.152,-0.563 z m -0.067,-1.726 c -0.281,0.117 -0.703,0.215 -1.261,0.289 -0.321,0.051 -0.547,0.101 -0.676,0.156 -0.133,0.059 -0.234,0.145 -0.305,0.254 -0.074,0.113 -0.109,0.234 -0.105,0.363 -0.004,0.211 0.074,0.383 0.234,0.52 0.152,0.137 0.383,0.203 0.684,0.203 0.297,0 0.558,-0.063 0.793,-0.195 0.23,-0.125 0.402,-0.305 0.511,-0.536 0.082,-0.171 0.125,-0.429 0.125,-0.773 z"
                     style="fill:#191919;fill-opacity:1;fill-rule:nonzero;stroke:none"
                     id="path752" />
                  <path
                     d="m 405.738,16.398 0.11,0.684 c -0.219,0.047 -0.414,0.066 -0.582,0.066 -0.286,0 -0.504,-0.043 -0.657,-0.132 -0.156,-0.086 -0.265,-0.203 -0.324,-0.348 -0.066,-0.145 -0.097,-0.449 -0.094,-0.914 v -2.625 h -0.566 v -0.602 h 0.566 v -1.132 l 0.77,-0.461 v 1.593 h 0.777 v 0.602 h -0.777 v 2.668 c -0.004,0.223 0.008,0.363 0.039,0.426 0.023,0.062 0.07,0.113 0.133,0.152 0.062,0.039 0.148,0.059 0.265,0.055 0.082,0.004 0.196,-0.008 0.34,-0.032 z"
                     style="fill:#191919;fill-opacity:1;fill-rule:nonzero;stroke:none"
                     id="path754" />
                  <path
                     d="m 409.617,15.621 0.801,0.098 c -0.129,0.469 -0.363,0.832 -0.703,1.086 -0.34,0.258 -0.774,0.383 -1.305,0.386 -0.668,-0.003 -1.199,-0.203 -1.59,-0.613 -0.394,-0.406 -0.59,-0.984 -0.586,-1.73 -0.004,-0.766 0.196,-1.364 0.594,-1.789 0.395,-0.422 0.906,-0.633 1.539,-0.637 0.606,0.004 1.102,0.211 1.492,0.625 0.383,0.414 0.579,1 0.582,1.754 -0.003,0.047 -0.003,0.113 -0.003,0.203 h -3.403 c 0.024,0.504 0.168,0.891 0.426,1.156 0.254,0.27 0.57,0.403 0.953,0.399 0.281,0.004 0.524,-0.071 0.727,-0.223 0.199,-0.148 0.359,-0.387 0.476,-0.715 z m -2.539,-1.25 h 2.547 c -0.039,-0.383 -0.133,-0.668 -0.289,-0.863 -0.25,-0.297 -0.57,-0.449 -0.961,-0.449 -0.355,0 -0.656,0.121 -0.895,0.359 -0.246,0.238 -0.378,0.555 -0.402,0.953 z"
                     style="fill:#191919;fill-opacity:1;fill-rule:nonzero;stroke:none"
                     id="path756" />
                  <path
                     d="m 414.348,17.09 v -0.574 c -0.289,0.449 -0.715,0.672 -1.274,0.675 -0.367,-0.003 -0.703,-0.101 -1.004,-0.3 -0.308,-0.2 -0.543,-0.477 -0.711,-0.84 -0.168,-0.356 -0.254,-0.77 -0.25,-1.238 -0.004,-0.454 0.075,-0.868 0.227,-1.239 0.152,-0.371 0.379,-0.656 0.684,-0.855 0.3,-0.196 0.64,-0.293 1.019,-0.297 0.27,0.004 0.516,0.062 0.734,0.176 0.215,0.117 0.387,0.269 0.524,0.453 v -2.262 h 0.769 v 6.301 z m -2.446,-2.277 c -0.004,0.585 0.121,1.023 0.371,1.312 0.247,0.293 0.536,0.438 0.872,0.434 0.335,0.004 0.625,-0.133 0.863,-0.414 0.234,-0.274 0.351,-0.696 0.355,-1.266 -0.004,-0.621 -0.125,-1.082 -0.363,-1.375 -0.242,-0.293 -0.539,-0.438 -0.887,-0.441 -0.347,0.003 -0.633,0.144 -0.863,0.421 -0.234,0.286 -0.352,0.727 -0.348,1.329 z"
                     style="fill:#191919;fill-opacity:1;fill-rule:nonzero;stroke:none"
                     id="path758" />
                </g>
              </g>
            </g>
          </g>
        </g>
      </g>
      <g
         id="g760">
        <g
           id="g762">
          <path
             d="m 97.953,475.25 v -2.742"
             style="fill:none;stroke:#333333;stroke-width:1.06698;stroke-linecap:butt;stroke-linejoin:round;stroke-miterlimit:10;stroke-dasharray:none;stroke-opacity:1"
             id="path764" />
        </g>
        <g
           id="g766">
          <path
             d="m 201.926,475.25 v -2.742"
             style="fill:none;stroke:#333333;stroke-width:1.06698;stroke-linecap:butt;stroke-linejoin:round;stroke-miterlimit:10;stroke-dasharray:none;stroke-opacity:1"
             id="path768" />
        </g>
        <path
           d="m 75.98,481.531 0.836,0.207 c -0.179,0.688 -0.492,1.211 -0.945,1.571 -0.453,0.359 -1.008,0.535 -1.664,0.539 -0.68,-0.004 -1.234,-0.141 -1.656,-0.414 -0.43,-0.278 -0.754,-0.676 -0.973,-1.204 -0.226,-0.519 -0.336,-1.082 -0.332,-1.687 -0.004,-0.652 0.121,-1.227 0.375,-1.715 0.25,-0.488 0.606,-0.859 1.07,-1.113 0.461,-0.254 0.973,-0.379 1.528,-0.383 0.629,0.004 1.156,0.164 1.59,0.481 0.425,0.324 0.726,0.773 0.898,1.355 l -0.82,0.191 c -0.149,-0.453 -0.36,-0.789 -0.637,-1 -0.277,-0.211 -0.629,-0.316 -1.047,-0.316 -0.488,0 -0.89,0.117 -1.215,0.352 -0.328,0.234 -0.558,0.546 -0.687,0.933 -0.133,0.395 -0.199,0.797 -0.196,1.207 -0.003,0.539 0.075,1.008 0.235,1.406 0.152,0.403 0.394,0.7 0.726,0.895 0.329,0.199 0.688,0.301 1.075,0.297 0.464,0.004 0.859,-0.133 1.183,-0.403 0.321,-0.269 0.539,-0.667 0.656,-1.199 z"
           style="fill:#4c4c4c;fill-opacity:1;fill-rule:nonzero;stroke:none"
           id="path770" />
        <path
           d="m 77.457,481.457 c 0,-0.844 0.234,-1.473 0.703,-1.879 0.391,-0.336 0.867,-0.504 1.438,-0.508 0.625,0.004 1.136,0.211 1.535,0.618 0.394,0.414 0.594,0.98 0.597,1.703 -0.003,0.589 -0.089,1.05 -0.265,1.386 -0.176,0.336 -0.434,0.598 -0.766,0.786 -0.34,0.183 -0.707,0.273 -1.101,0.277 -0.645,-0.004 -1.16,-0.203 -1.551,-0.613 -0.395,-0.407 -0.59,-0.997 -0.59,-1.77 z m 0.793,0 c -0.004,0.586 0.125,1.023 0.383,1.313 0.254,0.296 0.574,0.441 0.965,0.437 0.379,0.004 0.699,-0.141 0.957,-0.437 0.254,-0.29 0.383,-0.739 0.383,-1.34 0,-0.563 -0.129,-0.989 -0.387,-1.282 -0.258,-0.289 -0.578,-0.433 -0.953,-0.437 -0.391,0.004 -0.711,0.148 -0.965,0.434 -0.258,0.293 -0.387,0.73 -0.383,1.312 z"
           style="fill:#4c4c4c;fill-opacity:1;fill-rule:nonzero;stroke:none"
           id="path772" />
        <path
           d="m 82.621,477.438 h 0.773 v 6.301 h -0.773 z"
           style="fill:#4c4c4c;fill-opacity:1;fill-rule:nonzero;stroke:none"
           id="path774" />
        <path
           d="m 87.551,483.738 v -0.574 c -0.289,0.449 -0.715,0.672 -1.274,0.676 -0.367,-0.004 -0.703,-0.102 -1.004,-0.301 -0.308,-0.199 -0.543,-0.476 -0.71,-0.84 -0.168,-0.355 -0.254,-0.769 -0.25,-1.238 -0.004,-0.453 0.074,-0.867 0.226,-1.238 0.152,-0.371 0.379,-0.657 0.684,-0.856 0.3,-0.195 0.64,-0.293 1.019,-0.297 0.27,0.004 0.516,0.063 0.735,0.176 0.214,0.117 0.386,0.27 0.523,0.453 v -2.261 h 0.77 v 6.3 z m -2.446,-2.277 c -0.003,0.586 0.122,1.023 0.372,1.312 0.246,0.293 0.535,0.438 0.871,0.434 0.336,0.004 0.625,-0.133 0.863,-0.414 0.234,-0.273 0.352,-0.695 0.355,-1.266 -0.003,-0.621 -0.125,-1.082 -0.363,-1.375 -0.242,-0.293 -0.539,-0.437 -0.887,-0.441 -0.347,0.004 -0.632,0.144 -0.863,0.422 -0.234,0.285 -0.351,0.726 -0.348,1.328 z"
           style="fill:#4c4c4c;fill-opacity:1;fill-rule:nonzero;stroke:none"
           id="path776" />
        <path
           d="m 92.609,482.27 0.801,0.097 c -0.129,0.469 -0.363,0.832 -0.703,1.086 -0.34,0.258 -0.773,0.383 -1.305,0.387 -0.668,-0.004 -1.199,-0.203 -1.589,-0.613 -0.395,-0.407 -0.59,-0.985 -0.586,-1.731 -0.004,-0.766 0.195,-1.363 0.593,-1.789 0.395,-0.422 0.907,-0.633 1.539,-0.637 0.606,0.004 1.102,0.211 1.493,0.625 0.382,0.414 0.578,1 0.582,1.754 -0.004,0.047 -0.004,0.114 -0.004,0.203 h -3.403 c 0.024,0.504 0.168,0.891 0.426,1.157 0.254,0.269 0.57,0.402 0.953,0.398 0.282,0.004 0.524,-0.07 0.727,-0.223 0.199,-0.148 0.359,-0.386 0.476,-0.714 z m -2.539,-1.25 h 2.547 c -0.039,-0.383 -0.133,-0.668 -0.289,-0.864 -0.25,-0.297 -0.57,-0.449 -0.961,-0.449 -0.355,0 -0.656,0.121 -0.894,0.359 -0.246,0.239 -0.379,0.555 -0.403,0.954 z"
           style="fill:#4c4c4c;fill-opacity:1;fill-rule:nonzero;stroke:none"
           id="path778" />
        <path
           d="m 94.371,483.738 v -4.562 h 0.695 v 0.691 c 0.18,-0.32 0.344,-0.535 0.493,-0.64 0.148,-0.102 0.312,-0.153 0.5,-0.157 0.257,0.004 0.523,0.086 0.793,0.25 l -0.266,0.719 c -0.195,-0.109 -0.383,-0.168 -0.566,-0.168 -0.172,0 -0.325,0.051 -0.457,0.152 -0.137,0.102 -0.235,0.243 -0.29,0.422 -0.089,0.278 -0.132,0.578 -0.128,0.903 v 2.39 z"
           style="fill:#4c4c4c;fill-opacity:1;fill-rule:nonzero;stroke:none"
           id="path780" />
        <path
           d="m 99.898,483.738 v -6.3 h 4.25 v 0.746 h -3.418 v 1.949 h 2.958 v 0.742 h -2.958 v 2.863 z"
           style="fill:#4c4c4c;fill-opacity:1;fill-rule:nonzero;stroke:none"
           id="path782" />
        <path
           d="m 105.137,478.328 v -0.89 h 0.773 v 0.89 z m 0,5.41 v -4.562 h 0.773 v 4.562 z"
           style="fill:#4c4c4c;fill-opacity:1;fill-rule:nonzero;stroke:none"
           id="path784" />
        <path
           d="m 106.777,482.375 0.766,-0.121 c 0.043,0.312 0.164,0.547 0.359,0.707 0.196,0.168 0.469,0.25 0.825,0.246 0.351,0.004 0.613,-0.07 0.789,-0.219 0.168,-0.144 0.254,-0.312 0.257,-0.508 -0.003,-0.171 -0.078,-0.308 -0.226,-0.414 -0.109,-0.062 -0.375,-0.152 -0.793,-0.261 -0.57,-0.141 -0.961,-0.262 -1.18,-0.371 -0.219,-0.102 -0.386,-0.246 -0.5,-0.434 -0.113,-0.18 -0.168,-0.387 -0.168,-0.613 0,-0.203 0.047,-0.391 0.141,-0.563 0.094,-0.172 0.219,-0.316 0.379,-0.433 0.121,-0.086 0.285,-0.161 0.492,-0.227 0.207,-0.059 0.43,-0.09 0.668,-0.094 0.355,0.004 0.672,0.055 0.945,0.157 0.27,0.105 0.469,0.246 0.598,0.421 0.129,0.176 0.219,0.411 0.269,0.704 l -0.757,0.105 c -0.036,-0.234 -0.137,-0.418 -0.301,-0.551 -0.168,-0.133 -0.399,-0.199 -0.695,-0.199 -0.36,0 -0.614,0.059 -0.762,0.176 -0.153,0.117 -0.227,0.258 -0.227,0.414 0,0.101 0.032,0.191 0.094,0.269 0.063,0.086 0.16,0.153 0.297,0.207 0.074,0.032 0.301,0.098 0.683,0.2 0.543,0.148 0.926,0.269 1.145,0.359 0.215,0.094 0.383,0.231 0.508,0.406 0.121,0.18 0.183,0.399 0.187,0.66 -0.004,0.262 -0.078,0.504 -0.226,0.731 -0.153,0.226 -0.371,0.402 -0.653,0.527 -0.289,0.121 -0.609,0.18 -0.961,0.184 -0.597,-0.004 -1.05,-0.121 -1.359,-0.367 -0.312,-0.243 -0.508,-0.61 -0.594,-1.098 z"
           style="fill:#4c4c4c;fill-opacity:1;fill-rule:nonzero;stroke:none"
           id="path786" />
        <path
           d="m 111.484,483.738 v -6.3 h 0.774 v 2.261 c 0.359,-0.414 0.816,-0.625 1.367,-0.629 0.336,0.004 0.629,0.071 0.883,0.203 0.246,0.133 0.426,0.317 0.535,0.551 0.105,0.235 0.156,0.578 0.16,1.024 v 2.89 h -0.773 v -2.89 c -0.004,-0.383 -0.086,-0.664 -0.254,-0.844 -0.168,-0.172 -0.406,-0.262 -0.707,-0.266 -0.235,0.004 -0.449,0.063 -0.649,0.18 -0.203,0.117 -0.347,0.277 -0.433,0.48 -0.09,0.204 -0.133,0.485 -0.129,0.844 v 2.496 z"
           style="fill:#4c4c4c;fill-opacity:1;fill-rule:nonzero;stroke:none"
           id="path788" />
        <path
           d="m 119.504,482.27 0.801,0.097 c -0.129,0.469 -0.364,0.832 -0.703,1.086 -0.34,0.258 -0.774,0.383 -1.305,0.387 -0.668,-0.004 -1.199,-0.203 -1.59,-0.613 -0.394,-0.407 -0.59,-0.985 -0.586,-1.731 -0.004,-0.766 0.195,-1.363 0.594,-1.789 0.394,-0.422 0.906,-0.633 1.539,-0.637 0.605,0.004 1.101,0.211 1.492,0.625 0.383,0.414 0.578,1 0.582,1.754 -0.004,0.047 -0.004,0.114 -0.004,0.203 h -3.402 c 0.023,0.504 0.168,0.891 0.426,1.157 0.254,0.269 0.57,0.402 0.953,0.398 0.281,0.004 0.523,-0.07 0.726,-0.223 0.2,-0.148 0.36,-0.386 0.477,-0.714 z m -2.539,-1.25 h 2.547 c -0.039,-0.383 -0.133,-0.668 -0.289,-0.864 -0.25,-0.297 -0.571,-0.449 -0.961,-0.449 -0.356,0 -0.657,0.121 -0.895,0.359 -0.246,0.239 -0.379,0.555 -0.402,0.954 z"
           style="fill:#4c4c4c;fill-opacity:1;fill-rule:nonzero;stroke:none"
           id="path790" />
        <path
           d="m 120.965,482.375 0.765,-0.121 c 0.043,0.312 0.165,0.547 0.36,0.707 0.195,0.168 0.469,0.25 0.824,0.246 0.352,0.004 0.613,-0.07 0.789,-0.219 0.168,-0.144 0.254,-0.312 0.258,-0.508 -0.004,-0.171 -0.078,-0.308 -0.227,-0.414 -0.109,-0.062 -0.375,-0.152 -0.793,-0.261 -0.57,-0.141 -0.961,-0.262 -1.179,-0.371 -0.219,-0.102 -0.387,-0.246 -0.5,-0.434 -0.114,-0.18 -0.168,-0.387 -0.168,-0.613 0,-0.203 0.047,-0.391 0.14,-0.563 0.094,-0.172 0.219,-0.316 0.379,-0.433 0.121,-0.086 0.285,-0.161 0.492,-0.227 0.208,-0.059 0.43,-0.09 0.668,-0.094 0.356,0.004 0.672,0.055 0.946,0.157 0.269,0.105 0.469,0.246 0.597,0.421 0.129,0.176 0.219,0.411 0.27,0.704 l -0.758,0.105 c -0.035,-0.234 -0.137,-0.418 -0.301,-0.551 -0.168,-0.133 -0.398,-0.199 -0.695,-0.199 -0.359,0 -0.613,0.059 -0.762,0.176 -0.152,0.117 -0.226,0.258 -0.226,0.414 0,0.101 0.031,0.191 0.094,0.269 0.062,0.086 0.16,0.153 0.296,0.207 0.075,0.032 0.301,0.098 0.684,0.2 0.543,0.148 0.926,0.269 1.145,0.359 0.214,0.094 0.382,0.231 0.507,0.406 0.121,0.18 0.184,0.399 0.188,0.66 -0.004,0.262 -0.078,0.504 -0.227,0.731 -0.152,0.226 -0.371,0.402 -0.652,0.527 -0.289,0.121 -0.609,0.18 -0.961,0.184 -0.598,-0.004 -1.051,-0.121 -1.359,-0.367 -0.313,-0.243 -0.508,-0.61 -0.594,-1.098 z"
           style="fill:#4c4c4c;fill-opacity:1;fill-rule:nonzero;stroke:none"
           id="path792" />
        <path
           d="m 173.879,483.738 -1.668,-6.3 h 0.852 l 0.96,4.128 c 0.102,0.438 0.188,0.868 0.266,1.289 0.156,-0.667 0.25,-1.054 0.281,-1.164 l 1.2,-4.253 h 1.007 l 0.903,3.191 c 0.226,0.793 0.386,1.535 0.488,2.226 0.078,-0.394 0.184,-0.851 0.316,-1.367 l 0.989,-4.05 h 0.836 l -1.727,6.3 h -0.805 l -1.328,-4.8 c -0.113,-0.399 -0.179,-0.645 -0.195,-0.739 -0.07,0.293 -0.133,0.539 -0.188,0.739 l -1.336,4.8 z"
           style="fill:#4c4c4c;fill-opacity:1;fill-rule:nonzero;stroke:none"
           id="path794" />
        <path
           d="m 183.965,483.176 c -0.289,0.242 -0.563,0.414 -0.828,0.515 -0.266,0.098 -0.551,0.145 -0.852,0.149 -0.504,-0.004 -0.89,-0.121 -1.16,-0.367 -0.27,-0.243 -0.402,-0.555 -0.402,-0.938 0,-0.219 0.05,-0.426 0.152,-0.613 0.102,-0.184 0.234,-0.332 0.402,-0.445 0.161,-0.11 0.344,-0.192 0.555,-0.254 0.148,-0.035 0.379,-0.075 0.688,-0.114 0.621,-0.074 1.082,-0.164 1.378,-0.265 0,-0.106 0,-0.172 0.004,-0.203 -0.004,-0.313 -0.078,-0.536 -0.218,-0.668 -0.204,-0.172 -0.496,-0.258 -0.879,-0.262 -0.367,0.004 -0.637,0.066 -0.809,0.191 -0.176,0.129 -0.301,0.356 -0.383,0.676 l -0.754,-0.101 c 0.063,-0.321 0.176,-0.582 0.336,-0.782 0.157,-0.199 0.383,-0.351 0.684,-0.461 0.297,-0.105 0.644,-0.16 1.035,-0.164 0.391,0.004 0.707,0.051 0.949,0.141 0.242,0.094 0.422,0.207 0.539,0.344 0.114,0.14 0.192,0.316 0.243,0.527 0.019,0.133 0.031,0.371 0.035,0.711 v 1.031 c -0.004,0.723 0.015,1.18 0.05,1.367 0.032,0.196 0.094,0.375 0.196,0.547 h -0.809 c -0.082,-0.16 -0.133,-0.347 -0.152,-0.562 z m -0.067,-1.727 c -0.281,0.117 -0.703,0.215 -1.261,0.289 -0.321,0.051 -0.547,0.102 -0.676,0.157 -0.133,0.058 -0.234,0.144 -0.305,0.253 -0.074,0.114 -0.109,0.235 -0.105,0.364 -0.004,0.211 0.074,0.383 0.234,0.519 0.153,0.137 0.383,0.203 0.684,0.203 0.297,0 0.558,-0.062 0.793,-0.195 0.23,-0.125 0.402,-0.305 0.511,-0.535 0.082,-0.172 0.125,-0.43 0.125,-0.774 z"
           style="fill:#4c4c4c;fill-opacity:1;fill-rule:nonzero;stroke:none"
           id="path796" />
        <path
           d="m 185.871,483.738 v -4.562 h 0.695 v 0.691 c 0.18,-0.32 0.344,-0.535 0.493,-0.64 0.148,-0.102 0.312,-0.153 0.5,-0.157 0.257,0.004 0.523,0.086 0.793,0.25 l -0.266,0.719 c -0.195,-0.109 -0.383,-0.168 -0.566,-0.168 -0.172,0 -0.325,0.051 -0.457,0.152 -0.137,0.102 -0.235,0.243 -0.29,0.422 -0.089,0.278 -0.132,0.578 -0.128,0.903 v 2.39 z"
           style="fill:#4c4c4c;fill-opacity:1;fill-rule:nonzero;stroke:none"
           id="path798" />
        <path
           d="m 188.809,483.738 v -4.562 h 0.695 v 0.64 c 0.141,-0.218 0.332,-0.398 0.57,-0.539 0.235,-0.132 0.504,-0.203 0.813,-0.207 0.336,0.004 0.613,0.075 0.832,0.211 0.211,0.145 0.363,0.34 0.457,0.59 0.355,-0.531 0.828,-0.797 1.41,-0.801 0.449,0.004 0.793,0.129 1.039,0.379 0.242,0.25 0.367,0.637 0.367,1.156 v 3.133 h -0.765 v -2.875 c -0.004,-0.308 -0.028,-0.531 -0.079,-0.668 -0.05,-0.132 -0.144,-0.242 -0.273,-0.328 -0.133,-0.082 -0.285,-0.125 -0.461,-0.125 -0.324,0 -0.59,0.11 -0.801,0.321 -0.211,0.218 -0.316,0.558 -0.316,1.023 v 2.652 h -0.774 v -2.965 c 0,-0.343 -0.066,-0.601 -0.191,-0.773 -0.129,-0.172 -0.332,-0.258 -0.617,-0.258 -0.219,0 -0.422,0.059 -0.606,0.172 -0.187,0.117 -0.32,0.285 -0.402,0.504 -0.086,0.223 -0.129,0.539 -0.125,0.953 v 2.367 z"
           style="fill:#4c4c4c;fill-opacity:1;fill-rule:nonzero;stroke:none"
           id="path800" />
        <path
           d="m 199.266,482.27 0.8,0.097 c -0.128,0.469 -0.363,0.832 -0.703,1.086 -0.34,0.258 -0.773,0.383 -1.304,0.387 -0.668,-0.004 -1.2,-0.203 -1.59,-0.613 -0.395,-0.407 -0.59,-0.985 -0.586,-1.731 -0.004,-0.766 0.195,-1.363 0.594,-1.789 0.394,-0.422 0.906,-0.633 1.539,-0.637 0.605,0.004 1.101,0.211 1.492,0.625 0.383,0.414 0.578,1 0.582,1.754 -0.004,0.047 -0.004,0.114 -0.004,0.203 h -3.402 c 0.023,0.504 0.168,0.891 0.425,1.157 0.254,0.269 0.571,0.402 0.954,0.398 0.281,0.004 0.523,-0.07 0.726,-0.223 0.199,-0.148 0.359,-0.386 0.477,-0.714 z m -2.539,-1.25 h 2.546 c -0.039,-0.383 -0.132,-0.668 -0.289,-0.864 -0.25,-0.297 -0.57,-0.449 -0.961,-0.449 -0.355,0 -0.656,0.121 -0.894,0.359 -0.246,0.239 -0.379,0.555 -0.402,0.954 z"
           style="fill:#4c4c4c;fill-opacity:1;fill-rule:nonzero;stroke:none"
           id="path802" />
        <path
           d="m 201.027,483.738 v -4.562 h 0.696 v 0.691 c 0.179,-0.32 0.343,-0.535 0.492,-0.64 0.148,-0.102 0.312,-0.153 0.5,-0.157 0.258,0.004 0.523,0.086 0.793,0.25 l -0.266,0.719 c -0.195,-0.109 -0.383,-0.168 -0.566,-0.168 -0.172,0 -0.324,0.051 -0.457,0.152 -0.137,0.102 -0.235,0.243 -0.289,0.422 -0.09,0.278 -0.133,0.578 -0.129,0.903 v 2.39 z"
           style="fill:#4c4c4c;fill-opacity:1;fill-rule:nonzero;stroke:none"
           id="path804" />
        <path
           d="m 206.555,483.738 v -6.3 h 4.25 v 0.746 h -3.418 v 1.949 h 2.957 v 0.742 h -2.957 v 2.863 z"
           style="fill:#4c4c4c;fill-opacity:1;fill-rule:nonzero;stroke:none"
           id="path806" />
        <path
           d="m 211.793,478.328 v -0.89 h 0.773 v 0.89 z m 0,5.41 v -4.562 h 0.773 v 4.562 z"
           style="fill:#4c4c4c;fill-opacity:1;fill-rule:nonzero;stroke:none"
           id="path808" />
        <path
           d="m 213.434,482.375 0.765,-0.121 c 0.043,0.312 0.164,0.547 0.36,0.707 0.195,0.168 0.468,0.25 0.824,0.246 0.351,0.004 0.613,-0.07 0.789,-0.219 0.168,-0.144 0.254,-0.312 0.258,-0.508 -0.004,-0.171 -0.078,-0.308 -0.227,-0.414 -0.109,-0.062 -0.375,-0.152 -0.793,-0.261 -0.57,-0.141 -0.961,-0.262 -1.18,-0.371 -0.218,-0.102 -0.386,-0.246 -0.5,-0.434 -0.113,-0.18 -0.167,-0.387 -0.167,-0.613 0,-0.203 0.046,-0.391 0.14,-0.563 0.094,-0.172 0.219,-0.316 0.379,-0.433 0.121,-0.086 0.285,-0.161 0.492,-0.227 0.207,-0.059 0.43,-0.09 0.668,-0.094 0.356,0.004 0.672,0.055 0.946,0.157 0.269,0.105 0.468,0.246 0.597,0.421 0.129,0.176 0.219,0.411 0.27,0.704 l -0.758,0.105 c -0.035,-0.234 -0.137,-0.418 -0.301,-0.551 -0.168,-0.133 -0.398,-0.199 -0.695,-0.199 -0.36,0 -0.613,0.059 -0.762,0.176 -0.152,0.117 -0.226,0.258 -0.226,0.414 0,0.101 0.031,0.191 0.093,0.269 0.063,0.086 0.16,0.153 0.297,0.207 0.074,0.032 0.301,0.098 0.684,0.2 0.543,0.148 0.926,0.269 1.144,0.359 0.215,0.094 0.383,0.231 0.508,0.406 0.121,0.18 0.184,0.399 0.188,0.66 -0.004,0.262 -0.079,0.504 -0.227,0.731 -0.152,0.226 -0.371,0.402 -0.652,0.527 -0.289,0.121 -0.61,0.18 -0.961,0.184 -0.598,-0.004 -1.051,-0.121 -1.36,-0.367 -0.312,-0.243 -0.507,-0.61 -0.593,-1.098 z"
           style="fill:#4c4c4c;fill-opacity:1;fill-rule:nonzero;stroke:none"
           id="path810" />
        <path
           d="m 218.141,483.738 v -6.3 h 0.773 v 2.261 c 0.359,-0.414 0.816,-0.625 1.367,-0.629 0.336,0.004 0.629,0.071 0.883,0.203 0.246,0.133 0.426,0.317 0.535,0.551 0.106,0.235 0.156,0.578 0.16,1.024 v 2.89 h -0.773 v -2.89 c -0.004,-0.383 -0.086,-0.664 -0.254,-0.844 -0.168,-0.172 -0.406,-0.262 -0.707,-0.266 -0.234,0.004 -0.449,0.063 -0.648,0.18 -0.204,0.117 -0.348,0.277 -0.434,0.48 -0.09,0.204 -0.133,0.485 -0.129,0.844 v 2.496 z"
           style="fill:#4c4c4c;fill-opacity:1;fill-rule:nonzero;stroke:none"
           id="path812" />
        <path
           d="m 226.16,482.27 0.801,0.097 c -0.129,0.469 -0.363,0.832 -0.703,1.086 -0.34,0.258 -0.774,0.383 -1.305,0.387 -0.668,-0.004 -1.199,-0.203 -1.59,-0.613 -0.394,-0.407 -0.59,-0.985 -0.586,-1.731 -0.004,-0.766 0.196,-1.363 0.594,-1.789 0.395,-0.422 0.906,-0.633 1.539,-0.637 0.606,0.004 1.102,0.211 1.492,0.625 0.383,0.414 0.578,1 0.582,1.754 -0.004,0.047 -0.004,0.114 -0.004,0.203 h -3.402 c 0.024,0.504 0.168,0.891 0.426,1.157 0.254,0.269 0.57,0.402 0.953,0.398 0.281,0.004 0.523,-0.07 0.727,-0.223 0.199,-0.148 0.359,-0.386 0.476,-0.714 z m -2.539,-1.25 h 2.547 c -0.039,-0.383 -0.133,-0.668 -0.289,-0.864 -0.25,-0.297 -0.57,-0.449 -0.961,-0.449 -0.355,0 -0.656,0.121 -0.895,0.359 -0.246,0.239 -0.378,0.555 -0.402,0.954 z"
           style="fill:#4c4c4c;fill-opacity:1;fill-rule:nonzero;stroke:none"
           id="path814" />
        <path
           d="m 227.621,482.375 0.766,-0.121 c 0.043,0.312 0.164,0.547 0.359,0.707 0.195,0.168 0.469,0.25 0.824,0.246 0.352,0.004 0.614,-0.07 0.789,-0.219 0.168,-0.144 0.254,-0.312 0.258,-0.508 -0.004,-0.171 -0.078,-0.308 -0.226,-0.414 -0.11,-0.062 -0.375,-0.152 -0.793,-0.261 -0.571,-0.141 -0.961,-0.262 -1.18,-0.371 -0.219,-0.102 -0.387,-0.246 -0.5,-0.434 -0.113,-0.18 -0.168,-0.387 -0.168,-0.613 0,-0.203 0.047,-0.391 0.141,-0.563 0.093,-0.172 0.218,-0.316 0.379,-0.433 0.121,-0.086 0.285,-0.161 0.492,-0.227 0.207,-0.059 0.429,-0.09 0.668,-0.094 0.355,0.004 0.672,0.055 0.945,0.157 0.27,0.105 0.469,0.246 0.598,0.421 0.129,0.176 0.218,0.411 0.269,0.704 l -0.758,0.105 c -0.035,-0.234 -0.136,-0.418 -0.3,-0.551 -0.168,-0.133 -0.399,-0.199 -0.696,-0.199 -0.359,0 -0.613,0.059 -0.761,0.176 -0.153,0.117 -0.227,0.258 -0.227,0.414 0,0.101 0.031,0.191 0.094,0.269 0.062,0.086 0.16,0.153 0.297,0.207 0.074,0.032 0.3,0.098 0.683,0.2 0.543,0.148 0.926,0.269 1.145,0.359 0.215,0.094 0.383,0.231 0.508,0.406 0.121,0.18 0.183,0.399 0.187,0.66 -0.004,0.262 -0.078,0.504 -0.226,0.731 -0.153,0.226 -0.372,0.402 -0.653,0.527 -0.289,0.121 -0.609,0.18 -0.961,0.184 -0.597,-0.004 -1.051,-0.121 -1.359,-0.367 -0.313,-0.243 -0.508,-0.61 -0.594,-1.098 z"
           style="fill:#4c4c4c;fill-opacity:1;fill-rule:nonzero;stroke:none"
           id="path816" />
        <g
           id="g818">
          <path
             d="m 332.168,475.25 v -2.742"
             style="fill:none;stroke:#333333;stroke-width:1.06698;stroke-linecap:butt;stroke-linejoin:round;stroke-miterlimit:10;stroke-dasharray:none;stroke-opacity:1"
             id="path820" />
        </g>
        <g
           id="g822">
          <path
             d="m 436.137,475.25 v -2.742"
             style="fill:none;stroke:#333333;stroke-width:1.06698;stroke-linecap:butt;stroke-linejoin:round;stroke-miterlimit:10;stroke-dasharray:none;stroke-opacity:1"
             id="path824" />
        </g>
        <path
           d="m 310.195,481.531 0.836,0.207 c -0.179,0.688 -0.492,1.211 -0.945,1.571 -0.453,0.359 -1.008,0.535 -1.664,0.539 -0.68,-0.004 -1.234,-0.141 -1.656,-0.414 -0.43,-0.278 -0.754,-0.676 -0.973,-1.204 -0.227,-0.519 -0.336,-1.082 -0.332,-1.687 -0.004,-0.652 0.121,-1.227 0.375,-1.715 0.25,-0.488 0.605,-0.859 1.07,-1.113 0.461,-0.254 0.973,-0.379 1.528,-0.383 0.629,0.004 1.156,0.164 1.589,0.481 0.426,0.324 0.727,0.773 0.899,1.355 l -0.82,0.191 c -0.149,-0.453 -0.36,-0.789 -0.637,-1 -0.277,-0.211 -0.629,-0.316 -1.047,-0.316 -0.488,0 -0.891,0.117 -1.215,0.352 -0.328,0.234 -0.558,0.546 -0.687,0.933 -0.133,0.395 -0.2,0.797 -0.196,1.207 -0.004,0.539 0.075,1.008 0.235,1.406 0.152,0.403 0.394,0.7 0.726,0.895 0.328,0.199 0.688,0.301 1.074,0.297 0.465,0.004 0.86,-0.133 1.184,-0.403 0.32,-0.269 0.539,-0.667 0.656,-1.199 z"
           style="fill:#4c4c4c;fill-opacity:1;fill-rule:nonzero;stroke:none"
           id="path826" />
        <path
           d="m 311.672,481.457 c 0,-0.844 0.234,-1.473 0.703,-1.879 0.391,-0.336 0.867,-0.504 1.438,-0.508 0.625,0.004 1.136,0.211 1.535,0.618 0.394,0.414 0.593,0.98 0.597,1.703 -0.004,0.589 -0.09,1.05 -0.265,1.386 -0.176,0.336 -0.434,0.598 -0.766,0.786 -0.34,0.183 -0.707,0.273 -1.101,0.277 -0.645,-0.004 -1.161,-0.203 -1.551,-0.613 -0.395,-0.407 -0.59,-0.997 -0.59,-1.77 z m 0.793,0 c -0.004,0.586 0.125,1.023 0.383,1.313 0.254,0.296 0.574,0.441 0.965,0.437 0.378,0.004 0.699,-0.141 0.957,-0.437 0.253,-0.29 0.382,-0.739 0.382,-1.34 0,-0.563 -0.129,-0.989 -0.386,-1.282 -0.258,-0.289 -0.578,-0.433 -0.953,-0.437 -0.391,0.004 -0.711,0.148 -0.965,0.434 -0.258,0.293 -0.387,0.73 -0.383,1.312 z"
           style="fill:#4c4c4c;fill-opacity:1;fill-rule:nonzero;stroke:none"
           id="path828" />
        <path
           d="m 316.836,477.438 h 0.773 v 6.301 h -0.773 z"
           style="fill:#4c4c4c;fill-opacity:1;fill-rule:nonzero;stroke:none"
           id="path830" />
        <path
           d="m 321.766,483.738 v -0.574 c -0.289,0.449 -0.715,0.672 -1.274,0.676 -0.367,-0.004 -0.703,-0.102 -1.004,-0.301 -0.308,-0.199 -0.543,-0.476 -0.711,-0.84 -0.168,-0.355 -0.254,-0.769 -0.25,-1.238 -0.004,-0.453 0.075,-0.867 0.227,-1.238 0.152,-0.371 0.379,-0.657 0.684,-0.856 0.3,-0.195 0.64,-0.293 1.019,-0.297 0.27,0.004 0.516,0.063 0.734,0.176 0.215,0.117 0.387,0.27 0.524,0.453 v -2.261 h 0.769 v 6.3 z m -2.446,-2.277 c -0.004,0.586 0.121,1.023 0.371,1.312 0.247,0.293 0.536,0.438 0.872,0.434 0.335,0.004 0.625,-0.133 0.863,-0.414 0.234,-0.273 0.351,-0.695 0.355,-1.266 -0.004,-0.621 -0.125,-1.082 -0.363,-1.375 -0.242,-0.293 -0.539,-0.437 -0.887,-0.441 -0.347,0.004 -0.633,0.144 -0.863,0.422 -0.234,0.285 -0.352,0.726 -0.348,1.328 z"
           style="fill:#4c4c4c;fill-opacity:1;fill-rule:nonzero;stroke:none"
           id="path832" />
        <path
           d="m 326.824,482.27 0.801,0.097 c -0.129,0.469 -0.363,0.832 -0.703,1.086 -0.34,0.258 -0.774,0.383 -1.305,0.387 -0.668,-0.004 -1.199,-0.203 -1.59,-0.613 -0.394,-0.407 -0.589,-0.985 -0.586,-1.731 -0.003,-0.766 0.196,-1.363 0.594,-1.789 0.395,-0.422 0.906,-0.633 1.539,-0.637 0.606,0.004 1.102,0.211 1.492,0.625 0.383,0.414 0.579,1 0.582,1.754 -0.003,0.047 -0.003,0.114 -0.003,0.203 h -3.403 c 0.024,0.504 0.168,0.891 0.426,1.157 0.254,0.269 0.57,0.402 0.953,0.398 0.281,0.004 0.524,-0.07 0.727,-0.223 0.199,-0.148 0.359,-0.386 0.476,-0.714 z m -2.539,-1.25 h 2.547 c -0.039,-0.383 -0.133,-0.668 -0.289,-0.864 -0.25,-0.297 -0.57,-0.449 -0.961,-0.449 -0.355,0 -0.656,0.121 -0.894,0.359 -0.247,0.239 -0.379,0.555 -0.403,0.954 z"
           style="fill:#4c4c4c;fill-opacity:1;fill-rule:nonzero;stroke:none"
           id="path834" />
        <path
           d="m 328.586,483.738 v -4.562 h 0.695 v 0.691 c 0.18,-0.32 0.344,-0.535 0.492,-0.64 0.149,-0.102 0.313,-0.153 0.5,-0.157 0.258,0.004 0.524,0.086 0.793,0.25 l -0.265,0.719 c -0.196,-0.109 -0.383,-0.168 -0.567,-0.168 -0.171,0 -0.324,0.051 -0.457,0.152 -0.136,0.102 -0.234,0.243 -0.289,0.422 -0.09,0.278 -0.133,0.578 -0.129,0.903 v 2.39 z"
           style="fill:#4c4c4c;fill-opacity:1;fill-rule:nonzero;stroke:none"
           id="path836" />
        <path
           d="m 334.113,483.738 v -6.3 h 4.25 v 0.746 h -3.418 v 1.949 h 2.957 v 0.742 h -2.957 v 2.863 z"
           style="fill:#4c4c4c;fill-opacity:1;fill-rule:nonzero;stroke:none"
           id="path838" />
        <path
           d="m 339.352,478.328 v -0.89 h 0.773 v 0.89 z m 0,5.41 v -4.562 h 0.773 v 4.562 z"
           style="fill:#4c4c4c;fill-opacity:1;fill-rule:nonzero;stroke:none"
           id="path840" />
        <path
           d="m 340.992,482.375 0.766,-0.121 c 0.043,0.312 0.164,0.547 0.359,0.707 0.196,0.168 0.469,0.25 0.824,0.246 0.352,0.004 0.614,-0.07 0.789,-0.219 0.168,-0.144 0.254,-0.312 0.258,-0.508 -0.004,-0.171 -0.078,-0.308 -0.226,-0.414 -0.11,-0.062 -0.375,-0.152 -0.793,-0.261 -0.571,-0.141 -0.961,-0.262 -1.18,-0.371 -0.219,-0.102 -0.387,-0.246 -0.5,-0.434 -0.113,-0.18 -0.168,-0.387 -0.168,-0.613 0,-0.203 0.047,-0.391 0.141,-0.563 0.093,-0.172 0.218,-0.316 0.379,-0.433 0.121,-0.086 0.285,-0.161 0.492,-0.227 0.207,-0.059 0.43,-0.09 0.668,-0.094 0.355,0.004 0.672,0.055 0.945,0.157 0.27,0.105 0.469,0.246 0.598,0.421 0.129,0.176 0.219,0.411 0.269,0.704 l -0.758,0.105 c -0.035,-0.234 -0.136,-0.418 -0.3,-0.551 -0.168,-0.133 -0.399,-0.199 -0.696,-0.199 -0.359,0 -0.613,0.059 -0.761,0.176 -0.153,0.117 -0.227,0.258 -0.227,0.414 0,0.101 0.031,0.191 0.094,0.269 0.062,0.086 0.16,0.153 0.297,0.207 0.074,0.032 0.301,0.098 0.683,0.2 0.543,0.148 0.926,0.269 1.145,0.359 0.215,0.094 0.383,0.231 0.508,0.406 0.121,0.18 0.183,0.399 0.187,0.66 -0.004,0.262 -0.078,0.504 -0.226,0.731 -0.153,0.226 -0.371,0.402 -0.653,0.527 -0.289,0.121 -0.609,0.18 -0.961,0.184 -0.597,-0.004 -1.05,-0.121 -1.359,-0.367 -0.313,-0.243 -0.508,-0.61 -0.594,-1.098 z"
           style="fill:#4c4c4c;fill-opacity:1;fill-rule:nonzero;stroke:none"
           id="path842" />
        <path
           d="m 345.699,483.738 v -6.3 h 0.774 v 2.261 c 0.359,-0.414 0.816,-0.625 1.367,-0.629 0.336,0.004 0.629,0.071 0.883,0.203 0.246,0.133 0.425,0.317 0.535,0.551 0.105,0.235 0.156,0.578 0.16,1.024 v 2.89 h -0.773 v -2.89 c -0.004,-0.383 -0.086,-0.664 -0.254,-0.844 -0.168,-0.172 -0.407,-0.262 -0.707,-0.266 -0.235,0.004 -0.45,0.063 -0.649,0.18 -0.203,0.117 -0.347,0.277 -0.433,0.48 -0.09,0.204 -0.133,0.485 -0.129,0.844 v 2.496 z"
           style="fill:#4c4c4c;fill-opacity:1;fill-rule:nonzero;stroke:none"
           id="path844" />
        <path
           d="m 353.719,482.27 0.801,0.097 c -0.129,0.469 -0.364,0.832 -0.704,1.086 -0.339,0.258 -0.773,0.383 -1.304,0.387 -0.668,-0.004 -1.199,-0.203 -1.59,-0.613 -0.395,-0.407 -0.59,-0.985 -0.586,-1.731 -0.004,-0.766 0.195,-1.363 0.594,-1.789 0.394,-0.422 0.906,-0.633 1.539,-0.637 0.605,0.004 1.101,0.211 1.492,0.625 0.383,0.414 0.578,1 0.582,1.754 -0.004,0.047 -0.004,0.114 -0.004,0.203 h -3.402 c 0.023,0.504 0.168,0.891 0.426,1.157 0.253,0.269 0.57,0.402 0.953,0.398 0.281,0.004 0.523,-0.07 0.726,-0.223 0.199,-0.148 0.36,-0.386 0.477,-0.714 z m -2.539,-1.25 h 2.547 c -0.039,-0.383 -0.133,-0.668 -0.289,-0.864 -0.25,-0.297 -0.571,-0.449 -0.961,-0.449 -0.356,0 -0.657,0.121 -0.895,0.359 -0.246,0.239 -0.379,0.555 -0.402,0.954 z"
           style="fill:#4c4c4c;fill-opacity:1;fill-rule:nonzero;stroke:none"
           id="path846" />
        <path
           d="m 355.18,482.375 0.765,-0.121 c 0.043,0.312 0.164,0.547 0.36,0.707 0.195,0.168 0.468,0.25 0.824,0.246 0.351,0.004 0.613,-0.07 0.789,-0.219 0.168,-0.144 0.254,-0.312 0.258,-0.508 -0.004,-0.171 -0.078,-0.308 -0.227,-0.414 -0.109,-0.062 -0.375,-0.152 -0.793,-0.261 -0.57,-0.141 -0.961,-0.262 -1.179,-0.371 -0.219,-0.102 -0.387,-0.246 -0.5,-0.434 -0.114,-0.18 -0.168,-0.387 -0.168,-0.613 0,-0.203 0.046,-0.391 0.14,-0.563 0.094,-0.172 0.219,-0.316 0.379,-0.433 0.121,-0.086 0.285,-0.161 0.492,-0.227 0.207,-0.059 0.43,-0.09 0.668,-0.094 0.356,0.004 0.672,0.055 0.946,0.157 0.269,0.105 0.468,0.246 0.597,0.421 0.129,0.176 0.219,0.411 0.27,0.704 l -0.758,0.105 c -0.035,-0.234 -0.137,-0.418 -0.301,-0.551 -0.168,-0.133 -0.398,-0.199 -0.695,-0.199 -0.359,0 -0.613,0.059 -0.762,0.176 -0.152,0.117 -0.226,0.258 -0.226,0.414 0,0.101 0.031,0.191 0.093,0.269 0.063,0.086 0.161,0.153 0.297,0.207 0.074,0.032 0.301,0.098 0.684,0.2 0.543,0.148 0.926,0.269 1.144,0.359 0.215,0.094 0.383,0.231 0.508,0.406 0.121,0.18 0.184,0.399 0.188,0.66 -0.004,0.262 -0.078,0.504 -0.227,0.731 -0.152,0.226 -0.371,0.402 -0.652,0.527 -0.289,0.121 -0.61,0.18 -0.961,0.184 -0.598,-0.004 -1.051,-0.121 -1.36,-0.367 -0.312,-0.243 -0.507,-0.61 -0.593,-1.098 z"
           style="fill:#4c4c4c;fill-opacity:1;fill-rule:nonzero;stroke:none"
           id="path848" />
        <path
           d="m 408.09,483.738 -1.668,-6.3 h 0.851 l 0.961,4.128 c 0.102,0.438 0.188,0.868 0.266,1.289 0.156,-0.667 0.25,-1.054 0.281,-1.164 l 1.199,-4.253 h 1.008 l 0.903,3.191 c 0.226,0.793 0.386,1.535 0.488,2.226 0.078,-0.394 0.184,-0.851 0.316,-1.367 l 0.989,-4.05 h 0.836 l -1.727,6.3 h -0.805 l -1.328,-4.8 c -0.113,-0.399 -0.18,-0.645 -0.195,-0.739 -0.07,0.293 -0.133,0.539 -0.188,0.739 l -1.336,4.8 z"
           style="fill:#4c4c4c;fill-opacity:1;fill-rule:nonzero;stroke:none"
           id="path850" />
        <path
           d="m 418.176,483.176 c -0.289,0.242 -0.563,0.414 -0.828,0.515 -0.266,0.098 -0.551,0.145 -0.852,0.149 -0.504,-0.004 -0.891,-0.121 -1.16,-0.367 -0.27,-0.243 -0.402,-0.555 -0.402,-0.938 0,-0.219 0.05,-0.426 0.152,-0.613 0.102,-0.184 0.234,-0.332 0.402,-0.445 0.16,-0.11 0.344,-0.192 0.555,-0.254 0.148,-0.035 0.379,-0.075 0.687,-0.114 0.622,-0.074 1.083,-0.164 1.379,-0.265 0,-0.106 0,-0.172 0.004,-0.203 -0.004,-0.313 -0.078,-0.536 -0.218,-0.668 -0.204,-0.172 -0.497,-0.258 -0.879,-0.262 -0.368,0.004 -0.637,0.066 -0.809,0.191 -0.176,0.129 -0.301,0.356 -0.383,0.676 l -0.754,-0.101 c 0.063,-0.321 0.176,-0.582 0.336,-0.782 0.157,-0.199 0.383,-0.351 0.684,-0.461 0.297,-0.105 0.644,-0.16 1.035,-0.164 0.391,0.004 0.707,0.051 0.949,0.141 0.242,0.094 0.422,0.207 0.539,0.344 0.114,0.14 0.192,0.316 0.242,0.527 0.02,0.133 0.032,0.371 0.036,0.711 v 1.031 c -0.004,0.723 0.015,1.18 0.05,1.367 0.032,0.196 0.094,0.375 0.196,0.547 h -0.809 c -0.082,-0.16 -0.133,-0.347 -0.152,-0.562 z m -0.067,-1.727 c -0.281,0.117 -0.703,0.215 -1.261,0.289 -0.321,0.051 -0.547,0.102 -0.676,0.157 -0.133,0.058 -0.234,0.144 -0.305,0.253 -0.074,0.114 -0.109,0.235 -0.105,0.364 -0.004,0.211 0.074,0.383 0.234,0.519 0.152,0.137 0.383,0.203 0.684,0.203 0.297,0 0.558,-0.062 0.793,-0.195 0.23,-0.125 0.402,-0.305 0.511,-0.535 0.082,-0.172 0.125,-0.43 0.125,-0.774 z"
           style="fill:#4c4c4c;fill-opacity:1;fill-rule:nonzero;stroke:none"
           id="path852" />
        <path
           d="m 420.082,483.738 v -4.562 h 0.695 v 0.691 c 0.18,-0.32 0.344,-0.535 0.493,-0.64 0.148,-0.102 0.312,-0.153 0.5,-0.157 0.257,0.004 0.523,0.086 0.793,0.25 l -0.266,0.719 c -0.195,-0.109 -0.383,-0.168 -0.567,-0.168 -0.171,0 -0.324,0.051 -0.457,0.152 -0.136,0.102 -0.234,0.243 -0.289,0.422 -0.089,0.278 -0.132,0.578 -0.129,0.903 v 2.39 z"
           style="fill:#4c4c4c;fill-opacity:1;fill-rule:nonzero;stroke:none"
           id="path854" />
        <path
           d="m 423.02,483.738 v -4.562 h 0.695 v 0.64 c 0.14,-0.218 0.332,-0.398 0.57,-0.539 0.235,-0.132 0.504,-0.203 0.813,-0.207 0.336,0.004 0.613,0.075 0.832,0.211 0.211,0.145 0.363,0.34 0.457,0.59 0.355,-0.531 0.828,-0.797 1.41,-0.801 0.449,0.004 0.793,0.129 1.039,0.379 0.242,0.25 0.367,0.637 0.367,1.156 v 3.133 h -0.765 v -2.875 c -0.004,-0.308 -0.028,-0.531 -0.079,-0.668 -0.05,-0.132 -0.144,-0.242 -0.273,-0.328 -0.133,-0.082 -0.285,-0.125 -0.461,-0.125 -0.324,0 -0.59,0.11 -0.801,0.321 -0.211,0.218 -0.316,0.558 -0.316,1.023 v 2.652 h -0.774 v -2.965 c 0,-0.343 -0.066,-0.601 -0.191,-0.773 -0.129,-0.172 -0.332,-0.258 -0.617,-0.258 -0.219,0 -0.422,0.059 -0.606,0.172 -0.187,0.117 -0.32,0.285 -0.402,0.504 -0.086,0.223 -0.129,0.539 -0.125,0.953 v 2.367 z"
           style="fill:#4c4c4c;fill-opacity:1;fill-rule:nonzero;stroke:none"
           id="path856" />
        <path
           d="m 433.477,482.27 0.8,0.097 c -0.129,0.469 -0.363,0.832 -0.703,1.086 -0.34,0.258 -0.773,0.383 -1.304,0.387 -0.668,-0.004 -1.2,-0.203 -1.59,-0.613 -0.395,-0.407 -0.59,-0.985 -0.586,-1.731 -0.004,-0.766 0.195,-1.363 0.594,-1.789 0.394,-0.422 0.906,-0.633 1.539,-0.637 0.605,0.004 1.101,0.211 1.492,0.625 0.383,0.414 0.578,1 0.582,1.754 -0.004,0.047 -0.004,0.114 -0.004,0.203 h -3.402 c 0.023,0.504 0.168,0.891 0.425,1.157 0.254,0.269 0.571,0.402 0.953,0.398 0.282,0.004 0.524,-0.07 0.727,-0.223 0.199,-0.148 0.359,-0.386 0.477,-0.714 z m -2.539,-1.25 h 2.546 c -0.039,-0.383 -0.132,-0.668 -0.289,-0.864 -0.25,-0.297 -0.57,-0.449 -0.961,-0.449 -0.355,0 -0.656,0.121 -0.894,0.359 -0.246,0.239 -0.379,0.555 -0.402,0.954 z"
           style="fill:#4c4c4c;fill-opacity:1;fill-rule:nonzero;stroke:none"
           id="path858" />
        <path
           d="m 435.238,483.738 v -4.562 h 0.696 v 0.691 c 0.179,-0.32 0.343,-0.535 0.492,-0.64 0.148,-0.102 0.312,-0.153 0.5,-0.157 0.258,0.004 0.523,0.086 0.793,0.25 l -0.266,0.719 c -0.195,-0.109 -0.383,-0.168 -0.566,-0.168 -0.172,0 -0.324,0.051 -0.457,0.152 -0.137,0.102 -0.235,0.243 -0.289,0.422 -0.09,0.278 -0.133,0.578 -0.129,0.903 v 2.39 z"
           style="fill:#4c4c4c;fill-opacity:1;fill-rule:nonzero;stroke:none"
           id="path860" />
        <path
           d="m 440.766,483.738 v -6.3 h 4.25 v 0.746 h -3.418 v 1.949 h 2.957 v 0.742 h -2.957 v 2.863 z"
           style="fill:#4c4c4c;fill-opacity:1;fill-rule:nonzero;stroke:none"
           id="path862" />
        <path
           d="m 446.004,478.328 v -0.89 h 0.773 v 0.89 z m 0,5.41 v -4.562 h 0.773 v 4.562 z"
           style="fill:#4c4c4c;fill-opacity:1;fill-rule:nonzero;stroke:none"
           id="path864" />
        <path
           d="m 447.645,482.375 0.765,-0.121 c 0.043,0.312 0.164,0.547 0.36,0.707 0.195,0.168 0.468,0.25 0.824,0.246 0.351,0.004 0.613,-0.07 0.789,-0.219 0.168,-0.144 0.254,-0.312 0.258,-0.508 -0.004,-0.171 -0.078,-0.308 -0.227,-0.414 -0.109,-0.062 -0.375,-0.152 -0.793,-0.261 -0.57,-0.141 -0.961,-0.262 -1.18,-0.371 -0.218,-0.102 -0.386,-0.246 -0.5,-0.434 -0.113,-0.18 -0.168,-0.387 -0.168,-0.613 0,-0.203 0.047,-0.391 0.141,-0.563 0.094,-0.172 0.219,-0.316 0.379,-0.433 0.121,-0.086 0.285,-0.161 0.492,-0.227 0.207,-0.059 0.43,-0.09 0.668,-0.094 0.356,0.004 0.672,0.055 0.945,0.157 0.27,0.105 0.469,0.246 0.598,0.421 0.129,0.176 0.219,0.411 0.27,0.704 l -0.758,0.105 c -0.035,-0.234 -0.137,-0.418 -0.301,-0.551 -0.168,-0.133 -0.398,-0.199 -0.695,-0.199 -0.36,0 -0.614,0.059 -0.762,0.176 -0.152,0.117 -0.227,0.258 -0.227,0.414 0,0.101 0.032,0.191 0.094,0.269 0.063,0.086 0.16,0.153 0.297,0.207 0.074,0.032 0.301,0.098 0.684,0.2 0.543,0.148 0.925,0.269 1.144,0.359 0.215,0.094 0.383,0.231 0.508,0.406 0.121,0.18 0.184,0.399 0.188,0.66 -0.004,0.262 -0.079,0.504 -0.227,0.731 -0.152,0.226 -0.371,0.402 -0.652,0.527 -0.289,0.121 -0.61,0.18 -0.961,0.184 -0.598,-0.004 -1.051,-0.121 -1.36,-0.367 -0.312,-0.243 -0.508,-0.61 -0.593,-1.098 z"
           style="fill:#4c4c4c;fill-opacity:1;fill-rule:nonzero;stroke:none"
           id="path866" />
        <path
           d="m 452.352,483.738 v -6.3 h 0.773 v 2.261 c 0.359,-0.414 0.816,-0.625 1.367,-0.629 0.336,0.004 0.629,0.071 0.883,0.203 0.246,0.133 0.426,0.317 0.535,0.551 0.106,0.235 0.156,0.578 0.16,1.024 v 2.89 h -0.773 v -2.89 c -0.004,-0.383 -0.086,-0.664 -0.254,-0.844 -0.168,-0.172 -0.406,-0.262 -0.707,-0.266 -0.234,0.004 -0.449,0.063 -0.648,0.18 -0.204,0.117 -0.348,0.277 -0.434,0.48 -0.09,0.204 -0.133,0.485 -0.129,0.844 v 2.496 z"
           style="fill:#4c4c4c;fill-opacity:1;fill-rule:nonzero;stroke:none"
           id="path868" />
        <path
           d="m 460.371,482.27 0.801,0.097 c -0.129,0.469 -0.363,0.832 -0.703,1.086 -0.34,0.258 -0.774,0.383 -1.305,0.387 -0.668,-0.004 -1.199,-0.203 -1.59,-0.613 -0.394,-0.407 -0.59,-0.985 -0.586,-1.731 -0.004,-0.766 0.196,-1.363 0.594,-1.789 0.395,-0.422 0.906,-0.633 1.539,-0.637 0.606,0.004 1.102,0.211 1.492,0.625 0.383,0.414 0.578,1 0.582,1.754 -0.004,0.047 -0.004,0.114 -0.004,0.203 h -3.402 c 0.024,0.504 0.168,0.891 0.426,1.157 0.254,0.269 0.57,0.402 0.953,0.398 0.281,0.004 0.523,-0.07 0.727,-0.223 0.199,-0.148 0.359,-0.386 0.476,-0.714 z m -2.539,-1.25 h 2.547 c -0.039,-0.383 -0.133,-0.668 -0.289,-0.864 -0.25,-0.297 -0.57,-0.449 -0.961,-0.449 -0.356,0 -0.656,0.121 -0.895,0.359 -0.246,0.239 -0.379,0.555 -0.402,0.954 z"
           style="fill:#4c4c4c;fill-opacity:1;fill-rule:nonzero;stroke:none"
           id="path870" />
        <path
           d="m 461.832,482.375 0.766,-0.121 c 0.043,0.312 0.164,0.547 0.359,0.707 0.195,0.168 0.469,0.25 0.824,0.246 0.352,0.004 0.614,-0.07 0.789,-0.219 0.168,-0.144 0.254,-0.312 0.258,-0.508 -0.004,-0.171 -0.078,-0.308 -0.226,-0.414 -0.11,-0.062 -0.375,-0.152 -0.793,-0.261 -0.571,-0.141 -0.961,-0.262 -1.18,-0.371 -0.219,-0.102 -0.387,-0.246 -0.5,-0.434 -0.113,-0.18 -0.168,-0.387 -0.168,-0.613 0,-0.203 0.047,-0.391 0.141,-0.563 0.093,-0.172 0.218,-0.316 0.378,-0.433 0.122,-0.086 0.286,-0.161 0.493,-0.227 0.207,-0.059 0.429,-0.09 0.668,-0.094 0.355,0.004 0.672,0.055 0.945,0.157 0.269,0.105 0.469,0.246 0.598,0.421 0.129,0.176 0.218,0.411 0.269,0.704 l -0.758,0.105 c -0.035,-0.234 -0.136,-0.418 -0.3,-0.551 -0.168,-0.133 -0.399,-0.199 -0.696,-0.199 -0.359,0 -0.613,0.059 -0.761,0.176 -0.153,0.117 -0.227,0.258 -0.227,0.414 0,0.101 0.031,0.191 0.094,0.269 0.062,0.086 0.16,0.153 0.297,0.207 0.074,0.032 0.3,0.098 0.683,0.2 0.543,0.148 0.926,0.269 1.145,0.359 0.215,0.094 0.383,0.231 0.508,0.406 0.121,0.18 0.183,0.399 0.187,0.66 -0.004,0.262 -0.078,0.504 -0.227,0.731 -0.152,0.226 -0.371,0.402 -0.652,0.527 -0.289,0.121 -0.609,0.18 -0.961,0.184 -0.597,-0.004 -1.051,-0.121 -1.359,-0.367 -0.313,-0.243 -0.508,-0.61 -0.594,-1.098 z"
           style="fill:#4c4c4c;fill-opacity:1;fill-rule:nonzero;stroke:none"
           id="path872" />
        <path
           d="m 18.773,404.5 c -0.003,-0.742 0.071,-1.34 0.227,-1.797 0.148,-0.453 0.379,-0.805 0.684,-1.051 0.3,-0.246 0.679,-0.367 1.14,-0.371 0.336,0.004 0.633,0.071 0.891,0.203 0.254,0.137 0.465,0.332 0.629,0.59 0.164,0.258 0.293,0.571 0.39,0.938 0.094,0.367 0.141,0.863 0.145,1.488 -0.004,0.738 -0.078,1.336 -0.231,1.789 -0.152,0.457 -0.378,0.809 -0.679,1.055 -0.305,0.246 -0.688,0.367 -1.145,0.371 -0.609,-0.004 -1.086,-0.219 -1.429,-0.656 -0.418,-0.52 -0.625,-1.375 -0.622,-2.559 z m 0.793,0 c 0,1.035 0.122,1.727 0.364,2.066 0.242,0.344 0.539,0.512 0.894,0.512 0.356,0 0.656,-0.172 0.899,-0.515 0.242,-0.344 0.363,-1.032 0.363,-2.063 0,-1.039 -0.121,-1.727 -0.363,-2.066 -0.243,-0.34 -0.547,-0.512 -0.907,-0.512 -0.359,0 -0.64,0.152 -0.851,0.449 -0.266,0.391 -0.399,1.098 -0.399,2.129 z"
           style="fill:#4c4c4c;fill-opacity:1;fill-rule:nonzero;stroke:none"
           id="path874" />
        <path
           d="m 24.102,406.723 h 0.879 v 0.883 h -0.879 z"
           style="fill:#4c4c4c;fill-opacity:1;fill-rule:nonzero;stroke:none"
           id="path876" />
        <path
           d="m 30.176,406.863 v 0.742 h -4.164 c -0.008,-0.187 0.023,-0.367 0.09,-0.539 0.105,-0.281 0.273,-0.558 0.507,-0.836 0.231,-0.273 0.571,-0.589 1.016,-0.953 0.684,-0.558 1.145,-1.004 1.387,-1.336 0.234,-0.324 0.355,-0.636 0.359,-0.929 -0.004,-0.305 -0.113,-0.563 -0.328,-0.774 -0.223,-0.211 -0.508,-0.316 -0.855,-0.316 -0.375,0 -0.672,0.113 -0.895,0.336 -0.227,0.222 -0.34,0.531 -0.34,0.926 l -0.793,-0.082 c 0.051,-0.59 0.254,-1.039 0.613,-1.352 0.352,-0.309 0.829,-0.465 1.43,-0.469 0.602,0.004 1.082,0.172 1.434,0.504 0.351,0.336 0.527,0.75 0.531,1.242 -0.004,0.258 -0.055,0.504 -0.156,0.746 -0.102,0.243 -0.274,0.5 -0.512,0.77 -0.242,0.27 -0.641,0.637 -1.191,1.105 -0.469,0.391 -0.766,0.657 -0.899,0.797 -0.133,0.141 -0.242,0.282 -0.324,0.418 z"
           style="fill:#4c4c4c;fill-opacity:1;fill-rule:nonzero;stroke:none"
           id="path878" />
        <path
           d="m 18.773,328.066 c -0.003,-0.742 0.071,-1.339 0.227,-1.796 0.148,-0.454 0.379,-0.805 0.684,-1.051 0.3,-0.246 0.679,-0.367 1.14,-0.371 0.336,0.004 0.633,0.07 0.891,0.203 0.254,0.137 0.465,0.332 0.629,0.59 0.164,0.257 0.293,0.57 0.39,0.937 0.094,0.367 0.141,0.863 0.145,1.488 -0.004,0.739 -0.078,1.336 -0.231,1.789 -0.152,0.458 -0.378,0.809 -0.679,1.055 -0.305,0.246 -0.688,0.367 -1.145,0.371 -0.609,-0.004 -1.086,-0.218 -1.429,-0.656 -0.418,-0.52 -0.625,-1.375 -0.622,-2.559 z m 0.793,0 c 0,1.036 0.122,1.727 0.364,2.067 0.242,0.344 0.539,0.512 0.894,0.512 0.356,0 0.656,-0.172 0.899,-0.516 0.242,-0.344 0.363,-1.031 0.363,-2.063 0,-1.039 -0.121,-1.726 -0.363,-2.066 -0.243,-0.34 -0.547,-0.512 -0.907,-0.512 -0.359,0 -0.64,0.153 -0.851,0.45 -0.266,0.39 -0.399,1.097 -0.399,2.128 z"
           style="fill:#4c4c4c;fill-opacity:1;fill-rule:nonzero;stroke:none"
           id="path880" />
        <path
           d="m 24.102,330.289 h 0.879 v 0.883 h -0.879 z"
           style="fill:#4c4c4c;fill-opacity:1;fill-rule:nonzero;stroke:none"
           id="path882" />
        <path
           d="m 26.117,329.508 0.774,-0.102 c 0.086,0.442 0.238,0.758 0.453,0.949 0.211,0.196 0.469,0.29 0.777,0.29 0.359,0 0.668,-0.125 0.922,-0.379 0.25,-0.25 0.375,-0.563 0.379,-0.938 -0.004,-0.351 -0.121,-0.644 -0.352,-0.875 -0.234,-0.23 -0.527,-0.344 -0.882,-0.348 -0.149,0.004 -0.333,0.032 -0.547,0.086 l 0.086,-0.679 c 0.05,0.008 0.089,0.011 0.125,0.008 0.328,0.003 0.625,-0.082 0.89,-0.258 0.258,-0.168 0.391,-0.434 0.395,-0.793 -0.004,-0.281 -0.102,-0.516 -0.289,-0.703 -0.196,-0.184 -0.442,-0.278 -0.743,-0.282 -0.304,0.004 -0.554,0.098 -0.753,0.286 -0.204,0.187 -0.332,0.472 -0.387,0.847 l -0.774,-0.137 c 0.094,-0.515 0.309,-0.917 0.645,-1.203 0.336,-0.285 0.754,-0.425 1.254,-0.429 0.344,0.004 0.66,0.078 0.949,0.222 0.289,0.149 0.508,0.348 0.66,0.602 0.153,0.258 0.231,0.527 0.231,0.812 0,0.274 -0.075,0.524 -0.219,0.743 -0.148,0.226 -0.363,0.402 -0.648,0.535 0.371,0.086 0.66,0.265 0.867,0.535 0.207,0.273 0.308,0.613 0.312,1.016 -0.004,0.554 -0.203,1.019 -0.601,1.398 -0.403,0.383 -0.911,0.57 -1.524,0.574 -0.554,-0.004 -1.015,-0.164 -1.379,-0.492 -0.367,-0.328 -0.574,-0.758 -0.621,-1.285 z"
           style="fill:#4c4c4c;fill-opacity:1;fill-rule:nonzero;stroke:none"
           id="path884" />
        <path
           d="m 18.773,251.633 c -0.003,-0.742 0.071,-1.34 0.227,-1.797 0.148,-0.453 0.379,-0.805 0.684,-1.051 0.3,-0.246 0.679,-0.367 1.14,-0.371 0.336,0.004 0.633,0.07 0.891,0.203 0.254,0.137 0.465,0.332 0.629,0.59 0.164,0.258 0.293,0.57 0.39,0.938 0.094,0.367 0.141,0.863 0.145,1.488 -0.004,0.738 -0.078,1.336 -0.231,1.789 -0.152,0.457 -0.378,0.808 -0.679,1.055 -0.305,0.246 -0.688,0.367 -1.145,0.371 -0.609,-0.004 -1.086,-0.219 -1.429,-0.657 -0.418,-0.519 -0.625,-1.375 -0.622,-2.558 z m 0.793,0 c 0,1.035 0.122,1.726 0.364,2.066 0.242,0.344 0.539,0.512 0.894,0.512 0.356,0 0.656,-0.172 0.899,-0.516 0.242,-0.343 0.363,-1.031 0.363,-2.062 0,-1.039 -0.121,-1.727 -0.363,-2.067 -0.243,-0.339 -0.547,-0.511 -0.907,-0.511 -0.359,0 -0.64,0.152 -0.851,0.449 -0.266,0.391 -0.399,1.098 -0.399,2.129 z"
           style="fill:#4c4c4c;fill-opacity:1;fill-rule:nonzero;stroke:none"
           id="path886" />
        <path
           d="m 24.102,253.855 h 0.879 v 0.883 h -0.879 z"
           style="fill:#4c4c4c;fill-opacity:1;fill-rule:nonzero;stroke:none"
           id="path888" />
        <path
           d="m 28.59,254.738 v -1.508 h -2.731 v -0.71 l 2.875,-4.082 h 0.629 v 4.082 h 0.852 v 0.71 h -0.852 v 1.508 z m 0,-2.218 v -2.84 l -1.973,2.84 z"
           style="fill:#4c4c4c;fill-opacity:1;fill-rule:nonzero;stroke:none"
           id="path890" />
        <path
           d="m 18.773,175.199 c -0.003,-0.742 0.071,-1.34 0.227,-1.797 0.148,-0.453 0.379,-0.804 0.684,-1.05 0.3,-0.247 0.679,-0.368 1.14,-0.372 0.336,0.004 0.633,0.071 0.891,0.204 0.254,0.136 0.465,0.332 0.629,0.589 0.164,0.258 0.293,0.571 0.39,0.938 0.094,0.367 0.141,0.863 0.145,1.488 -0.004,0.739 -0.078,1.336 -0.231,1.789 -0.152,0.457 -0.378,0.809 -0.679,1.055 -0.305,0.246 -0.688,0.367 -1.145,0.371 -0.609,-0.004 -1.086,-0.219 -1.429,-0.656 -0.418,-0.52 -0.625,-1.375 -0.622,-2.559 z m 0.793,0 c 0,1.035 0.122,1.727 0.364,2.067 0.242,0.343 0.539,0.511 0.894,0.511 0.356,0 0.656,-0.172 0.899,-0.515 0.242,-0.344 0.363,-1.032 0.363,-2.063 0,-1.039 -0.121,-1.726 -0.363,-2.066 -0.243,-0.34 -0.547,-0.512 -0.907,-0.512 -0.359,0 -0.64,0.152 -0.851,0.449 -0.266,0.391 -0.399,1.098 -0.399,2.129 z"
           style="fill:#4c4c4c;fill-opacity:1;fill-rule:nonzero;stroke:none"
           id="path892" />
        <path
           d="m 24.102,177.422 h 0.879 v 0.883 h -0.879 z"
           style="fill:#4c4c4c;fill-opacity:1;fill-rule:nonzero;stroke:none"
           id="path894" />
        <path
           d="m 26.113,176.656 0.809,-0.07 c 0.058,0.398 0.199,0.695 0.418,0.894 0.219,0.2 0.484,0.297 0.797,0.297 0.371,0 0.683,-0.14 0.945,-0.422 0.254,-0.281 0.383,-0.652 0.387,-1.117 -0.004,-0.437 -0.129,-0.785 -0.375,-1.043 -0.25,-0.254 -0.574,-0.382 -0.973,-0.382 -0.25,0 -0.473,0.058 -0.672,0.171 -0.203,0.114 -0.359,0.258 -0.472,0.438 l -0.727,-0.094 0.609,-3.238 h 3.133 v 0.742 h -2.515 l -0.34,1.691 c 0.375,-0.257 0.773,-0.39 1.191,-0.394 0.547,0.004 1.012,0.195 1.391,0.57 0.379,0.383 0.566,0.871 0.57,1.469 -0.004,0.574 -0.168,1.066 -0.5,1.48 -0.406,0.508 -0.957,0.762 -1.652,0.766 -0.574,-0.004 -1.043,-0.16 -1.407,-0.48 -0.363,-0.321 -0.57,-0.746 -0.617,-1.278 z"
           style="fill:#4c4c4c;fill-opacity:1;fill-rule:nonzero;stroke:none"
           id="path896" />
        <path
           d="m 18.773,98.766 c -0.003,-0.743 0.071,-1.34 0.227,-1.797 0.148,-0.453 0.379,-0.805 0.684,-1.051 0.3,-0.246 0.679,-0.367 1.14,-0.371 0.336,0.004 0.633,0.07 0.891,0.203 0.254,0.137 0.465,0.332 0.629,0.59 0.164,0.258 0.293,0.57 0.39,0.937 0.094,0.368 0.141,0.864 0.145,1.489 -0.004,0.738 -0.078,1.336 -0.231,1.789 -0.152,0.457 -0.378,0.808 -0.679,1.054 -0.305,0.246 -0.688,0.368 -1.145,0.371 -0.609,-0.003 -1.086,-0.218 -1.429,-0.656 -0.418,-0.519 -0.625,-1.375 -0.622,-2.558 z m 0.793,0 c 0,1.035 0.122,1.726 0.364,2.066 0.242,0.344 0.539,0.512 0.894,0.512 0.356,0 0.656,-0.172 0.899,-0.516 0.242,-0.344 0.363,-1.031 0.363,-2.062 0,-1.039 -0.121,-1.727 -0.363,-2.067 -0.243,-0.34 -0.547,-0.511 -0.907,-0.511 -0.359,0 -0.64,0.152 -0.851,0.449 -0.266,0.39 -0.399,1.097 -0.399,2.129 z"
           style="fill:#4c4c4c;fill-opacity:1;fill-rule:nonzero;stroke:none"
           id="path898" />
        <path
           d="m 24.102,100.988 h 0.879 v 0.883 h -0.879 z"
           style="fill:#4c4c4c;fill-opacity:1;fill-rule:nonzero;stroke:none"
           id="path900" />
        <path
           d="m 30.125,97.113 -0.77,0.063 c -0.07,-0.301 -0.167,-0.524 -0.292,-0.664 -0.211,-0.215 -0.469,-0.324 -0.774,-0.328 -0.246,0.004 -0.465,0.07 -0.648,0.203 -0.246,0.179 -0.438,0.441 -0.575,0.781 -0.144,0.34 -0.214,0.824 -0.218,1.453 0.183,-0.281 0.41,-0.492 0.679,-0.629 0.27,-0.137 0.551,-0.203 0.848,-0.207 0.512,0.004 0.949,0.192 1.316,0.57 0.36,0.379 0.543,0.872 0.547,1.469 -0.004,0.399 -0.09,0.766 -0.258,1.106 -0.171,0.34 -0.406,0.601 -0.703,0.781 -0.3,0.18 -0.636,0.266 -1.011,0.269 -0.649,-0.003 -1.176,-0.238 -1.578,-0.71 -0.411,-0.473 -0.614,-1.254 -0.61,-2.348 -0.004,-1.211 0.219,-2.098 0.672,-2.652 0.391,-0.481 0.922,-0.719 1.586,-0.723 0.496,0.004 0.902,0.141 1.219,0.418 0.316,0.277 0.504,0.66 0.57,1.148 z m -3.16,2.719 c 0,0.266 0.055,0.523 0.168,0.766 0.113,0.246 0.273,0.429 0.476,0.554 0.204,0.129 0.414,0.192 0.641,0.192 0.324,0 0.605,-0.129 0.844,-0.395 0.23,-0.261 0.347,-0.621 0.351,-1.078 -0.004,-0.43 -0.117,-0.773 -0.347,-1.027 -0.235,-0.246 -0.528,-0.371 -0.875,-0.375 -0.356,0.004 -0.653,0.129 -0.895,0.375 -0.242,0.254 -0.363,0.582 -0.363,0.988 z"
           style="fill:#4c4c4c;fill-opacity:1;fill-rule:nonzero;stroke:none"
           id="path902" />
        <g
           id="g904">
          <path
             d="m 32.832,404.457 h 2.742"
             style="fill:none;stroke:#333333;stroke-width:1.06698;stroke-linecap:butt;stroke-linejoin:round;stroke-miterlimit:10;stroke-dasharray:none;stroke-opacity:1"
             id="path906" />
        </g>
        <g
           id="g908">
          <path
             d="m 32.832,328.023 h 2.742"
             style="fill:none;stroke:#333333;stroke-width:1.06698;stroke-linecap:butt;stroke-linejoin:round;stroke-miterlimit:10;stroke-dasharray:none;stroke-opacity:1"
             id="path910" />
        </g>
        <g
           id="g912">
          <path
             d="m 32.832,251.59 h 2.742"
             style="fill:none;stroke:#333333;stroke-width:1.06698;stroke-linecap:butt;stroke-linejoin:round;stroke-miterlimit:10;stroke-dasharray:none;stroke-opacity:1"
             id="path914" />
        </g>
        <g
           id="g916">
          <path
             d="m 32.832,175.156 h 2.742"
             style="fill:none;stroke:#333333;stroke-width:1.06698;stroke-linecap:butt;stroke-linejoin:round;stroke-miterlimit:10;stroke-dasharray:none;stroke-opacity:1"
             id="path918" />
        </g>
        <g
           id="g920">
          <path
             d="m 32.832,98.723 h 2.742"
             style="fill:none;stroke:#333333;stroke-width:1.06698;stroke-linecap:butt;stroke-linejoin:round;stroke-miterlimit:10;stroke-dasharray:none;stroke-opacity:1"
             id="path922" />
        </g>
        <text
           xml:space="preserve"
           style="font-style:normal;font-variant:normal;font-weight:normal;font-stretch:normal;font-size:12px;line-height:1.25;font-family:Helvetica;-inkscape-font-specification:Helvetica;letter-spacing:0px;word-spacing:0px;fill:#000000;fill-opacity:1;stroke:none;stroke-width:0.749999"
           x="-284.76605"
           y="9.4299479"
           id="text7217"
           transform="rotate(-90)"><tspan
             sodipodi:role="line"
             id="tspan7215"
             x="-284.76605"
             y="9.4299479"
             style="font-size:12px;stroke-width:0.749999">S<tspan
   style="font-size:65%;baseline-shift:sub"
   id="tspan1197">TG</tspan>−S<tspan
   style="font-size:65%;baseline-shift:sub"
   id="tspan1195">AC</tspan> skew</tspan></text>
        <text
           xml:space="preserve"
           style="font-style:normal;font-variant:normal;font-weight:bold;font-stretch:normal;font-size:9.94136px;line-height:1.25;font-family:Helvetica;-inkscape-font-specification:'Helvetica Bold';letter-spacing:0px;word-spacing:0px;fill:#000000;fill-opacity:1;stroke:none;stroke-width:0.57354"
           x="-8.5888376"
           y="732.79022"
           id="text8002"><tspan
             sodipodi:role="line"
             id="tspan8000"
             x="-8.5888376"
             y="732.79022"
             style="font-size:15.2944px;stroke-width:0.57354">Supplementary Figure 2</tspan></text>
      </g>
    </g>
  </g>
</svg>
